<svg xmlns="http://www.w3.org/2000/svg" width="11.346" height="13.393" viewBox="0 0 11.346 13.393">
  <g id="Grupo_2658" data-name="Grupo 2658" transform="translate(-28.875 -23.491)">
    <g id="Grupo_2649" data-name="Grupo 2649" transform="translate(28.875 36.06)">
      <path id="Trazado_8352" data-name="Trazado 8352" d="M39.809,70.092H29.287a.412.412,0,1,1,0-.824H39.809a.412.412,0,0,1,0,.824Z" transform="translate(-28.875 -69.268)" fill="#fff"/>
    </g>
    <g id="Grupo_2650" data-name="Grupo 2650" transform="translate(34.136 23.491)">
      <path id="Trazado_8353" data-name="Trazado 8353" d="M48.448,34.091a.412.412,0,0,1-.412-.412V23.9a.412.412,0,1,1,.824,0v9.776A.412.412,0,0,1,48.448,34.091Z" transform="translate(-48.036 -23.491)" fill="#fff"/>
    </g>
    <g id="Grupo_2651" data-name="Grupo 2651" transform="translate(29.777 29.751)">
      <path id="Trazado_8354" data-name="Trazado 8354" d="M36.931,50.836a.411.411,0,0,1-.267-.1L32.3,47.013a.412.412,0,1,1,.535-.627l4.07,3.477,3.475-3.456a.412.412,0,1,1,.581.584l-3.744,3.724A.411.411,0,0,1,36.931,50.836Z" transform="translate(-32.16 -46.288)" fill="#fff"/>
    </g>
  </g>
</svg>
