<svg xmlns="http://www.w3.org/2000/svg" width="17.212" height="23.471" viewBox="0 0 17.212 23.471">
  <g id="Grupo_2476" data-name="Grupo 2476" transform="translate(-175.028 -109.782)">
    <path id="Trazado_8348" data-name="Trazado 8348" d="M197.893,109.782h-13.3a1.567,1.567,0,0,0-1.565,1.565v7.041h.782v-7.041a.783.783,0,0,1,.782-.782h13.3a.783.783,0,0,1,.782.782v16.335a.79.79,0,0,1-.006.095h-3.514a1.175,1.175,0,0,0-1.174,1.174v3.514a.787.787,0,0,1-.095.006h-9.294a.783.783,0,0,1-.782-.782v-5.477h-.782v5.477a1.567,1.567,0,0,0,1.565,1.565h9.294a1.555,1.555,0,0,0,1.106-.458L199,128.788a1.555,1.555,0,0,0,.458-1.106V111.347A1.567,1.567,0,0,0,197.893,109.782Z" transform="translate(-7.218)" fill="#53565a"/>
    <path id="Trazado_8349" data-name="Trazado 8349" d="M246.9,229.038a.652.652,0,0,0,.163-.3,2.009,2.009,0,0,0,.063-.564,1.839,1.839,0,0,0-.063-.548.705.705,0,0,0-.176-.3.592.592,0,0,0-.288-.145,2.821,2.821,0,0,0-.511-.029h-.279v2.04h.464a1.69,1.69,0,0,0,.376-.029A.574.574,0,0,0,246.9,229.038Z" transform="translate(-63.86 -105.893)" fill="#53565a"/>
    <path id="Trazado_8350" data-name="Trazado 8350" d="M217.09,227.982a.408.408,0,0,0,.194-.151.414.414,0,0,0,.07-.24.4.4,0,0,0-.1-.277.43.43,0,0,0-.25-.137,2.988,2.988,0,0,0-.448-.021h-.3v.874h.34A1.609,1.609,0,0,0,217.09,227.982Z" transform="translate(-37.198 -105.894)" fill="#53565a"/>
    <path id="Trazado_8351" data-name="Trazado 8351" d="M189.111,212.041a.783.783,0,0,0,.782-.782v-4.694a.783.783,0,0,0-.782-.782h-13.3a.783.783,0,0,0-.782.782v4.694a.783.783,0,0,0,.782.782Zm-4.648-4.688h2.112v.521h-1.49v.729h1.286v.521h-1.286v1.309h-.622Zm-3.135,0h1.137a2.222,2.222,0,0,1,.586.059,1.03,1.03,0,0,1,.464.284,1.346,1.346,0,0,1,.294.5,2.274,2.274,0,0,1,.1.728,2.022,2.022,0,0,1-.095.655,1.358,1.358,0,0,1-.33.544,1.094,1.094,0,0,1-.437.246,1.881,1.881,0,0,1-.551.065h-1.17Zm-2.89,0h1a3.621,3.621,0,0,1,.74.046.808.808,0,0,1,.443.3.956.956,0,0,1,.179.6,1,1,0,0,1-.1.477.844.844,0,0,1-.262.3.9.9,0,0,1-.323.146,3.55,3.55,0,0,1-.645.044h-.405v1.162h-.622Z" transform="translate(0 -86.612)" fill="#53565a"/>
  </g>
</svg>
