<svg id="Capa_1" data-name="Capa 1" xmlns="http://www.w3.org/2000/svg" viewBox="0 0 1918.52 884.84"><defs><style>.cls-1{opacity:1;}.cls-2{fill:none;stroke:#fff;}</style></defs><g id="Grupo_2567" data-name="Grupo 2567" class="cls-1"><g id="Grupo_421" data-name="Grupo 421"><g id="Grupo_416" data-name="Grupo 416"><path id="Trazado_279" data-name="Trazado 279" class="cls-2" d="M87.13,630.83c0-6.91,6.93-10.54,11.27-13.68,7.73-5.61,10.75-14.08,14.07-23.37,7.31-20.44,21.73-33.45,35.69-48.2,29.47-31.15,57.65-63.91,84.14-98.14,13.85-17.9,30.11-17.92,49.89-15.25,20.48,2.77,41.12-2.37,61.52,1.18,12,2.09,44.91,5.68,50.54,20.47,3.72,9.8,3.16,17.87,9.16,27.1,5.56,8.56,12.17,16.38,16.67,25.76,16.5,34.34-25.6,72.79-42.46,97.09-12.27,17.68-19.31,34.71-28,54.35-8.27,18.59-30.91,25.48-47.41,31.1-40,13.6-80.9,20.16-122.13,9.6-20-5.13-40.7-8.05-55.65-24.82-7.5-8.4-13.93-19.1-22.58-26.07C96.61,643.78,87.13,639.46,87.13,630.83Z" transform="translate(0.46 134.09)"/></g><g id="Grupo_417" data-name="Grupo 417"><path id="Trazado_280" data-name="Trazado 280" class="cls-2" d="M50.1,105.77c8.61-27.85,34.71-44.35,59.64-42.14C122.67,64.78,134,62.4,146.51,59c16.08-4.31,30.87-4.05,47.26-3.73,30.12.59,55.74-15.29,83.91,5.28,6.44,4.7,11,23.12,15.38,30.77,8.7,15.27,1.51,24.3-5.62,37.73-2.39,4.5-3.05,8.49-3.57,13.6-.79,7.67-5.31,12.6-9.64,18.2-8.07,10.45-20.37,28.4-32.37,32.94-11.7,4.44-24.75,5-36.65,9.29-13.5,4.9-25.51,15.65-40.06,16.58-14.07.9-26.9-7.2-40.05-11.47-11.55-3.75-31.93-7-40-17.82-15.2-20.34-44.18-54.75-34.95-84.63C55.52,88.22,45.6,120.33,50.1,105.77Z" transform="translate(0.46 134.09)"/></g><g id="Grupo_418" data-name="Grupo 418"><path id="Trazado_281" data-name="Trazado 281" class="cls-2" d="M115.68,106.44c-2,10-6.53,40.87,2,48.3,9,7.8,26.12,14.31,37.08,17.33,15,4.12,27.15-3.52,40.23-10.66,14.57-7.95,28.43-6.77,40.55-20.43,6.95-7.83,20-27.28,12.57-39.14-5.66-9.07-34.39-.11-43.21-.78-15.56-1.17-29.76-9.2-45.62-7.45-6,.66-42.26,5.77-43.64,12.83C112.83,121.06,116.42,102.65,115.68,106.44Z" transform="translate(0.46 134.09)"/></g><g id="Grupo_419" data-name="Grupo 419"><path id="Trazado_282" data-name="Trazado 282" class="cls-2" d="M1143.49,443.37c-3.5,9.67-12.51,17.64-19,24.74-14.3,15.53-32,30.13-49.92,40.13-18.63,10.38-42,8.1-60.11-2.44-19.52-11.36-38.42-21-53.18-39.13-12.5-15.38-37.32-12.17-53.42-21-9.19-5-13.91-12.13-20.56-20.3-7.85-9.66-21.59-12.5-32.6-14.64a150.76,150.76,0,0,0-64.13,1.16c-9.44,2.24-20.46,5.2-27.19,13.48-7.58,9.34-12.3,15.44-23,20.3-17.57,8-25.16,30.25-40.94,40.8-8.08,5.39-21.38.26-30.18.11-11.89-.21-21.84,6.44-31.31,13.75-15.19,11.72-34.18,26.49-53,28.89-10.59,1.35-21.16-1.34-31.76-.65-11.85.76-21.94,7.49-32.83,11.94-13.06,5.35-24.2.92-37.46,1.14-16.63.28-11,16.12-21.43,25.22,0,0-10.89,8.18-16.4,12s-10.9,7.81-15.64,13.23c-11,12.58-21.67,25.47-33.14,37.49-23.05,24.17-35.83,55.81-54.84,83.57C331.19,728,326.69,734.3,310.23,739a288.47,288.47,0,0,1-47.67,9.45c-15.9,1.76-31.68,1-47.61,1-15.68,0-31.2,3.13-46.39-2.79-12.89-5-24.19-11.42-38.08-12.43-16.94-1.22-34.2-.48-51.17-.34-14.63.11-29.45.5-44.05-.59C19,732.07,13.67,719.11,7.16,703.47c-14.77-35.44-4.67-68,13.23-98.83h0c2.21-3.82,6.75-4.23,9.6-7.16q6-6.13,11.76-12.47c7-7.63,16-15.71,21.06-25.13C68,550.26,75.33,542.82,82.5,535c4.84-5.26,14.69-22.11,21.47-23.68,19.91-4.57,34.3,8.76,50.3-11.71,13.93-17.83,28.22-34.63,43.25-51.4l44.81-50c7.29-8.12,8.43-11.9,20.08-11.62,12.89.3,24.49,2.39,37.16-1.68,19.53-6.27,43-15.81,63.34-8.06,7.61,2.89,11.72,11.6,16.52,18.11,7.25,9.82,16.24,18.44,24.3,27.44C416.75,437,428,459.22,447.3,462c23.83,3.49,40-7.72,48.5-32.4,5.9-17.21,6.6-46.77,20.17-58.59,6.68-5.82,12.71-9.54,13.86-19.78,1.55-13.71-3.18-27.13-.24-40.83,5.28-24.52,11.94-40.6,3.5-66.06-3.66-11-8.15-17.23-16.2-24.52-6.85-6.2-15.62-17.58-15.62-28,0-26.92,23.56-25.08,41.29-22.19,11,1.8,21,5.48,31.64,8.89,12.59,4.05,24.3,2.24,37.13,1.89,23.44-.65,36.27,18.8,51.33,35.6,16.16,18,35.26-14.2,51.42,3.83,6.1,6.8,19-5.37,26.24,0,8.38,6.26,13.67,1,23,0,21.61-2.4,40.19,18.66,55.21-3.83,11.94-17.88,29,32.86,43.08,17.09L910.11,179l44.65-49.81c5.81-6.48,15.12-10.57,17.85-19.91,3.9-13.37,1.47-27.71,0-41.28-2.4-22.15-15.12-36.41-2.64-58.1,4.49-7.8,10.12-15.27,12.18-24.46,3.06-13.66-2.53-27.57,0-41.28,2.84-15.32,39.27-26.38,50.12-20,7.17,4.21,10.1,13.87,15.62,20,8.58,9.57,18.26,16.57,22,30.18,6.3,22.83,5.86,49.37,5.64,73-.28,28.58,0,57,.67,85.59.61,24.81-8.09,36-24,50.45-17.67,16.11,16.22,30.63,27.3,29.05,8.61-1.22,18.65-4.46,26.63,1.14,6.75,4.74,10.21,13.37,15.73,19.53,6.8,7.59,13.32,16,20.76,22.84,7.64,7,16,12.12,17.4,24.11s-2.46,23.69-1.17,35.6c1.17,10.8,6.46,20.31,8.44,30.89,4.4,23.44-17.64,40.61-20.13,63.26-.71,6.5-.56,13.57-1.12,20.41C1146.05,430.24,1147.21,433.1,1143.49,443.37Z" transform="translate(0.46 134.09)"/></g><g id="Grupo_420" data-name="Grupo 420"><path id="Trazado_283" data-name="Trazado 283" class="cls-2" d="M896.93,604.07a68.65,68.65,0,0,0-3.13-12c-1.26-3.19-2.89-6.16-4.31-9.25-3.22-7-5.83-14.31-9.2-21.24-3.14-6.45-8.94-11.15-14.41-14.79-5-3.31-11.18-6.57-17.1-6.62-3.86,0-7.07-.36-10.57,1.42-2.61,1.33-5.77,2.56-7.78,4.95a167.06,167.06,0,0,0-11.86,16.37c-4.11,6.36-7.73,12.1-9.3,19.91-1.44,7.16-.88,14-.45,21.24,0,1.06,0,3.18,0,3.18.62,8.3,1.32,16.23-1.26,24.29-2.77,8.66-4.12,16.58,1.35,24.26,4.4,6.18,10.06,11.8,16.8,14.59,6.3,2.6,14.52,7.78,20.55,1.55,5.64-5.84,3.41-14.85,4.37-22.21.48-3.63,1-7.48,2.8-10.62s6-5.07,9.1-6.31c7.35-2.89,14.47-4.66,21.14-9.4,2.59-1.84,5.69-3,8.16-4.85,2.83-2.13,4.06-7.89,5.1-11.3A6.34,6.34,0,0,0,896.93,604.07Zm236.2,113.32c-1.93,1.51-5.73-34.83-7.91-33.8-4.07,1.93-7.06-10.47-18-17.75-1.59-1.06-6.48,2.08-13,0-2.35-.74-9.69-7.93-10-8-4.29-.44-9.3,1.59-13.24-.82-3.13-1.92-6.22-5.74-6.65-9.84-.51-4.85-.11-8.86-1.48-13.66-.82-2.88-1.14-4.76-2.84-7.21a37.35,37.35,0,0,0-4.08-5.13c-3.46-3.43-6.94-3.2-11.28-2.7-9.07,1-17.87,3.33-27,3.8-9.88.5-20,2.58-29.92.51C979,621,971.32,613,964.45,607.25c-8.1-7.08-25.48-14.69-35.14-18.86,0,0-1.91-1.08-2.86-1.64a68.55,68.55,0,0,1-9.51-6.32c-2.73-2.37-7.72-5.38-9.51-8.68-4.32-8-8.41-16.65-14.61-23.09-5.72-5.93-11.6-11.94-18.63-15.84-7.38-4.09-15.65-8-23.83-9.48-6.77-1.26-16.47-1.14-21.22,5.51-5.48,7.66-11,15.38-16,23.46a171.43,171.43,0,0,0-12.84,24.4c-7.12,17.13-2.82,31.7-8.82,47.07a80.16,80.16,0,0,0-4.9,16.83,300.16,300.16,0,0,0-3.37,35.67c-.08,2.7-1.08,6.66,1.9,7.31,2.27.49,4.6.43,6.86,1,2.66.69,5,2.39,7.32,4,1.72,1.21,4.21,2.13,5.71,3.61,1.94,1.91,3.63,4.1,5.44,6.16,1.59,1.8,3.5,2.82,5.16,4.46,3.6,3.55,5.95,7.37,10.51,9.57,4.39,2.11,7.51,1.17,12.12.53,4.77-.67,8.67-4.24,13.48-4.6,5.1-.39,9.78,1.33,14.28,3.84s9.51,3.36,14,5.87c4.25,2.4,7.49,5.3,12.5,5.28a25.93,25.93,0,0,0,13.86-4.5c3.48-2.3,5.63-7.52,8.63-10.68,5.82-6.1,11.49-6,14.34-6.8.72-.21,10.77-3,16.35-2.65,5,.34,8.81,7.3,12.19,11.07,1.9,2.13,2.92,3.91,5.72,4.61a34.14,34.14,0,0,1,7.87,3c5.48,2.9,11.47,5.6,17.55,6.28,12.3,1.39,24.44,1.78,36.79,2.15a52.71,52.71,0,0,1,16.33,2.78c6,2.08,11.27,4.7,17.42,6.08,5.19,1.16,9.31,5.51,13.52,9,5.21,4.38,10.14,4.46,15.74,1,3.8-2.35,11,.26,13.44,3.94,1.6,2.39,29.11-33.5,30.9-31.27M854.92,607.25c-1.23.7-9.13,5.8-14.07,6.23a18.09,18.09,0,0,1-8.22-1.34c-2.49-1-3.19-2.85-4.88-4.89-.69-1-1.78-3.18-1.78-3.18-2-4.5-4.76-8.65-4.14-13.78.67-5.56,1.5-9.41,4.28-14.22,4.48-7.73,10.75-13.85,19.6-13.56,8.1.27,11.72,10.11,15.4,16.75a25,25,0,0,1,2.67,12.67c-.22,4.48-2.65,8.6-4.9,12.14A10.84,10.84,0,0,1,854.92,607.25Z" transform="translate(0.46 134.09)"/></g><g id="Grupo_423" data-name="Grupo 423"><path id="Trazado_283-2" data-name="Trazado 283-2" class="cls-2" d="M1597.36-9.5c-1.24-6.22-2.45-12.43-4.77-18.29-1.92-4.86-4.41-9.39-6.58-14.1-4.9-10.68-8.89-21.83-14-32.4-4.79-9.84-13.64-17-22-22.56-7.61-5.06-17-10-26.07-10.1-5.89-.06-10.78-.55-16.12,2.17-4,2-8.8,3.9-11.86,7.55a252.73,252.73,0,0,0-18.1,25c-6.28,9.71-11.8,18.46-14.19,30.38-2.2,10.91-1.34,21.38-.69,32.4,0,1.62,0,4.86,0,4.86.94,12.65,2,24.75-1.92,37-4.23,13.21-6.29,25.29,2,37,6.71,9.43,15.35,18,25.63,22.25,9.62,4,22.14,11.87,31.34,2.36,8.61-8.9,5.2-22.65,6.68-33.87.73-5.55,1.44-11.41,4.26-16.2s9.09-7.74,13.87-9.62c11.23-4.41,22.09-7.11,32.26-14.35,3.95-2.81,8.68-4.57,12.45-7.4,4.32-3.24,6.19-12,7.78-17.22A9.53,9.53,0,0,0,1597.36-9.5Zm317.75,72.3a49.49,49.49,0,0,1-9.23,5.89A40.54,40.54,0,0,1,1883,72.57c-6.54-.67-14.18,2.42-20.18-1.25-4.79-2.93-9.5-8.77-10.16-15-.78-7.39-.17-13.52-2.25-20.83-1.26-4.4-1.74-7.27-4.34-11a57.09,57.09,0,0,0-6.22-7.82c-5.27-5.23-10.59-4.88-17.2-4.12-13.83,1.6-27.26,5.08-41.21,5.79-15.07.78-30.59,3.95-45.64.79-13.32-2.8-25-14.91-35.46-23.75-12.36-10.81-38.87-22.42-53.61-28.77,0,0-2.92-1.65-4.36-2.5-5-3-10-5.77-14.5-9.65-4.17-3.61-11.78-8.2-14.51-13.24-6.6-12.19-12.84-25.4-22.29-35.21-8.72-9-17.69-18.22-28.41-24.16-11.26-6.24-23.87-12.14-36.35-14.47-10.34-1.92-25.13-1.73-32.38,8.4-8.36,11.7-16.76,23.47-24.38,35.79A261.48,261.48,0,0,0,1450-51.23c-10.86,26.13-4.3,48.35-13.45,71.8-3.18,8.16-6.14,16.87-7.47,25.67a457.12,457.12,0,0,0-5.14,54.4c-.12,4.12-1.65,10.17,2.9,11.15,3.46.75,7,.66,10.46,1.56,4,1.05,7.68,3.64,11.16,6.09,2.63,1.85,6.43,3.24,8.72,5.5,2.95,2.92,5.54,6.25,8.3,9.39,2.42,2.75,5.34,4.31,7.87,6.8,5.48,5.42,9.07,11.25,16,14.6,6.69,3.23,11.45,1.79,18.48.81,7.27-1,13.22-6.47,20.55-7,7.79-.58,14.92,2,21.79,5.86s14.5,5.13,21.3,9c6.49,3.66,11.43,8.08,19.07,8a39.37,39.37,0,0,0,21.14-6.86c5.31-3.5,8.58-11.46,13.17-16.28,8.87-9.3,17.52-9.11,21.88-10.38,1.08-.31,16.41-4.59,24.93-4,7.67.51,13.44,11.14,18.59,16.88,2.9,3.25,4.46,6,8.73,7a52.12,52.12,0,0,1,12,4.6c8.36,4.42,17.49,8.54,26.78,9.59,18.76,2.12,37.28,2.71,56.12,3.27a80.56,80.56,0,0,1,24.9,4.25c9.07,3.16,17.2,7.17,26.57,9.27,7.92,1.77,14.21,8.4,20.62,13.79,8,6.68,15.46,6.8,24,1.52,5.8-3.58,16.74.4,20.5,6,2.44,3.64,4.43,7.67,7.16,11.08M1533.28-4.64c-1.87,1.06-13.92,8.83-21.45,9.5a27.46,27.46,0,0,1-12.54-2.06c-3.8-1.52-4.87-4.34-7.46-7.45-1-1.52-2.7-4.86-2.7-4.86-3-6.86-7.26-13.18-6.32-21,1-8.48,2.3-14.36,6.54-21.69,6.83-11.8,16.39-21.13,29.88-20.69,12.35.41,17.89,15.42,23.5,25.56,3,5.49,4.38,12.9,4.07,19.32-.33,6.83-4,13.11-7.47,18.51C1537.87-7.21,1535.15-5.71,1533.28-4.64Z" transform="translate(0.46 134.09)"/></g></g></g></svg>