<?xml version="1.0" encoding="utf-8"?>
<!-- Generator: Adobe Illustrator 25.4.1, SVG Export Plug-In . SVG Version: 6.00 Build 0)  -->
<svg version="1.1" id="Capa_1" xmlns="http://www.w3.org/2000/svg" xmlns:xlink="http://www.w3.org/1999/xlink" x="0px" y="0px"
	 viewBox="0 0 33 33" style="enable-background:new 0 0 33 33;" xml:space="preserve">
<style type="text/css">
	.st0{fill:#FFFFFF;}
</style>
<path id="Trazado_250" class="st0" d="M5,0.5C4.4,0.5,3.9,1,3.9,1.6v17.5H1.6c-0.6,0-1.1,0.5-1.1,1.2v11.1c0,0.6,0.5,1.1,1.1,1.1
	h29.8c0.6,0,1.1-0.5,1.1-1.1l0,0V20.3c0-0.6-0.5-1.1-1.2-1.1l0,0h-2.2v-11c0-0.3-0.1-0.5-0.3-0.8l-5.7-6.5c-0.2-0.2-0.5-0.4-0.9-0.4
	H5z M6.2,2.8h14.3V8c0,0.6,0.5,1.1,1.1,1.1h5.2v10h-4.2c-0.5,0-0.9,0.3-1.1,0.7l-0.9,2.4h-8.2l-0.9-2.4c-0.2-0.4-0.6-0.7-1.1-0.7
	H6.2V2.8z M22.8,4l2.5,2.9h-2.5V4z M10.2,5C9.6,4.9,9,5.4,8.9,6c-0.1,0.6,0.4,1.2,1,1.3c0.1,0,0.1,0,0.2,0h6.9
	c0.6,0.1,1.2-0.4,1.3-1c0.1-0.6-0.4-1.2-1-1.3c-0.1,0-0.1,0-0.2,0C17.1,5,10.2,5,10.2,5z M10.2,9.6C9.6,9.5,9,10,8.9,10.6
	c-0.1,0.6,0.4,1.2,1,1.3c0.1,0,0.1,0,0.2,0h6.9c0.6,0.1,1.2-0.4,1.3-1c0.1-0.6-0.4-1.2-1-1.3c-0.1,0-0.1,0-0.2,0
	C17.1,9.6,10.2,9.6,10.2,9.6z M2.8,21.4h6.9l0.9,2.4c0.2,0.4,0.6,0.7,1.1,0.7h9.8c0.5,0,1-0.2,1.2-0.7l0.9-2.4h6.9v8.8H2.8V21.4z"/>
</svg>
