<?xml version="1.0" encoding="utf-8"?>
<!-- Generator: Adobe Illustrator 25.4.1, SVG Export Plug-In . SVG Version: 6.00 Build 0)  -->
<svg version="1.1" id="Capa_1" xmlns="http://www.w3.org/2000/svg" xmlns:xlink="http://www.w3.org/1999/xlink" x="0px" y="0px"
	 viewBox="0 0 33 33" style="enable-background:new 0 0 33 33;" xml:space="preserve">
<style type="text/css">
	.st0{fill:#FFFFFF;}
</style>
<path id="Trazado_251" class="st0" d="M29,10.4l-9.6-9.6c-0.2-0.2-0.5-0.3-0.8-0.3H4.7c-0.6,0-1,0.4-1.1,1v30c0,0.6,0.5,1,1.1,1
	h23.5c0.6,0,1-0.4,1.1-1l0,0V11.2C29.3,10.9,29.2,10.6,29,10.4z M19.7,4.1l6,6h-6V4.1z M5.8,30.4V2.6h11.8v8.5c0,0.6,0.5,1.1,1,1.1
	c0,0,0,0,0,0h8.6v18.2L5.8,30.4z"/>
<rect id="Rectángulo_468" x="15.2" y="12.2" class="st0" width="2.7" height="8.7"/>
<rect id="Rectángulo_469" x="15.2" y="14.2" class="st0" width="2.7" height="4.7"/>
<rect id="Rectángulo_470" x="15.5" y="8.1" class="st0" width="2" height="16.7"/>
</svg>
