<?xml version="1.0" encoding="utf-8"?>
<!-- Generator: Adobe Illustrator 25.4.1, SVG Export Plug-In . SVG Version: 6.00 Build 0)  -->
<svg version="1.1" id="Capa_1" xmlns="http://www.w3.org/2000/svg" xmlns:xlink="http://www.w3.org/1999/xlink" x="0px" y="0px"
	 viewBox="0 0 169.4 37.5" style="enable-background:new 0 0 169.4 37.5;" xml:space="preserve">
<style type="text/css">
	.st0{fill:#FFFFFF;}
</style>
<path id="Trazado_596" class="st0" d="M130.5,0l-3.1,2.7h-2.8L126,0H130.5z M126.3,6.8c-2.6,0-3.5,1-3.5,5.3s0.9,5.4,3.5,5.4
	s3.4-1.1,3.4-5.4S128.9,6.8,126.3,6.8 M126.3,20.8c-5.2,0-7.4-2.7-7.4-8.7s2.2-8.7,7.4-8.7c5.2,0,7.4,2.7,7.4,8.7
	S131.6,20.8,126.3,20.8 M154.4,20.5l-6.4-9l-1.2-1.7h-0.1v2.1v8.7h-3.6V3.8h3.4l6.2,8.6l1.2,1.7l0,0v-2.1V3.8h3.6v16.7L154.4,20.5z
	 M105,3.8h4.2v16.7H105V3.8z M90.9,11.8l5.2,8.8h-4.6L89,16.2l-0.9-1.9H88l-1,1.9l-2.3,4.3h-4.7l5.1-8.7l-5-8.1H85l2.1,3.8l1,1.8
	h0.1l1-1.8l2-3.8h4.7L90.9,11.8z M63.4,9l-1.6,5.1h4.4L64.6,9l-0.6-2H64L63.4,9z M67.2,17.3h-6.4l-1,3.2h-4.3l6.2-16.7h4.8l6.3,16.8
	h-4.6L67.2,17.3z M40.7,7h-2.6v4.4h2.5c1.8,0,2.4-0.5,2.4-2.3S42.4,7,40.7,7 M44.4,13.6l4.1,6.9h-4.8l-3-6.1h-2.6v6.1h-4V3.8h6.6
	c4.4,0,6.6,1.7,6.6,5.3C47.5,11.1,46.3,13,44.4,13.6 M20.8,7.3v13.2h-4.1V7.3h-4.8L12,3.8h13.5l0.1,3.5L20.8,7.3z M147.9,37.4
	l-4-5.8l-0.5-0.8l0,0v6.6h-1v-8.5h1l4.3,6.4l0,0v-0.9v-5.5h1v8.5H147.9z M156.4,30v7.4h-1.2V30h-2.5v-1.1h6.2V30H156.4z M138.1,36.3
	v1h-5.4v-8.4h5.2V30h-4.1v2.5h3.5v1h-3.5v2.9L138.1,36.3z M126.4,28.9h1.2v8.5h-1.2V28.9z M114.5,28.9l2.4,6l0.3,0.8l0,0l0.3-0.8
	l2.4-6h1.3v8.5h-1.1v-5.6v-0.9l0,0l-0.3,0.9l-2.3,5.7h-0.8l-2.3-5.6l-0.3-0.8l0,0v6.5h-1v-8.5L114.5,28.9z M107,28.9h1.2v8.5H107
	V28.9z M165.8,29.9c-1.7,0-2.3,0.7-2.3,3.3s0.6,3.3,2.3,3.3s2.3-0.7,2.3-3.3S167.5,29.9,165.8,29.9 M165.8,37.6
	c-2.5,0-3.5-1.3-3.5-4.4s1-4.4,3.5-4.4s3.5,1.3,3.5,4.4S168.4,37.5,165.8,37.6 M102.8,28.9l-3,8.5h-1.3l-3-8.5h1.3l2.1,6.5l0.3,0.9
	l0,0l0.3-0.9l2.1-6.5H102.8z M88.5,29.9c-1.7,0-2.3,0.7-2.3,3.3s0.6,3.3,2.3,3.3s2.3-0.7,2.3-3.3S90.2,29.9,88.5,29.9 M88.5,37.6
	c-2.5,0-3.5-1.3-3.5-4.4s1-4.4,3.5-4.4S92,30,92,33.2S91,37.5,88.5,37.6 M73.9,28.9l2.4,6l0.4,0.8l0,0l0.3-0.8l2.4-6h1.3v8.5h-1.1
	v-5.6v-0.9l0,0l-0.3,0.9L77,37.4h-0.8l-2.3-5.6l-0.3-0.9l0,0v0.9v5.6h-1v-8.5H73.9z M31.2,30.7L30,34.4H33l-1.2-3.7l-0.3-0.9l0,0
	L31.2,30.7z M33.3,35.4h-3.7l-0.7,2h-1.3l3.1-8.5h1.4l3.1,8.5H34L33.3,35.4z M50.9,36.4v1h-5.4v-8.5h5.2V30h-4.1v2.5h3.5v1h-3.5v2.9
	L50.9,36.4z M60.7,37.4l-4-5.8l-0.5-0.8l0,0v6.6h-1v-8.5h1l4.3,6.4l0,0v-0.9v-5.5h1v8.5L60.7,37.4z M20.7,30h-1.8v6.3h1.8
	c1.7,0,2.5-0.6,2.5-3.2S22.4,30,20.7,30 M20.7,37.4h-2.9v-8.5h2.9c2.6,0,3.7,1.2,3.7,4.2S23.1,37.4,20.7,37.4 M11.5,28.9h1.2v8.5
	h-1.2L11.5,28.9z M7.3,28.9l-3,8.5H3l-3-8.5h1.3l2.1,6.5l0.3,0.9l0,0L4,35.4l2.2-6.5H7.3z"/>
</svg>
