<svg xmlns="http://www.w3.org/2000/svg" width="425" height="173" viewBox="0 0 425 173">
  <g id="Group_3811" data-name="Group 3811" transform="translate(9066 -11889)">
    <rect id="Rectangle_1867" data-name="Rectangle 1867" width="425" height="173" transform="translate(-9066 11889)" fill="#fff"/>
    <g id="Group_3799" data-name="Group 3799" transform="translate(-9033.887 11928.205)">
      <path id="Path_4179" data-name="Path 4179" d="M.149,0-.042,8.73H11.679V41.348h10.13V8.73H33.471L33.28,0Z" transform="translate(0.042 9.173)"/>
      <path id="Path_4180" data-name="Path 4180" d="M12.619,6.31H6.375V17.267h6.117c4.331,0,5.926-1.273,5.926-5.6,0-4.013-1.468-5.354-5.8-5.354m9.112,16.311L31.8,39.568H20.009L12.556,24.6H6.375v14.97H-3.56V-1.78H12.619c10.83,0,16.247,4.2,16.247,12.993,0,5.8-2.55,9.944-7.135,11.407" transform="translate(58.22 10.954)"/>
      <path id="Path_4182" data-name="Path 4182" d="M15.256,10.035,11.3,22.583H22.073L18.251,10.1,16.911,5.068H16.72Zm9.3,20.578H8.821l-2.486,7.9H-4.3L10.989-2.831H22.71L38.253,38.512H26.977Z" transform="translate(111.581 12.007)"/>
      <path id="Path_4183" data-name="Path 4183" d="M20.97,15.352l12.743,21.66H22.307L16.385,26.119l-2.3-4.586H13.9l-2.354,4.649L5.809,37.012H-5.916L6.636,15.607-5.6-4.331H6.446l5.163,9.362,2.354,4.522h.191l2.359-4.522,5.222-9.362H33.268Z" transform="translate(173.519 13.507)"/>
      <path id="Path_4184" data-name="Path 4184" d="M158.421-29.626h10.257V11.722H158.421Z" transform="translate(70.98 38.804)"/>
      <path id="Path_4185" data-name="Path 4185" d="M20.673,0V20.324l.127,5.095-.127.064-2.931-4.2L2.517,0H-5.832V41.348H3.026V20l-.064-5.158.127-.064,2.868,4.267,15.67,22.3h7.962V0Z" transform="translate(329.387 9.173)"/>
      <path id="Path_4186" data-name="Path 4186" d="M22.271,0l-7.69,6.694H7.719L11.314,0ZM12.037,16.711c-6.313,0-8.521,2.545-8.521,13.061s2.268,13.166,8.576,13.166c6.254,0,8.467-2.709,8.467-13.166,0-10.516-2.159-13.061-8.521-13.061m0,34.585c-12.784,0-18.32-6.749-18.32-21.524S-.911,8.353,12.037,8.353c13,0,18.261,6.64,18.261,21.419C30.3,44.82,25.039,51.3,12.037,51.3" transform="translate(269.779 0)"/>
      <path id="Path_4187" data-name="Path 4187" d="M11.244,14.253l-.1,3.89H-3.172V-3.617H1.155v17.87Zm23.3,4.29c-7.04,0-9.921-3.618-9.921-11.262,0-7.681,2.85-11.235,9.921-11.235,7.108,0,9.926,3.554,9.926,11.235,0,7.744-2.818,11.262-9.926,11.262m0-18.638c-3.986,0-5.431,1.609-5.431,7.376,0,5.731,1.477,7.408,5.467,7.408,3.954,0,5.363-1.709,5.363-7.408,0-5.767-1.373-7.376-5.4-7.376m42.075,17.4a17.944,17.944,0,0,1-6.808,1.236c-7.644,0-10.726-3.754-10.726-11.23,0-7.612,3.249-11.334,10.825-11.334a18.923,18.923,0,0,1,6.272,1.077L75.742.81a16.452,16.452,0,0,0-5.6-.973c-4.826,0-6.572,1.745-6.572,7.408s1.609,7.444,6.1,7.444a10.735,10.735,0,0,0,3.081-.4V6.577h3.858ZM93.339-3.617h4.39v21.76h-4.39ZM121.2,18.543a14.574,14.574,0,0,1-7.04-1.672l.6-3.758a12.924,12.924,0,0,0,6.435,1.709c2.781,0,4.09-1.073,4.09-2.845,0-3.927-10.962-2.013-10.962-9.458,0-3.518,2.377-6.5,7.976-6.5a17.408,17.408,0,0,1,6.372,1.173L128.106.842a17.882,17.882,0,0,0-5.635-1c-3.081,0-4.022,1.141-4.022,2.481,0,3.822,10.962,1.777,10.962,9.385,0,4.158-3.013,6.84-8.212,6.84M153.784.237V18.144h-4.395V.237h-6.467l.068-3.854h17.2l.068,3.854Zm21.855-3.854h4.395v21.76h-4.395ZM211.611.742a12.552,12.552,0,0,0-4.695-.873c-4.527,0-6.167,1.845-6.167,7.276,0,5.767,1.709,7.576,6.235,7.576a11.919,11.919,0,0,0,4.727-.973l.473,3.522a14.2,14.2,0,0,1-5.767,1.273c-6.876,0-10.162-3.722-10.162-11.43,0-7.244,3.218-11.1,10.462-11.1a16.287,16.287,0,0,1,5.4.968ZM234,18.543a14.574,14.574,0,0,1-7.04-1.672l.6-3.758A12.936,12.936,0,0,0,234,14.821c2.781,0,4.09-1.073,4.09-2.845,0-3.927-10.962-2.013-10.962-9.458,0-3.518,2.381-6.5,7.98-6.5a17.4,17.4,0,0,1,6.367,1.173L240.91.842a17.86,17.86,0,0,0-5.635-1c-3.081,0-4.022,1.141-4.022,2.481,0,3.822,10.966,1.777,10.966,9.385,0,4.158-3.018,6.84-8.217,6.84" transform="translate(55.952 78.802)"/>
    </g>
  </g>
</svg>
