<svg xmlns="http://www.w3.org/2000/svg" width="426" height="173" viewBox="0 0 426 173">
  <g id="Group_3819" data-name="Group 3819" transform="translate(8238 -8521)">
    <rect id="Rectangle_1869" data-name="Rectangle 1869" width="426" height="173" transform="translate(-8238 8521)" fill="#fff"/>
    <g id="Group_3801" data-name="Group 3801" transform="translate(-8065.909 8544.544)">
      <g id="Group_3192" data-name="Group 3192" transform="translate(0 0)">
        <path id="Path_5449" data-name="Path 5449" d="M.341.394A.813.813,0,0,0,.919-.427c0-.646-.463-.856-1.06-.856h-.971V1.588H-.6V.468h.442l.617,1.12h.571ZM-.195.06H-.6V-.869h.408c.393,0,.61.108.61.442S.2.06-.195.06" transform="translate(81.154 50.86)" fill="#131626"/>
        <path id="Path_5450" data-name="Path 5450" d="M.676,0a2.878,2.878,0,1,0,0,5.755A2.878,2.878,0,0,0,.676,0m0,5.2A2.318,2.318,0,1,1,3,2.878,2.325,2.325,0,0,1,.676,5.2" transform="translate(80.432 48.138)" fill="#131626"/>
        <path id="Path_5451" data-name="Path 5451" d="M7.2,2.282-1.2,19.4H7.2v6.19H-3.846l-5.1,11.871h2.864v3.781H-23.462V36.457c5.824-1.072,6.97-4.608,7.174-5.532L2.338-4.344H-1.1V-7.438H7.2Z" transform="translate(25.167 77.06)" fill="#1053ac"/>
        <path id="Path_5453" data-name="Path 5453" d="M42.61-48.871h.038v-6.276H42.61Z" transform="translate(5.644 143.196)" fill="#1448a6"/>
        <path id="Path_5454" data-name="Path 5454" d="M42.61-66.051h.038v-3.478H42.61Z" transform="translate(5.644 138.993)" fill="#1448a6"/>
        <path id="Path_5455" data-name="Path 5455" d="M5.825,10.764A11.307,11.307,0,0,1-.759,13.595H-18.347l-.067-.149a9.391,9.391,0,0,1-.571-3.285V8.07c3.36-.013,8.708-.1,11.994-.489,2.24-.272,5-1,6.333-4.3A11.716,11.716,0,0,0-.746-5.581C-2.267-8.818-6.06-10.3-9.108-10.609c-.964-.1-2.559-.157-4.745-.157-1.772,0-3.645.034-5.132.068V-16.23c.781.02,1.664.034,2.573.034a27.455,27.455,0,0,0,6.869-.578c3.882-1.167,5.648-4.7,4.732-9.448a7.21,7.21,0,0,0-6.625-5.708c-.787-.075-2.091-.116-3.882-.116-1.241,0-2.552.021-3.666.042v-3.083H-5.911A9.691,9.691,0,0,1,.245-31.821C1.881-30,2.825-26.534,2.553-23.4A9.459,9.459,0,0,1-.915-16.6L-3.82-14.357l3.651-.406a3.591,3.591,0,0,1,.531-.027,10.527,10.527,0,0,1,8.586,4.65c3.795,5.287,3.68,14.79-3.122,20.906" transform="translate(68.977 104.707)" fill="#1053ac"/>
        <path id="Path_5457" data-name="Path 5457" d="M42.61-48.871h.038v-6.276H42.61Z" transform="translate(5.644 143.196)" fill="#1448a6"/>
        <path id="Path_5458" data-name="Path 5458" d="M42.61-66.051h.038v-3.478H42.61Z" transform="translate(5.644 138.993)" fill="#1448a6"/>
        <path id="Path_5459" data-name="Path 5459" d="M18.617,10.669A12.276,12.276,0,0,0,9.7,5.361a11.49,11.49,0,0,0,2.837-6.807c.319-3.632-.78-7.535-2.735-9.707a11.148,11.148,0,0,0-7.419-3.835H-10.692v-9.958c1.465-1.887,4.669-2.09,6-2.09.448,0,.733.02.74.02,9.273.72,12.469,5.79,13.419,7.928l.442,1.018h5.553v-16.7h-69.7v16.7H-48l.489-.869c3.421-6.1,5.255-7.425,11.532-8.315a14.045,14.045,0,0,1,1.813-.128c4.08,0,5.546,2.253,5.851,2.829v9.564h-10v6.5H-36L-53.3,24.286l-.108.2-.048.225c-.17.767-1.1,3.36-5.823,4.221l-1.4.259V37.1h20.777V29.911h-1.982l3.646-8.471h9.922V35.057c-.855,2.544-3.868,4.018-5.13,4.533l-1.06.435v4.758H-3.239V40.168l-1.345-.293A7.361,7.361,0,0,1-9.131,37.1H7.621l.089-.007a12.984,12.984,0,0,0,7.548-3.272,18.515,18.515,0,0,0,6.082-11.837,16.531,16.531,0,0,0-2.722-11.316m-57.98,9.076-5.106,11.871H-41.6V35.4H-58.98V30.61c5.824-1.072,6.972-4.608,7.176-5.532L-33.18-10.19h-3.434v-3.094h8.294v9.72l-8.4,17.119h8.4v6.19ZM-28.32.284V11.85h-5.674ZM-4.943,41.539v1.547h-27.87V41.165c1.554-.638,5.124-2.408,6.15-5.7l.047-.149V-24.906l-.074-.189c-.068-.163-1.724-3.984-7.48-3.984a15.333,15.333,0,0,0-2.05.142c-6.794.964-9.061,2.533-12.78,9.17h-3.536v-13.3H13.757v13.3H11.022c-.937-2.131-4.473-8.137-14.839-8.938,0,0-.34-.034-.876-.034-2.029,0-5.721.387-7.521,2.993l-.183.265V31.894a10.965,10.965,0,0,0,.529,3.5c.055.157.108.32.17.482l.163.374.285.665.108.183.21.359a8.817,8.817,0,0,0,5.986,4.08M-10.692-8.506c1.052-.021,2.382-.042,3.664-.042,2.139,0,3.2.061,3.72.108A5.539,5.539,0,0,1,1.81-4.094C2.828,1.187.025,2.87-1.739,3.4c-.625.2-2.282.51-6.381.51-.8,0-1.662-.014-2.572-.042Zm0,21.312c1.947-.047,3.672-.068,5.13-.068,2.607,0,3.924.074,4.569.142,3.944.4,6.237,2.437,7,4.059a10.062,10.062,0,0,1,.055,7.494c-.992,2.457-2.973,3.02-4.968,3.264-3.183.38-8.458.461-11.783.476ZM14.117,32.565A11.286,11.286,0,0,1,7.533,35.4H-10.054l-.068-.149a9.37,9.37,0,0,1-.57-3.285V29.871c3.36-.013,8.708-.094,11.994-.489,2.24-.27,5-1,6.333-4.3a11.719,11.719,0,0,0-.089-8.857c-1.52-3.238-5.315-4.724-8.362-5.03-.963-.1-2.559-.157-4.745-.157-1.771,0-3.645.035-5.13.068V5.571c.78.021,1.662.034,2.572.034a27.485,27.485,0,0,0,6.87-.576C2.632,3.86,4.4.331,3.481-4.421a7.21,7.21,0,0,0-6.624-5.708c-.788-.074-2.091-.115-3.884-.115-1.241,0-2.551.02-3.664.041v-3.081H2.382A9.691,9.691,0,0,1,8.538-10.02c1.635,1.827,2.578,5.287,2.308,8.424A9.466,9.466,0,0,1,7.377,5.2L4.471,7.445l3.652-.408a3.787,3.787,0,0,1,.529-.027,10.529,10.529,0,0,1,8.587,4.65c3.794,5.289,3.679,14.79-3.123,20.906" transform="translate(60.683 82.906)" fill="#131626"/>
        <path id="Path_5460" data-name="Path 5460" d="M15.564,0V13.3H12.829c-.937-2.13-4.473-8.137-14.839-8.938,0,0-.34-.034-.876-.034-2.029,0-5.721.387-7.521,2.993l-.183.265v12.2h-.034v3.122h.034V38.582h-.034v5.634h.034V64.965a10.972,10.972,0,0,0,.529,3.5c.055.155.108.319.17.481l.163.374.285.665.108.183.21.361A8.816,8.816,0,0,0-3.136,74.61v1.549h-27.87V74.238c1.554-.639,5.124-2.41,6.15-5.7l.047-.15V8.166l-.074-.191c-.068-.163-1.724-3.984-7.48-3.984a15.568,15.568,0,0,0-2.05.142c-6.794.964-9.061,2.533-12.78,9.17h-3.536V0Z" transform="translate(58.878 49.835)" fill="#1053ac"/>
        <path id="Path_5461" data-name="Path 5461" d="M2.544,2.332h-3.4A8.906,8.906,0,0,0-3.631-1.829l-.261-.183-.3.1c-.362.112-1.011.179-1.249-.033-.148-.131-.187-.467-.107-.92l.159-.86-.865.091a2.455,2.455,0,0,0-1.671.963,1.326,1.326,0,0,1-.084-1.72,8.584,8.584,0,0,0,2.96-2.819s.851-.874,1.286,0c.148.422.358.963.632,1.588s.6,1.334,1,2.071A18.862,18.862,0,0,0,2.544,2.332" transform="translate(60.006 41.183)" fill="#1448a6"/>
        <path id="Path_5462" data-name="Path 5462" d="M15.5,4.1a2.974,2.974,0,0,0-.455-1.33,3.805,3.805,0,0,0-.461-.578l-.123-.128L14.3,1.917l-.075-.068a.85.85,0,0,1-.108-.108,1.65,1.65,0,0,1-.178-.2,3.653,3.653,0,0,1-.508-.883,5.057,5.057,0,0,1-.278-.936c-.034-.157-.047-.312-.074-.469s-.021-.319-.027-.474-.007-.312,0-.469l.007-.135a1.025,1.025,0,0,1-.1-.076c-.054-.041-.136-.088-.2-.128l-.1-.068-.027-.021h-.013l-.048-.034-.183-.108c-.068-.034-.149-.068-.223-.108l-.212-.1-.2-.089c-.129-.06-.3-.115-.455-.169l-.116-.048-.034-.013h-.013l-.047-.013c-.076-.021-.136-.048-.21-.061-.157-.041-.3-.068-.456-.1L10.161-3l-.23-.027c-.149-.02-.333-.034-.489-.047L8.96-3.1H8.8c-.116-.007-.231-.007-.346-.013h-.5c-.162,0-.325,0-.5.007l-.5.021c-.163.007-.333,0-.5-.008a4.294,4.294,0,0,1-.523-.06,2.985,2.985,0,0,1,.963-.38A1.451,1.451,0,0,1,7.162-3.6l.244-.041.1-.021A2.862,2.862,0,0,0,7.5-4.424a.575.575,0,0,0-.088-.244c-.027-.047-.027-.041-.048-.054a.434.434,0,0,0-.183-.007c-.041.013-.1.02-.149.041-.021.007-.047.02-.074.026L6.9-4.641l-1.072.455L5.954-5.3c.034-.271.055-.542.061-.808,0-.129-.007-.257-.014-.372a2.21,2.21,0,0,0-.054-.3v-.007l-.082.041-.128.088-.061.048-.047.041-.828.7L4.549-6.887a6.781,6.781,0,0,0-.217-.706c-.048-.108-.1-.218-.136-.306a1.691,1.691,0,0,0-.116-.183l-.074.074c-.02.027-.054.068-.081.108l-.041.061-.027.047-.529.9-.591-.835-.278-.4c-.089-.136-.189-.265-.285-.395s-.191-.257-.285-.38-.2-.257-.3-.38-.21-.243-.312-.366S1.066-9.881.958-10s-.217-.223-.332-.333-.218-.217-.34-.312-.231-.2-.346-.291c-.068-.047-.129-.088-.183-.129a1.586,1.586,0,0,0-.183-.122A2.918,2.918,0,0,0-.8-11.4l-.183-.089c-.061-.02-.123-.047-.184-.068a1.855,1.855,0,0,0-.359-.074,1.353,1.353,0,0,0-.325,0,.938.938,0,0,0-.278.089c-.041.02-.082.047-.116.068a.245.245,0,0,0-.047.041l-.02.013-.346.476c-.082-.116-.55-.523-.639-.639s-.508-.461-.6-.57a5.3,5.3,0,0,0-.644-.576,4.381,4.381,0,0,0-.51-.333,1.572,1.572,0,0,1-.027.176l-.02.1c-.008.034-.014.068-.027.115l-.3,1.039-.8-.774c-.047-.041-.094-.089-.142-.129s-.094-.088-.142-.128a3.349,3.349,0,0,0-.319-.231,4.194,4.194,0,0,0-.7-.346c-.128-.041-.257-.074-.387-.108l.563,1.487-1.554-.849a1.679,1.679,0,0,0-.659-.21,2.039,2.039,0,0,0-.733.082,8.49,8.49,0,0,0-.855.291l-.455.176-.442.176L-12.5-12c-.149.06-.3.122-.448.176l-.889.379-1.779.774-.149.061-.184-.013h-.128a.618.618,0,0,0-.115.013.582.582,0,0,0-.191.1.759.759,0,0,0-.176.2.755.755,0,0,0-.075.136.3.3,0,0,0-.034.068l-.014.041v.007l-.589.482a.279.279,0,0,0-.1.034,1.779,1.779,0,0,0-.189.136,2.915,2.915,0,0,0-.408.447,6.648,6.648,0,0,0-.393.565c-.055.094-.116.2-.17.3l-.082.149-.074.142-.075.15-.122.088L-31.657,1.991l-.19.149-.285-.021h-.082a.679.679,0,0,0-.115-.007c-.074,0-.156.007-.238.014a3.062,3.062,0,0,0-.489.06,5.653,5.653,0,0,0-.97.265,7.386,7.386,0,0,0-1.073.523c-.149.129-.659.55-1.385,1.065a10.713,10.713,0,0,0-.835.9A13.413,13.413,0,0,0-38.534,6.7a20.83,20.83,0,0,0-1.73,4c-.061.17-.115.346-.163.523-.026.089-.061.176-.081.265-.034.108-.061.2-.1.3a11.675,11.675,0,0,1-.482,1.113,12.82,12.82,0,0,1-1.282,2,15.287,15.287,0,0,1-1.568,1.745,17.007,17.007,0,0,1-1.792,1.507c-.157.116-.312.225-.469.34l-.455.319c-.162.115-.278.217-.421.327s-.264.223-.393.332a8.691,8.691,0,0,0-1.364,1.588,8.946,8.946,0,0,0-.943,1.867c-.115.332-.21.672-.306,1.018s-.155.693-.21,1.045a18.965,18.965,0,0,0-.189,2.165c-.021.523-.027,1.045-.034,1.581h2.321a6.465,6.465,0,0,1-.149-.706,7.743,7.743,0,0,1-.1-1.643,6.994,6.994,0,0,1,.9-3.17,7.085,7.085,0,0,1,.977-1.337,9.129,9.129,0,0,1,1.207-1.092c.218-.157.442-.3.673-.448s.461-.272.685-.393l1.324-.727c.876-.482,1.745-.977,2.586-1.515.414-.264.829-.549,1.228-.834s.795-.584,1.175-.9a11.414,11.414,0,0,0,2.009-2.118,9.832,9.832,0,0,0,.767-1.228,10.055,10.055,0,0,0,.6-1.377,3.784,3.784,0,0,1-.122,1.56,5.226,5.226,0,0,1-.448,1.1,2.814,2.814,0,0,1-.17.3,1.228,1.228,0,0,0-.041,1.094,2.316,2.316,0,0,0,.89.9l.889.408-.712.665a14.481,14.481,0,0,1-3.374,2.457c-.189.387-.761,2.206.17,9.008h2.9A12.973,12.973,0,0,1-35.5,26.487c-1.025-2.606-.685-4.805.984-6.367l.1-.094.144-.048a13.513,13.513,0,0,0,4.316-2.287,1,1,0,0,0-.074-1.392c-.774-.427-1.6-1.039-1.664-1.065a28.192,28.192,0,0,0,3.9.672,38.825,38.825,0,0,0,8.987-.021c1.052-.217.882-.631.882-.631a.8.8,0,0,0,.1-.027,1.376,1.376,0,0,1-.285-.034l-.17-.026-.176-.055c-.061-.02-.116-.041-.176-.061a1.784,1.784,0,0,1-.178-.081c-.06-.034-.115-.061-.175-.1s-.1-.074-.157-.115a2.539,2.539,0,0,1-.3-.293,1.875,1.875,0,0,1-.21-.345c-.033-.061-.054-.116-.081-.178a.972.972,0,0,1-.061-.183.842.842,0,0,1-.041-.176.884.884,0,0,1-.034-.183c-.007-.055-.013-.115-.02-.163s-.008-.122-.008-.176a2.434,2.434,0,0,1,.008-.325c0-.021.007-.034.007-.047l-.157.026a2.536,2.536,0,0,1-.359.055,1.585,1.585,0,0,1-.183.013c-.068,0-.129.007-.2,0l-.21-.013a1.339,1.339,0,0,1-.223-.041,1.846,1.846,0,0,1-.238-.074,1.254,1.254,0,0,1-.244-.129,1.644,1.644,0,0,1-.223-.189,1.578,1.578,0,0,1-.176-.238,1.058,1.058,0,0,1-.068-.123c-.021-.047-.034-.081-.055-.122a2.536,2.536,0,0,1-.068-.251c-.013-.082-.021-.15-.027-.231v-.21a3.19,3.19,0,0,1,.042-.387c.02-.1.041-.176.06-.265a1.858,1.858,0,0,1-.644-.176,2.386,2.386,0,0,1-.251-.149,2.089,2.089,0,0,1-.218-.21c-.026-.041-.06-.074-.088-.122s-.055-.076-.081-.123a1.959,1.959,0,0,1-.116-.251,2.195,2.195,0,0,1-.074-.944,3.355,3.355,0,0,1,.183-.795,4.767,4.767,0,0,1,.327-.706,4.336,4.336,0,0,1,.414-.638c.074-.1.156-.2.237-.3s.17-.183.272-.278l.074-.074.068-.061.061-.047.074-.068.225-.2.217-.23c.068-.082.136-.163.2-.251s.129-.17.2-.259.123-.176.183-.272.123-.189.176-.285l.176-.285c.11-.189.225-.387.327-.591.06-.1.108-.2.162-.3a3.053,3.053,0,0,0,.157-.306c.21-.4.414-.814.618-1.235-.021.23-.055.461-.1.691s-.1.463-.15.686c-.026.108-.06.223-.094.34s-.068.223-.1.332c-.074.225-.156.448-.244.665s-.183.435-.291.652c-.055.1-.11.21-.17.312s-.116.21-.184.319-.128.2-.2.306l-.225.3c-.081.1-.17.2-.257.293l-.041.041-.014.02-.06.055-.061.06-.041.055a3.673,3.673,0,0,0-.353.489,5.75,5.75,0,0,0-.293.544,4.968,4.968,0,0,0-.2.57,2.837,2.837,0,0,0-.094.55,1.032,1.032,0,0,0,.06.421c.021.041.034.074.061.088.007.014.027.014.034.027s.021.021.04.027a.944.944,0,0,0,.367.027,2.421,2.421,0,0,0,.536-.1l1.364-.327-.61,1.262-.048.1-.054.123a2.573,2.573,0,0,0-.1.244,2.417,2.417,0,0,0-.074.238c-.021.081-.041.156-.055.23a1.262,1.262,0,0,0-.02.21.4.4,0,0,0,0,.089.244.244,0,0,0,.007.068c.007.013.007.041.013.041s0,.013.008.013v.014l.007.007c.013,0,.007.007.02.007s.021.013.048.013.047.014.074.021h.088a.53.53,0,0,0,.1,0,.642.642,0,0,0,.108-.007c.082-.014.157-.021.244-.041l.123-.027.129-.034a1.88,1.88,0,0,0,.251-.074c.088-.027.176-.048.264-.081l.265-.1,1.3-.476-.448,1.317-.034.088-.027.108a1.4,1.4,0,0,0-.054.225,3.209,3.209,0,0,0-.068.44c-.007.076-.007.136-.007.212,0,.026.007.067.007.094a.421.421,0,0,0,.013.1.293.293,0,0,0,.014.088.306.306,0,0,0,.02.082.252.252,0,0,0,.027.074.142.142,0,0,0,.027.068.763.763,0,0,0,.068.115,1.059,1.059,0,0,0,.1.089c.013.013.034.026.047.041l.061.034a.276.276,0,0,0,.074.027.142.142,0,0,0,.074.026l.081.027.1.021c.061.013.136.013.2.02s.149.007.217.007l.23-.007.435.123a.094.094,0,0,1,.02.013.436.436,0,0,1,.042.027c.034.013.067.034.1.047a1.091,1.091,0,0,0,.107.041c.035.008.076.027.11.034a1.336,1.336,0,0,0,.23.055.707.707,0,0,0,.116.014l.122.007c.074.007.157-.007.238-.007a1.519,1.519,0,0,0,.238-.042,1.709,1.709,0,0,0,.23-.068l.123-.041a.619.619,0,0,0,.115-.054c.074-.042.163-.076.231-.123l.223-.142a1.274,1.274,0,0,0,.217-.163l.218-.183.2-.2a2.643,2.643,0,0,0,.2-.2l.372-.453,1.63-1.61-.489,2.22c-.027.068-.047.108-.068.156s-.04.089-.061.136c-.04.089-.081.17-.128.259s-.089.162-.136.244-.1.162-.142.238l-.157.23c-.047.074-.108.149-.156.223s-.108.15-.17.225l-.17.21a5.42,5.42,0,0,1-.366.408l-.184.2-.189.191a5.166,5.166,0,0,1-.4.372c-.135.116-.271.231-.413.346l-.435.327c-.142.115-.291.2-.44.3s-.3.2-.455.293l-.469.264c-.081.042-.155.089-.238.123l-.244.115-.481.231a2.473,2.473,0,0,1-.231.1l1.664,2.538a2.289,2.289,0,0,0,.271-.183c.265-.189.523-.387.788-.591s.508-.408.761-.618.5-.427.74-.651.482-.448.712-.678c.115-.116.231-.231.346-.354s.223-.23.34-.353c.223-.238.434-.489.651-.733s.421-.5.618-.761l.149-.189.15-.2c.094-.128.2-.257.285-.393l.278-.4c.094-.135.183-.271.264-.406l.136-.21.123-.2c.081-.142.169-.278.251-.421.156-.285.312-.57.455-.862s.272-.591.408-.882c.067-.149.115-.306.176-.455l.094-.223.082-.231.156-.455.136-.461.068-.238.061-.23.034-.157A.049.049,0,0,1-7.791,9.4a.579.579,0,0,0-.061-.055L-7.921,9.3-8,9.247-8.084,9.2c-.054-.027-.108-.061-.162-.089l-.183-.081C-8.49,9-8.558,8.983-8.62,8.955l-.2-.068c-.128-.047-.271-.081-.406-.122s-.293-.061-.435-.1l-.223-.048-.225-.034L-10.56,8.5l-.463-.055c-.156-.013-.3-.034-.461-.047l-.468-.034-.238-.021-.238-.013-.474-.02c-.157-.008-.319-.021-.476-.027s-.325-.007-.482-.014l-.489-.02c.157-.055.312-.108.469-.157s.3-.088.461-.136.319-.081.474-.115.32-.074.476-.108l.238-.047.244-.041.482-.068c.088-.008.169-.027.251-.027l.244-.021.5-.041c.163-.007.333,0,.5,0h.252l.257.021a1.623,1.623,0,0,1,.251.02c.089.007.17.021.257.034l.259.041a1.81,1.81,0,0,1,.257.055l.259.068c.088.027.17.047.257.081l.257.1a1.911,1.911,0,0,1,.259.129c.041.02.088.041.128.061l.129.081.123.088c.04.027.081.061.122.1s.081.068.123.108L-6.7,8.6c.034.041.074.094.116.142.013.027.033.054.054.088l.034.055.02.034.021.047.108.21-.061.2-.128.516-.061.257-.075.251-.149.5-.17.5-.089.244-.094.251c-.069.162-.129.325-.2.482-.142.319-.278.644-.442.95s-.319.617-.489.93c-.081.149-.176.3-.264.447l-.129.217-.142.225c-.1.149-.183.291-.285.44L-9.413,16c-.1.149-.212.285-.314.427l-.155.2-.156.2c-.21.277-.435.542-.659.808s-.455.521-.686.774c-.122.128-.244.251-.359.379s-.244.246-.367.367c-.244.238-.489.476-.746.712a2.216,2.216,0,0,1-.2.17c-.108.17-.285.563.38.584l-.013.007a2.779,2.779,0,0,0,1.5-.591l2.5-2.416-1.8,3.9a7.913,7.913,0,0,0,2.423-1.481l1.107-1.052v1.792a7.3,7.3,0,0,0,2.1-1.947c.189-.272.468-.631.625-.876.041-.11.074-.2.115-.312s.1-.2.142-.306a2.462,2.462,0,0,1,.163-.3,3.078,3.078,0,0,1,.427-.563,3.1,3.1,0,0,1,.557-.468,2.92,2.92,0,0,1,.659-.319,3.649,3.649,0,0,1,.693-.157,4.293,4.293,0,0,1,1.356.089,6.1,6.1,0,0,1,.646.183l.088.041.082.034.156.074c.1.055.2.108.3.17a3.643,3.643,0,0,1,.557.429,2.861,2.861,0,0,1,.461.57,2.98,2.98,0,0,1,.44,1.371c.008.108.008.217.008.325.128-.047.257-.094.38-.149.068-.027.142-.061.21-.088l.2-.1.761-.346.1.814a2.427,2.427,0,0,1-.048.788c-.034.17-.081.319-.122.474.128-.06.272-.122.393-.183l.842-.4.013.936.008.455c.007.157.013.306.02.455,0,.021.007.034.007.048a3.251,3.251,0,0,0,.408-.278,2.313,2.313,0,0,0,.251-.2c.082-.074.157-.149.231-.217s.142-.163.217-.244.136-.163.191-.251A4.256,4.256,0,0,0,7.25,19.2,4.629,4.629,0,0,0,7.4,18.58a2.649,2.649,0,0,0,.042-.3,1.546,1.546,0,0,0,.013-.157v-.129l-.007-.61.6-.013H8.24l.2-.014c.129-.007.259-.013.395-.027.264-.02.529-.047.78-.088a4.6,4.6,0,0,0,.727-.157,1.1,1.1,0,0,0,.156-.06.593.593,0,0,0,.129-.055.208.208,0,0,1,.054-.027c.014-.013.027-.02.034-.026s.021-.014.021-.014l.563-.257a.606.606,0,0,0,.115.007l.136.007c.089,0,.183,0,.272-.007a3.208,3.208,0,0,0,.523-.081,2.438,2.438,0,0,0,.468-.17,1.4,1.4,0,0,0,.2-.123,1.106,1.106,0,0,0,.176-.136,1.12,1.12,0,0,0,.149-.169.6.6,0,0,0,.061-.089.3.3,0,0,0,.061-.1,1.16,1.16,0,0,0,.1-.2,1.542,1.542,0,0,0,.068-.237c.007-.042.02-.076.026-.116l.021-.128c.013-.082.013-.178.021-.265v-.272l-.021-.278-.013-.068.007-.034.251-3.611.1-.278.013-.041a.658.658,0,0,0,.034-.068c.027-.047.04-.108.068-.163a2.45,2.45,0,0,0,.1-.353,5.537,5.537,0,0,0,.136-.761,7.554,7.554,0,0,0,.041-.787c.007-.061,0-.136,0-.21V7.72a1.646,1.646,0,0,1,.007-.319c.014-.1.034-.184.048-.272a3.533,3.533,0,0,1,.372-.958c.041-.074.1-.149.142-.223l.027-.054.034-.048.061-.088a.425.425,0,0,0,.068-.116,1.317,1.317,0,0,0,.074-.156A3.025,3.025,0,0,0,15.5,4.1m-4.4-6.19c-.129.17-.332.393-.583.665-.123.129-.265.264-.414.421s-.312.3-.482.455c-.081.081-.163.163-.251.244s-.176.156-.265.238-.176.156-.272.238L8.7.287,8.6.383a1.319,1.319,0,0,0-.244.4.876.876,0,0,0-.048.367,1.858,1.858,0,0,0,.225.665,3.373,3.373,0,0,0,.21.319c.007-.007.013-.007.02-.014a1.184,1.184,0,0,1,.2-.074,1.1,1.1,0,0,1,.21-.054,1,1,0,0,1,.21-.034c.068,0,.136-.013.2-.007s.142,0,.21.013.136.021.2.034.135.027.2.047a1.761,1.761,0,0,1,.359.157,3.79,3.79,0,0,0-.747.088l-.169.048a1.234,1.234,0,0,0-.17.054c-.055.021-.108.041-.157.061l-.081.041-.074.041a1.5,1.5,0,0,0-.136.082A.781.781,0,0,1,8.9,2.71l-.115.108a1.074,1.074,0,0,0-.108.123.627.627,0,0,0-.1.122l-.089.129c-.026.047-.047.1-.074.149l-.074.142L8.227,3.7,7.99,3.688l-.162-.007a1.64,1.64,0,0,0-.176.007,2.179,2.179,0,0,0-.361.027,1.623,1.623,0,0,0-.176.027,1.681,1.681,0,0,0-.17.041.848.848,0,0,0-.17.047l-.156.055c-.054.021-.108.047-.157.068a.952.952,0,0,0-.149.088.793.793,0,0,0-.142.1.666.666,0,0,0-.128.116l-.123.136c-.041.054-.068.1-.1.156a.529.529,0,0,0-.1.17c-.034.061-.06.122-.094.176a1.663,1.663,0,0,1-.008-.2.714.714,0,0,1,.014-.21c.007-.068.027-.136.041-.21l.081-.2a1.656,1.656,0,0,1,.116-.2A1.048,1.048,0,0,1,6.015,3.7a1.09,1.09,0,0,1,.162-.15c.061-.047.116-.094.184-.142l.081-.047a5.324,5.324,0,0,1-.2-1,4.056,4.056,0,0,1,0-.808A3.248,3.248,0,0,1,6.462.627,2.633,2.633,0,0,1,7.02-.229,2.7,2.7,0,0,1,7.8-.785L8-.88l.162-.061c.116-.047.225-.081.333-.129s.223-.081.332-.122l.312-.123c.2-.081.4-.156.591-.244s.359-.156.523-.23c.319-.157.584-.293.767-.4.163-.088.251-.149.278-.162-.013.02-.089.122-.2.257" transform="translate(58.47 14.774)" fill="#1053ac"/>
        <path id="Path_5463" data-name="Path 5463" d="M.7.642l.1-.1L.932.425C1.026.343,1.114.262,1.2.187s.176-.163.265-.238.17-.162.251-.244c.17-.156.34-.306.482-.455s.291-.291.414-.421c.251-.272.455-.5.583-.665.116-.136.191-.238.2-.257-.026.013-.115.074-.278.162-.183.11-.448.244-.767.4-.162.074-.345.149-.523.23s-.393.163-.589.244c-.1.042-.212.082-.312.123S.707-.845.6-.811.381-.729.265-.682L.1-.62l-.2.1a2.678,2.678,0,0,0-.78.557,2.6,2.6,0,0,0-.557.855,3.208,3.208,0,0,0-.225.923,4.057,4.057,0,0,0,0,.808,5.409,5.409,0,0,0,.2,1l-.081.047c-.068.048-.123.1-.183.142a1.172,1.172,0,0,0-.163.15,1,1,0,0,0-.142.176,1.39,1.39,0,0,0-.115.2l-.082.2c-.013.074-.034.142-.041.21a.714.714,0,0,0-.013.21,1.992,1.992,0,0,0,.007.2c.034-.055.061-.115.1-.176a.515.515,0,0,1,.094-.17c.034-.054.061-.1.1-.156l.123-.136A.619.619,0,0,1-1.73,4.4a.744.744,0,0,1,.144-.1.774.774,0,0,1,.149-.089c.047-.021.1-.047.156-.068l.157-.054a.807.807,0,0,1,.17-.048A1.578,1.578,0,0,1-.787,4c.061-.013.123-.021.176-.027A2.181,2.181,0,0,1-.25,3.948,1.378,1.378,0,0,1-.073,3.94l.162.008.238.007.108-.21L.511,3.6c.026-.048.047-.1.074-.15l.088-.128a.6.6,0,0,1,.1-.123.96.96,0,0,1,.108-.122L1,2.97a.781.781,0,0,0,.129-.094,1.24,1.24,0,0,1,.136-.081l.074-.042.082-.041c.047-.02.1-.041.156-.061a1.291,1.291,0,0,1,.17-.054c.054-.013.115-.034.17-.047a3.68,3.68,0,0,1,.746-.089A1.688,1.688,0,0,0,2.3,2.306c-.068-.021-.136-.034-.2-.048s-.129-.02-.2-.034-.136-.007-.21-.013-.136.007-.2.007a1.086,1.086,0,0,0-.212.034,1.016,1.016,0,0,0-.21.055.961.961,0,0,0-.2.074c-.008.007-.014.007-.021.013a3.376,3.376,0,0,1-.21-.319,1.831,1.831,0,0,1-.223-.665.877.877,0,0,1,.047-.367A1.362,1.362,0,0,1,.7.642m-.774,2.62H-.1l.034-.014a.029.029,0,0,0-.007.014" transform="translate(66.369 14.515)" fill="#131626"/>
        <path id="Path_5464" data-name="Path 5464" d="M16.092,3.7a1.371,1.371,0,0,1-.17.142l-.129.089c-.041.02-.081.047-.136.074a1.522,1.522,0,0,0-.156.074,1.658,1.658,0,0,1-.163.061c-.054.013-.108.034-.162.047a1.105,1.105,0,0,0-.157.034.117.117,0,0,0-.047.007,1.544,1.544,0,0,0-.136-.156L14.659,3.9l-.155-.15-.089-.074a.15.15,0,0,1-.041-.047.442.442,0,0,1-.1-.115,2.391,2.391,0,0,1-.346-.605,3.393,3.393,0,0,1-.2-.7,3.688,3.688,0,0,1-.061-.372c-.013-.129-.02-.259-.026-.387V1.061l.026-.395L13.675.34l-.2-.17L13.4.109,13.342.069l-.122-.088c-.082-.061-.17-.116-.251-.17s-.15-.082-.225-.123l-.108-.06-.027-.021-.02-.013h-.014l-.013-.008L12.5-.448l-.257-.122c-.089-.041-.157-.068-.238-.1l-.257-.1L11.489-.86c-.183-.061-.338-.1-.5-.142l-.123-.035-.034-.007L10.8-1.051h-.021l-.068-.02c-.1-.014-.189-.034-.278-.048-.176-.02-.372-.034-.549-.047l-.252-.014H9.358c-.183,0-.332.014-.508.014l-.523.034c-.041.007-.068.007-.108.013.007-.068.007-.136.007-.2a3.372,3.372,0,0,0-.047-.625,2.075,2.075,0,0,0-.259-.706A1.6,1.6,0,0,0,7.613-3,1.4,1.4,0,0,0,7.2-3.236a1.4,1.4,0,0,0-.489-.089v-.054a3.2,3.2,0,0,0-.021-.51,2.254,2.254,0,0,0-.108-.563,1.53,1.53,0,0,0-.129-.325,1.451,1.451,0,0,0-.271-.346,1.031,1.031,0,0,0-.469-.244A1.1,1.1,0,0,0,5.245-5.4a1.27,1.27,0,0,0-.3.074v-.027c-.061-.149-.122-.291-.2-.448a2.345,2.345,0,0,0-.312-.468A1.527,1.527,0,0,0,4.166-6.5a1.037,1.037,0,0,0-.408-.189,1.084,1.084,0,0,0-.489-.014,1.572,1.572,0,0,0-.387.15c-.061.041-.115.074-.163.108-.034-.041-.06-.089-.1-.136-.1-.136-.2-.272-.312-.408s-.21-.271-.32-.4l-.338-.4c-.115-.122-.225-.257-.346-.387s-.238-.251-.374-.366a4.893,4.893,0,0,0-.387-.367C.4-9.033.262-9.149.127-9.258.059-9.312-.022-9.366-.1-9.42s-.149-.1-.231-.157a4.464,4.464,0,0,0-.5-.278,2.284,2.284,0,0,0-.265-.122,2.394,2.394,0,0,0-.285-.1,2.534,2.534,0,0,0-.61-.142,2.711,2.711,0,0,0-.665.013,2.344,2.344,0,0,0-.631.183c-.089-.1-.183-.21-.272-.311a6.307,6.307,0,0,0-.814-.727,7.225,7.225,0,0,0-.924-.578c-.162-.081-.332-.156-.5-.223-.089-.034-.176-.068-.265-.1l-.135-.047-.082-.021-.081-.02-.4.753a5.275,5.275,0,0,0-.95-.461,5.542,5.542,0,0,0-1.031-.251,4.828,4.828,0,0,0-.529-.048c-.089-.007-.176-.007-.265-.007l-.142.007h-.074l-.082.008-1.337.1.427.453a4.115,4.115,0,0,0-.508.1c-.359.1-.68.218-.991.333l-.448.176-.461.189-.448.184c-.15.06-.3.122-.455.183l-.9.387-.9.387-.753.325a1.139,1.139,0,0,0-.163.008,1.684,1.684,0,0,0-.366.054,1.759,1.759,0,0,0-.665.34,1.954,1.954,0,0,0-.469.508,2.184,2.184,0,0,0-.136.244c-.068.027-.128.055-.183.082a2.456,2.456,0,0,0-.421.291,4,4,0,0,0-.6.646,6.027,6.027,0,0,0-.461.678c-.069.108-.136.223-.2.346l-.1.176c-.007.013-.021.027-.027.041L-32.861,3.524a.324.324,0,0,0-.082-.007c-.108,0-.217.007-.325.013a6.132,6.132,0,0,0-.625.082,7.12,7.12,0,0,0-1.2.332,8.281,8.281,0,0,0-2.125,1.2c-.244.191-.482.395-.706.605-.089.06-.176.115-.272.183-.027.041-.061.081-.088.122-1.249,1.481-3.041,3.164-4.284,2.783a1.84,1.84,0,0,1-.414-.55,3.166,3.166,0,0,0-3.76-1.683c-1.06-.374-3.117-.644-4.271,2.295a3.478,3.478,0,0,0,4.494-1.2,2.084,2.084,0,0,1,2.58,1.188A2.054,2.054,0,0,0-42.893,9.9,2.593,2.593,0,0,0-41.4,9.891a3.984,3.984,0,0,0,.659-.257,24.077,24.077,0,0,0-1.377,3.387c-.055.183-.115.359-.17.549-.021.089-.055.176-.081.278-.021.068-.048.15-.075.231a7.48,7.48,0,0,1-.414.95,12.2,12.2,0,0,1-1.147,1.8,15.266,15.266,0,0,1-1.439,1.594,18.039,18.039,0,0,1-1.664,1.4c-.142.108-.291.21-.448.319l-.461.333c-.149.1-.319.238-.476.366s-.3.259-.461.387a9.831,9.831,0,0,0-1.568,1.827A9.722,9.722,0,0,0-51.609,25.2c-.136.374-.244.761-.345,1.141s-.17.774-.231,1.16a19.314,19.314,0,0,0-.21,2.321c-.027.767-.027,1.528-.041,2.261l-.014.672H-47.9l.958.007-.361-.916-.02-.068-.027-.074-.054-.156c-.034-.108-.068-.217-.1-.333a5.682,5.682,0,0,1-.142-.678,7.213,7.213,0,0,1-.082-1.371,5.794,5.794,0,0,1,.707-2.607,6.055,6.055,0,0,1,.787-1.126,6.379,6.379,0,0,1,.482-.5c.17-.163.353-.312.536-.463s.38-.278.578-.413.393-.252.618-.38c.434-.252.868-.51,1.3-.767.876-.523,1.745-1.066,2.586-1.649a23.291,23.291,0,0,0,2.423-1.929c.272-.257.544-.523.8-.8a4.665,4.665,0,0,0,.788,1.032,9.432,9.432,0,0,1-2.431,1.683l-.1.021-.088.047c-.639.38-1.534,2.295-.312,10.874l.081.563h6.72l-.9-1.072c-.042-.048-4.073-4.921-1.181-7.8.977-.332,5.232-1.921,5.789-4.261a32.064,32.064,0,0,0,5.567.481,33.657,33.657,0,0,0,4.078-.257c-.136.068-.285.122-.421.176l-.461.183-.754.3.435.672,2.457,3.761.346.536.536-.333c.17-.1.306-.2.455-.291s.286-.2.429-.3c.094-.074.2-.142.291-.21a5.3,5.3,0,0,0,2.9.238l-.672,1.447,1.181-.163a8.061,8.061,0,0,0,3.19-1.235c-.353,1.479.97,2.831,1.894,3.434l.862.563.142-1.025a.911.911,0,0,1,.162-.408,1.7,1.7,0,0,0,.544.964,2.562,2.562,0,0,0,2.158.379,8.827,8.827,0,0,1,2.193,3.748l.129.474H8.157l-2.24-1.222c-4.073-2.233-7.48-9.265-8.532-11.9a1.639,1.639,0,0,1,.223-.1,1.72,1.72,0,0,1,.448-.1,3.118,3.118,0,0,1,.964.061c.162.041.332.089.474.136l.04.02.055.027.115.055c.068.041.142.074.21.122a1.732,1.732,0,0,1,.359.272,1.418,1.418,0,0,1,.278.34,1.724,1.724,0,0,1,.259.829,2.111,2.111,0,0,1-.014.461c-.007.081-.02.156-.033.237a.54.54,0,0,0-.027.116L.7,22.2.371,23.3l1.039-.312c.17-.048.34-.089.5-.142.136-.042.272-.1.4-.136,0,0-.008.007-.008.013-.06.17-.135.34-.21.51l-.122.244-.061.122-.061.116-.787,1.418,1.492-.55.463-.176c.156-.054.312-.108.461-.176a.368.368,0,0,0,.1-.041.433.433,0,0,1,.007.088c.013.17.027.327.041.5a1.9,1.9,0,0,0,.041.257,1.042,1.042,0,0,0,.021.142c.007.021.013.048.02.074s.008.048.027.11l.2.644.6-.285c.123-.055.238-.108.359-.17s.238-.115.353-.183a7.079,7.079,0,0,0,.673-.448,3.691,3.691,0,0,0,.312-.265c.1-.088.2-.183.3-.278s.176-.2.272-.3.17-.21.251-.327a5.7,5.7,0,0,0,.733-1.452,5.492,5.492,0,0,0,.191-.788c.013-.088.026-.17.034-.257.108,0,.217-.007.325-.013.285-.027.576-.055.869-.1a6.331,6.331,0,0,0,.9-.2c.082-.027.163-.048.244-.082a2.256,2.256,0,0,0,.244-.115,1.094,1.094,0,0,0,.129-.074.925.925,0,0,0,.136-.1c.007,0,.007,0,.007-.007a.345.345,0,0,0,.081.007c.129,0,.244-.007.367-.013a5.573,5.573,0,0,0,.727-.108,3.552,3.552,0,0,0,.719-.265,3.987,3.987,0,0,0,.346-.2,3.582,3.582,0,0,0,.319-.251c.1-.1.191-.2.272-.3a1.713,1.713,0,0,0,.123-.178.679.679,0,0,0,.1-.169,2.881,2.881,0,0,0,.17-.367,2.472,2.472,0,0,0,.108-.374,2.4,2.4,0,0,0,.068-.379c.021-.123.021-.246.034-.367v-.366l-.027-.293.238-3.428c.014-.041.041-.081.055-.115.034-.089.068-.163.1-.244.054-.157.1-.312.142-.469a7.271,7.271,0,0,0,.156-.923,6.981,6.981,0,0,0,.047-.923,2.145,2.145,0,0,0,0-.225V10.25c.014-.047.021-.1.034-.156a2.2,2.2,0,0,1,.252-.625c.026-.054.054-.1.081-.149l.021-.034.041-.041.054-.089a2.029,2.029,0,0,0,.15-.251c.041-.081.074-.156.108-.231a4.187,4.187,0,0,0,.346-1.955A4.159,4.159,0,0,0,15.6,5.112a.223.223,0,0,1,.034-.041c.041-.06.081-.122.115-.183s.074-.129.108-.189a1.727,1.727,0,0,0,.1-.191c.027-.074.047-.136.074-.2a.946.946,0,0,0,.055-.183,1.469,1.469,0,0,0,.041-.162,2.255,2.255,0,0,0,.027-.238c.007-.061.007-.1.007-.1a.512.512,0,0,1-.068.068m-18.3,19.8c.271.625.6,1.33,1,2.071a18.978,18.978,0,0,0,4.677,5.884H.079A8.962,8.962,0,0,0-2.7,27.294l-.257-.183-.306.094c-.359.108-1.011.176-1.249-.034-.149-.128-.183-.468-.108-.916l.163-.861-.869.088A2.476,2.476,0,0,0-7,26.446a1.328,1.328,0,0,1-.081-1.718,8.6,8.6,0,0,0,2.96-2.816s.848-.876,1.282,0c.15.421.361.964.632,1.588M14.638,8.2a1,1,0,0,1-.074.156.367.367,0,0,1-.068.116l-.06.088-.034.047-.027.055c-.048.074-.1.149-.142.223a3.493,3.493,0,0,0-.374.958c-.013.088-.034.176-.047.272a1.547,1.547,0,0,0-.007.319v.183c0,.074.007.149,0,.21a7.555,7.555,0,0,1-.042.787,5.346,5.346,0,0,1-.136.761,2.294,2.294,0,0,1-.1.353c-.027.055-.042.116-.068.163-.014.027-.021.047-.034.068S13.41,13,13.41,13l-.094.278-.252,3.611-.007.034.013.068.021.278v.272c-.007.088-.007.183-.021.265l-.02.128c-.007.041-.021.074-.027.116a1.3,1.3,0,0,1-.068.237,1.073,1.073,0,0,1-.1.2.3.3,0,0,1-.06.1.721.721,0,0,1-.061.089,1.2,1.2,0,0,1-.149.169,1.168,1.168,0,0,1-.176.136,1.405,1.405,0,0,1-.2.123,2.471,2.471,0,0,1-.468.17,3.2,3.2,0,0,1-.524.081c-.088.007-.183.007-.27.007l-.136-.007a.6.6,0,0,1-.115-.007l-.563.257s-.008,0-.021.014-.021.013-.034.026a.216.216,0,0,0-.055.027.58.58,0,0,1-.128.055,1.117,1.117,0,0,1-.157.06,4.548,4.548,0,0,1-.725.157c-.252.041-.516.068-.781.088-.136.014-.264.021-.393.027l-.2.014H7.445l-.605.013.007.61v.129a1.541,1.541,0,0,1-.013.157,2.38,2.38,0,0,1-.04.3,4.837,4.837,0,0,1-.149.625,4.26,4.26,0,0,1-.578,1.134c-.054.088-.129.169-.189.251s-.142.162-.217.244-.15.142-.231.217a2.444,2.444,0,0,1-.251.2,3.455,3.455,0,0,1-.408.278c0-.014-.007-.027-.007-.048-.007-.149-.013-.3-.021-.455l-.007-.455-.013-.936-.842.4c-.123.061-.265.123-.395.183.042-.156.089-.3.123-.474a2.465,2.465,0,0,0,.047-.788l-.1-.814-.759.346-.2.1c-.068.026-.142.06-.21.088-.122.055-.251.1-.38.149,0-.108,0-.217-.007-.325a2.966,2.966,0,0,0-.442-1.371,2.816,2.816,0,0,0-.461-.57,3.581,3.581,0,0,0-.557-.429c-.1-.061-.2-.115-.3-.17L.093,18.6l-.081-.034-.089-.041a6.077,6.077,0,0,0-.644-.183,4.3,4.3,0,0,0-1.358-.089,3.6,3.6,0,0,0-.693.157,2.911,2.911,0,0,0-.657.319,3.054,3.054,0,0,0-.557.468,3.145,3.145,0,0,0-.429.563,2.645,2.645,0,0,0-.162.3c-.048.1-.1.2-.142.306s-.076.2-.116.312c-.156.244-.434.6-.623.876A7.3,7.3,0,0,1-7.564,23.5V21.708L-8.669,22.76a7.932,7.932,0,0,1-2.424,1.479l1.806-3.9-2.505,2.416a2.772,2.772,0,0,1-1.5.591l.014-.007c-.665-.021-.489-.414-.38-.584a2.031,2.031,0,0,0,.2-.17c.259-.237.5-.474.747-.712l.366-.367c.116-.128.238-.251.361-.379.23-.252.461-.516.685-.774s.448-.531.659-.809l.157-.2.156-.2c.1-.142.21-.278.312-.427l.291-.422c.1-.149.191-.291.286-.44l.142-.225.128-.217c.089-.149.183-.3.265-.448.17-.312.34-.61.489-.929s.3-.631.44-.95c.068-.157.129-.32.2-.482l.1-.251.088-.244.17-.5.149-.5.076-.251.06-.257.129-.516.061-.2-.108-.21-.021-.047-.021-.034-.033-.055c-.021-.034-.042-.06-.055-.088-.041-.048-.081-.1-.115-.142l-.123-.123c-.041-.041-.081-.074-.122-.108s-.082-.068-.123-.1l-.122-.088-.129-.081c-.041-.021-.089-.042-.129-.061a1.693,1.693,0,0,0-.257-.129l-.257-.1c-.089-.034-.17-.054-.259-.081l-.257-.068a1.826,1.826,0,0,0-.259-.055l-.257-.041c-.088-.013-.17-.027-.257-.034a1.64,1.64,0,0,0-.252-.02l-.257-.021h-.251c-.17,0-.34-.007-.5,0l-.5.041-.244.021c-.081,0-.162.02-.251.027l-.482.068-.244.041-.237.047c-.157.034-.319.068-.476.108s-.319.068-.476.115-.3.089-.461.136-.312.1-.468.157l.489.02c.155.007.319.014.482.014s.319.02.474.026l.476.021.238.013.237.021.469.034c.156.013.3.034.461.047l.461.055.448.081.223.034.225.048c.142.041.291.054.434.1s.278.074.408.122l.2.068c.06.027.128.047.189.074l.183.081c.055.027.108.061.163.089l.089.047.075.048.068.047a.544.544,0,0,1,.06.055.058.058,0,0,0,.027.013l-.034.157-.061.23-.067.238-.136.461-.157.455-.081.231-.1.223c-.061.149-.108.306-.176.455-.136.291-.257.591-.408.882s-.3.578-.455.862c-.081.142-.169.278-.251.421l-.122.2-.136.21c-.081.136-.17.272-.265.406l-.278.4c-.088.136-.189.265-.285.393l-.149.2-.149.189c-.2.259-.408.51-.618.761s-.427.5-.652.733c-.115.123-.23.238-.338.353s-.231.238-.346.353c-.231.231-.476.455-.714.68s-.489.44-.74.651-.5.421-.759.618-.524.4-.788.591a2.3,2.3,0,0,1-.272.183l-1.662-2.538a2.445,2.445,0,0,0,.23-.1l.482-.231.244-.115c.081-.034.156-.082.238-.123l.468-.264c.157-.089.3-.2.455-.293s.3-.189.442-.3l.434-.327c.142-.115.278-.23.414-.346a5.409,5.409,0,0,0,.4-.372l.189-.191.183-.2a5.176,5.176,0,0,0,.367-.406l.17-.21c.06-.074.108-.149.169-.225s.11-.149.157-.223l.156-.231c.048-.074.1-.156.142-.237s.1-.163.136-.244.089-.17.129-.259c.021-.047.041-.088.061-.136s.041-.088.068-.156l.489-2.22-1.63,1.61-.374.453a2.4,2.4,0,0,1-.2.2l-.2.2-.217.183a1.274,1.274,0,0,1-.217.163l-.225.142c-.068.047-.156.081-.23.123a.6.6,0,0,1-.116.054l-.122.041a1.674,1.674,0,0,1-.231.068,1.469,1.469,0,0,1-.238.042c-.081,0-.162.013-.237.007L-16.693,17a.691.691,0,0,1-.115-.014,1.38,1.38,0,0,1-.231-.055c-.034-.007-.074-.026-.108-.034s-.074-.026-.108-.041-.068-.034-.1-.047a.454.454,0,0,0-.04-.027.091.091,0,0,0-.021-.013l-.434-.123-.231.007c-.068,0-.142,0-.217-.007s-.136-.007-.2-.02l-.094-.021-.081-.027a.15.15,0,0,1-.076-.026.314.314,0,0,1-.074-.027l-.061-.034c-.013-.014-.034-.027-.047-.041a1.263,1.263,0,0,1-.1-.089,1.073,1.073,0,0,1-.068-.115.157.157,0,0,1-.026-.068.231.231,0,0,1-.027-.074.362.362,0,0,1-.021-.082.344.344,0,0,1-.013-.088.42.42,0,0,1-.013-.1c0-.027-.008-.068-.008-.1a1.9,1.9,0,0,1,.008-.21,3.423,3.423,0,0,1,.067-.44,1.408,1.408,0,0,1,.055-.225l.027-.108.034-.088.448-1.317-1.3.476-.264.1c-.089.033-.176.054-.265.081a1.772,1.772,0,0,1-.251.074l-.129.034-.122.027c-.089.02-.163.026-.244.041a.642.642,0,0,1-.108.007.53.53,0,0,1-.1,0h-.089l-.075-.021c-.027,0-.027-.007-.047-.013s-.007-.007-.021-.007l-.007-.007v-.014c-.007,0-.007-.007-.007-.013s-.007-.027-.013-.041A.206.206,0,0,1-21.615,14a.4.4,0,0,1,0-.089,1.272,1.272,0,0,1,.021-.21c.013-.074.034-.149.054-.23a2.424,2.424,0,0,1,.076-.238,2.268,2.268,0,0,1,.094-.244l.055-.123.047-.1.612-1.262-1.364.327a2.353,2.353,0,0,1-.537.1.942.942,0,0,1-.366-.026c-.021-.008-.027-.021-.041-.027s-.027-.013-.034-.027c-.027-.013-.041-.047-.061-.088a1.029,1.029,0,0,1-.061-.421,2.844,2.844,0,0,1,.1-.55,4.73,4.73,0,0,1,.2-.57,5.739,5.739,0,0,1,.291-.544,3.793,3.793,0,0,1,.353-.489l.041-.055.061-.06.061-.055L-22,9l.041-.041c.089-.1.178-.191.259-.293l.223-.3c.075-.1.136-.2.2-.306s.123-.21.183-.319.116-.21.17-.312c.108-.217.2-.435.293-.652s.169-.44.244-.665c.033-.108.074-.217.1-.332s.068-.231.1-.34c.055-.223.108-.455.149-.686s.076-.461.1-.691c-.2.421-.408.834-.617,1.235a3.346,3.346,0,0,1-.157.306c-.055.094-.1.2-.163.3-.1.2-.217.4-.325.591l-.176.285c-.055.1-.115.191-.176.285s-.123.184-.183.272-.129.176-.2.259-.136.169-.2.251l-.217.23-.223.2-.074.068-.061.047-.068.061-.074.074c-.1.1-.184.183-.272.278s-.163.2-.238.3a4.485,4.485,0,0,0-.414.638,4.9,4.9,0,0,0-.325.706,3.236,3.236,0,0,0-.183.795,2.2,2.2,0,0,0,.075.944,2.134,2.134,0,0,0,.115.251c.027.047.055.081.082.123s.06.081.088.122a2.208,2.208,0,0,0,.217.21,2.686,2.686,0,0,0,.251.149,1.872,1.872,0,0,0,.646.176c-.021.089-.041.17-.061.265a3.19,3.19,0,0,0-.041.387v.21c.007.081.013.149.027.231a2.236,2.236,0,0,0,.068.251c.02.041.034.074.054.122a1.3,1.3,0,0,0,.068.123,1.673,1.673,0,0,0,.176.238,1.581,1.581,0,0,0,.225.189,1.218,1.218,0,0,0,.244.129,1.829,1.829,0,0,0,.237.074,1.379,1.379,0,0,0,.225.041l.21.013c.068.007.128,0,.2,0a1.63,1.63,0,0,0,.184-.013,2.565,2.565,0,0,0,.359-.055l.155-.026c0,.013-.007.026-.007.047a2.677,2.677,0,0,0-.007.325c0,.055.007.116.007.176s.014.108.021.163a.806.806,0,0,0,.034.183.767.767,0,0,0,.04.176.886.886,0,0,0,.061.183,1.771,1.771,0,0,0,.081.178,1.874,1.874,0,0,0,.21.345,2.443,2.443,0,0,0,.3.293l.156.115c.061.041.115.068.176.1a1.768,1.768,0,0,0,.176.081c.061.021.115.042.176.061l.176.055.17.026a1.386,1.386,0,0,0,.285.034.841.841,0,0,1-.094.027s.169.414-.883.631a38.824,38.824,0,0,1-8.987.021,28.193,28.193,0,0,1-3.9-.672c.068.026.889.638,1.662,1.065a1,1,0,0,1,.074,1.392,13.514,13.514,0,0,1-4.316,2.287l-.142.048-.1.094c-1.67,1.562-2.009,3.761-.984,6.367a12.975,12.975,0,0,0,1.181,2.254h-2.906c-.929-6.8-.359-8.621-.169-9.008a14.468,14.468,0,0,0,3.373-2.457l.712-.665-.889-.408a2.316,2.316,0,0,1-.889-.9,1.225,1.225,0,0,1,.04-1.092,3.058,3.058,0,0,0,.17-.3,5.3,5.3,0,0,0,.448-1.1,3.807,3.807,0,0,0,.122-1.56,10.056,10.056,0,0,1-.6,1.377,9.99,9.99,0,0,1-.767,1.228,11.414,11.414,0,0,1-2.009,2.118c-.38.319-.775.617-1.175.9s-.814.57-1.228.834c-.842.537-1.711,1.032-2.586,1.515l-1.324.727c-.223.122-.461.257-.686.393s-.455.291-.672.448A9.049,9.049,0,0,0-47.162,24.6a7.087,7.087,0,0,0-.977,1.337,6.99,6.99,0,0,0-.9,3.17,7.83,7.83,0,0,0,.094,1.643,6.541,6.541,0,0,0,.15.706h-2.322c.008-.536.014-1.058.034-1.581a18.963,18.963,0,0,1,.191-2.165c.054-.353.128-.7.21-1.045s.189-.686.3-1.018a8.887,8.887,0,0,1,.945-1.867,8.692,8.692,0,0,1,1.364-1.588c.128-.108.264-.231.393-.333s.257-.21.421-.325l.455-.319c.156-.115.312-.223.468-.34a17.006,17.006,0,0,0,1.792-1.507,15.045,15.045,0,0,0,1.568-1.745,12.826,12.826,0,0,0,1.283-2,11.667,11.667,0,0,0,.482-1.113c.034-.1.061-.2.1-.3.02-.089.054-.176.081-.265.047-.176.1-.353.162-.523a20.832,20.832,0,0,1,1.731-4,13.289,13.289,0,0,1,1.215-1.765,10.291,10.291,0,0,1,.835-.9c.727-.515,1.235-.936,1.384-1.065a7.453,7.453,0,0,1,1.073-.523,5.635,5.635,0,0,1,.971-.265,3.062,3.062,0,0,1,.489-.06c.081-.008.162-.014.237-.014a.687.687,0,0,1,.116.007h.081l.285.021.191-.149L-19.49-4.859l.123-.088.074-.15.074-.142.081-.149c.055-.1.116-.2.17-.3.129-.2.251-.388.393-.565a2.919,2.919,0,0,1,.408-.447,2.09,2.09,0,0,1,.189-.136.3.3,0,0,1,.1-.034l.591-.482v-.007l.013-.041a.366.366,0,0,1,.034-.068.849.849,0,0,1,.076-.136.718.718,0,0,1,.176-.2.563.563,0,0,1,.189-.1.618.618,0,0,1,.115-.013h.129l.183.013.149-.061,1.779-.774.89-.38c.149-.054.3-.115.448-.176l.447-.189.442-.176.455-.176a8.511,8.511,0,0,1,.856-.291,2.033,2.033,0,0,1,.733-.082,1.673,1.673,0,0,1,.657.21l1.555.848-.563-1.486c.128.034.257.068.387.108a4.193,4.193,0,0,1,.7.346,3.345,3.345,0,0,1,.319.231c.047.041.1.088.142.128s.1.089.142.129l.8.774.3-1.039c.013-.047.02-.081.026-.115l.021-.1c.013-.061.02-.122.027-.176a4.261,4.261,0,0,1,.508.333,5.212,5.212,0,0,1,.646.576c.094.108.515.461.6.57s.557.523.638.639l.346-.476.021-.013a.211.211,0,0,1,.047-.041c.034-.021.074-.048.115-.068a.913.913,0,0,1,.278-.089,1.365,1.365,0,0,1,.327,0,1.876,1.876,0,0,1,.359.074c.061.021.122.048.183.068l.183.089a2.831,2.831,0,0,1,.374.217,1.387,1.387,0,0,1,.183.122c.055.042.116.082.184.129.115.1.23.183.345.291s.225.21.34.312.225.225.333.333.21.238.319.353.2.244.312.366.2.252.3.38.191.252.285.38.2.259.286.395l.277.4.591.835.531-.9.026-.047.041-.061c.027-.041.061-.081.082-.108s.054-.055.074-.074a1.7,1.7,0,0,1,.115.183c.041.088.089.2.136.306a6.2,6.2,0,0,1,.217.706l.252,1.018.827-.7.048-.041.06-.048c.048-.034.089-.06.129-.088l.081-.041v.007a2.02,2.02,0,0,1,.055.3c.007.116.013.244.013.374-.007.265-.026.536-.06.808L5.224-1.472,6.3-1.927l.054-.021c.027-.007.055-.02.074-.026.055-.021.11-.027.15-.041a.439.439,0,0,1,.183.007c.021.013.021.007.047.054a.591.591,0,0,1,.089.244A2.862,2.862,0,0,1,6.9-.943l-.1.021-.244.041A1.437,1.437,0,0,0,6.3-.82a2.991,2.991,0,0,0-.964.38,4.291,4.291,0,0,0,.523.06c.163.008.333.014.5.008l.5-.021c.17-.007.332-.007.5-.007h.5c.116.007.231.007.346.013h.156l.482.027c.157.013.34.027.489.047l.231.027.251.034c.157.027.3.055.455.1.074.013.136.041.21.06l.048.014h.013l.034.013.115.048c.157.054.327.108.455.169l.2.089.21.1c.074.041.156.074.223.108l.184.108.047.034h.013l.027.021.1.068c.068.041.149.088.2.128a.839.839,0,0,0,.1.074l-.007.136c-.008.157,0,.312,0,.469s.013.312.026.474.042.312.076.469a4.959,4.959,0,0,0,.278.936,3.61,3.61,0,0,0,.508.883,1.534,1.534,0,0,0,.176.2.851.851,0,0,0,.108.108l.074.068.157.142.122.128a3.815,3.815,0,0,1,.463.578,2.99,2.99,0,0,1,.455,1.33A3.01,3.01,0,0,1,14.638,8.2" transform="translate(59.076 12.061)" fill="#131626"/>
      </g>
    </g>
  </g>
</svg>
