<svg xmlns="http://www.w3.org/2000/svg" width="425" height="174" viewBox="0 0 425 174">
  <g id="Group_3817" data-name="Group 3817" transform="translate(9066 -9661)">
    <rect id="Rectangle_1876" data-name="Rectangle 1876" width="425" height="174" transform="translate(-9066 9661)" fill="#fff"/>
    <g id="Group_3808" data-name="Group 3808" transform="translate(-9002.482 9710.684)">
      <path id="Path_4302" data-name="Path 4302" d="M6.492,0S2.12,17.673-2.611,32.514H12.8C17.45,17.4,22.125,0,22.125,0Z" transform="translate(274.357 0.052)" fill="#1e6e3c"/>
      <path id="Path_4303" data-name="Path 4303" d="M20.666,9.762C14.92,16.187,7.438,15.5,7.756,6.035A60.744,60.744,0,0,1,9.6-3.926H-5.2C-6.228.164-7.048,3.835-7.539,6.739c-2.364,14.148,0,25.653,17,25.3S32.572,20.887,37.687,9.082c1.276-2.967,2.9-7.646,4.6-13.008H26.8c-2.207,6.5-4.4,11.795-6.129,13.688" transform="translate(243.16 41.938)" fill="#1e6e3c"/>
      <path id="Path_4304" data-name="Path 4304" d="M10.6,23.226C14.6,8.778,20.776-9.341,20.776-9.341H5.342S-.2,8.067-4.263,23.226Z" transform="translate(243.632 9.341)" fill="#1e6e3c"/>
      <path id="Path_4305" data-name="Path 4305" d="M0,23.345H17.327L24.482-2.51s1.928.178,9.832.178A20.754,20.754,0,0,0,50.4-9.389H9.682Z" transform="translate(181.733 47.402)" fill="#1e6e3c"/>
      <path id="Path_4306" data-name="Path 4306" d="M30.57,23.223a37.67,37.67,0,0,0,2.583-6.087C38.46.945,31.233-9.291,19.9-9.291c-8.5,0-22.554-.049-22.554-.049L-12.3,23.223ZM9.753,5.937c5.638-.167,7.914,1.28,7.579,5.435-.275,3.87-2.064,9.148-7.391,9.281-1.952.063-4.372-.132-4.372-.132S9.258,7.7,9.753,5.937" transform="translate(205.321 9.344)" fill="#1e6e3c"/>
      <path id="Path_4308" data-name="Path 4308" d="M14.734,0-.627.045-5.926,17.8H9.526Z" transform="translate(179.089 14.766)" fill="#1e6e3c"/>
      <path id="Path_4309" data-name="Path 4309" d="M7,0-2.816,32.734H12.817L22.541,0Z" transform="translate(164.501 38.015)" fill="#1e6e3c"/>
      <path id="Path_4310" data-name="Path 4310" d="M20.8,0,1.856.052-8.366,32.567H10.5L20.8,0Z" transform="translate(136.524 0.003)" fill="#1e6e3c"/>
      <path id="Path_4311" data-name="Path 4311" d="M17.559,10.247,22.1-4.121H3.2L-7.062,28.641H36.093l5.624-18.394Z" transform="translate(123.187 42.134)" fill="#1e6e3c"/>
      <path id="Path_4312" data-name="Path 4312" d="M0,50.392,122.181,12.46l12.1-32.727Zm0,0H108.138L119.8,18.9Z" transform="translate(0 20.323)" fill="#1e6e3c"/>
      <path id="Path_4313" data-name="Path 4313" d="M2.631.035l-3.689,11.84H14.4l3.6-11.889Z" transform="translate(180.552 0.018)" fill="#1e6e3c"/>
    </g>
  </g>
</svg>
