<svg xmlns="http://www.w3.org/2000/svg" width="424" height="173" viewBox="0 0 424 173">
  <g id="Group_3818" data-name="Group 3818" transform="translate(9066 -8521)">
    <rect id="Rectangle_1871" data-name="Rectangle 1871" width="424" height="173" transform="translate(-9066 8521)" fill="#fff"/>
    <g id="Group_3803" data-name="Group 3803" transform="translate(-8944.787 8553.237)">
      <path id="Path_5519" data-name="Path 5519" d="M1.627,0H118.47l-2.292,4.124H-1.123Z" transform="translate(38.051 45.224)" fill="#32a947"/>
      <path id="Path_5520" data-name="Path 5520" d="M15,0-7.225,36.239l-3.127,4.689H111.44l2.809-5.052H-.163L21.839,0Z" transform="translate(10.352 68.581)" fill="#135db2"/>
      <path id="Path_5521" data-name="Path 5521" d="M10.123,0h15.4l4.738,28.114H-6.987Z" transform="translate(48.069 14.678)" fill="#32a947"/>
      <path id="Path_5522" data-name="Path 5522" d="M39.422,5.605l5.931-9.474H-21.483l-5.728,9.474H10.444L-10.608,39.288H4.523L12.932,25.6h9.682l8-13.334H21l4.334-6.666Z" transform="translate(56.66 56.309)" fill="#32a947"/>
      <path id="Path_5523" data-name="Path 5523" d="M1.992,0-1.375,5.052H105.8L87.552,38.583h7.175L115.416.044h-.022L115.416,0Z" transform="translate(65.496)" fill="#135db2"/>
      <path id="Path_5524" data-name="Path 5524" d="M41.3,0H24.691L17.58,11.389V0H-7.155l-5.9,9.474h5.2l-20.65,33.68H-9.979L-.664,28.068V43.155h18.5Z" transform="translate(111.27 52.44)" fill="#32a947"/>
    </g>
  </g>
</svg>
