<svg xmlns="http://www.w3.org/2000/svg" width="426" height="173" viewBox="0 0 426 173">
  <g id="Group_3810" data-name="Group 3810" transform="translate(8238 -11889)">
    <rect id="Rectangle_1868" data-name="Rectangle 1868" width="426" height="173" transform="translate(-8238 11889)" fill="#fff"/>
    <g id="Group_3800" data-name="Group 3800" transform="translate(-8214.593 11934.725)">
      <path id="Path_4188" data-name="Path 4188" d="M13.4,26.788A18.655,18.655,0,1,1,32.048,8.135,18.656,18.656,0,0,1,13.4,26.788" transform="translate(214.754 10.521)" fill="#32c1eb"/>
      <path id="Path_4190" data-name="Path 4190" d="M12.807,5.248V34H4.633V5.248H-5.03l.191-7.309H22.329l.191,7.309Z" transform="translate(5.03 2.638)"/>
      <path id="Path_4191" data-name="Path 4191" d="M14.775,15.086l8.415,15.05H13.719l-6.3-13.465h-5.1V30.136H-5.8V-5.925H7.421c8.94,0,13.412,3.511,13.412,11.2,0,5.05-2.163,8.607-6.057,9.809M7.467.806H2.321v9.809h5c3.606,0,5.05-1.106,5.05-5,0-3.653-1.348-4.809-4.9-4.809" transform="translate(46.375 6.502)"/>
      <path id="Path_4193" data-name="Path 4193" d="M16.985,20.85H3.907L1.889,27.868h-8.56L5.783-8.189h9.663l12.6,36.057H19ZM9.485,1.715,5.879,14.07h9.185L11.6,1.715l-.961-3.8h-.145Z" transform="translate(85.843 8.765)"/>
      <path id="Path_4194" data-name="Path 4194" d="M15.74,12.359,26.223,31.207H17.038L11.8,20.916l-1.635-3.507H10.02L8.336,20.966,3.19,31.207H-6.182L4.059,12.551l-10-17.4H3.673L8.336,4.139,10.066,7.6h.145L11.9,4.139l4.66-8.993h9.231Z" transform="translate(130.303 5.431)"/>
      <path id="Path_4195" data-name="Path 4195" d="M9.286,17.467H4.481V29.2H-3.647V-6.86H9.286c10,0,14.089,3.94,14.089,12.355,0,7.6-4.043,11.972-14.089,11.972m0-17.55H4.481v11.06H9.286c3.989,0,5.723-1.011,5.723-5.532,0-4.326-1.539-5.528-5.723-5.528" transform="translate(173.532 7.439)"/>
      <path id="Path_4196" data-name="Path 4196" d="M14.775,15.086l8.415,15.05H13.719l-6.3-13.465h-5.1V30.136H-5.8V-5.925H7.421c8.94,0,13.412,3.511,13.412,11.2,0,5.05-2.163,8.607-6.057,9.809M7.467.806H2.321v9.809h5c3.606,0,5.05-1.106,5.05-5,0-3.653-1.348-4.809-4.9-4.809" transform="translate(266.107 6.502)"/>
      <path id="Path_4198" data-name="Path 4198" d="M12.807,5.248V34H4.633V5.248H-5.03l.191-7.309H22.325l.191,7.309Z" transform="translate(303.795 2.638)"/>
      <path id="Path_4199" data-name="Path 4199" d="M12.945,0-5.084,36.061H30.973Z" transform="translate(337.005 0.577)" fill="#a9d14c"/>
      <path id="Path_4200" data-name="Path 4200" d="M2.21,2.258,3.469,4.51H2.054L1.111,2.5H.348V4.51H-.868v-5.4H1.111c1.337,0,2.007.528,2.007,1.677A1.386,1.386,0,0,1,2.21,2.258M1.118.12H.348V1.588H1.1c.539,0,.755-.163.755-.748,0-.546-.2-.72-.734-.72" transform="translate(373.693 4.853)"/>
      <path id="Path_4201" data-name="Path 4201" d="M4.3,8.591a5.982,5.982,0,1,1,5.982-5.982A5.99,5.99,0,0,1,4.3,8.591m0-11.082a5.1,5.1,0,1,0,5.1,5.1,5.107,5.107,0,0,0-5.1-5.1" transform="translate(370.366 4.059)"/>
    </g>
  </g>
</svg>
