<svg xmlns="http://www.w3.org/2000/svg" width="425" height="174" viewBox="0 0 425 174">
  <g id="Group_3812" data-name="Group 3812" transform="translate(9066 -10777)">
    <rect id="Rectangle_1872" data-name="Rectangle 1872" width="425" height="174" transform="translate(-9066 10777)" fill="#fff"/>
    <g id="Group_3804" data-name="Group 3804" transform="translate(-9036.06 10837.262)">
      <path id="Path_5546" data-name="Path 5546" d="M41.224,0h-29.7L-13.451,53.017H1.089l6.333-13.4H18.847l.776.053.622.154.573.106.467.207.419.207.3.313.264.309.154.362.053.419.053.463-.106.569-.1.626-.211.675-.26.784-.366.776-3.475,7.373H32.086l3.479-7.373.467-1.041.467-.935.362-.988.313-.882.26-.829.207-.829.154-.679.1-.724L38,38.062V36.92L37.9,36.4l-.154-.419-.154-.411-.26-.366-.256-.309-.366-.26-.415-.264-.573-.256-.569-.207-.679-.207-.829-.207-.78-.154-.935-.159,1.667-.415.829-.26.78-.26.724-.256.728-.313.675-.313.622-.313.78-.411.78-.472.728-.569.776-.524.675-.618.728-.675.675-.679.675-.78.622-.728.622-.878.679-.833.52-.882.622-.988.569-.988.52-1.032.52-1.093,1.61-3.374.516-1.142.419-1.041.415-1.089.362-.935.313-.935.211-.882.15-.829.159-.829.1-.78v-1.4l-.1-.573-.159-.573L52.288,4l-.26-.573-.264-.415L51.4,2.65l-.362-.366-.419-.309-.463-.26-.52-.309-.626-.26L48.39.935,47.663.728,46.886.52l-.78-.1L45.224.26,44.285.207,43.3.106,42.265,0ZM20.246,12.308H30.269l1.658.049.679.057.569.049.52.106.467.049.362.159.26.159.159.1.15.154.159.154.1.154.057.211.1.207v.207l.053.26-.053.52-.1.622-.26.622-.313.728L33.229,20.3l-.52,1.041-.573.984-.516.882L31,23.941l-.573.671-.671.622-.626.467-.679.419-.565.256-.679.264-.728.2L25.648,27l-.935.1-.313.057h-.622l-1.089.045-1.093.057H13.238Z" transform="translate(13.451 0.571)" fill="#ff371f"/>
      <path id="Path_5547" data-name="Path 5547" d="M18.793,0-6.132,53.017h39.05l5.5-11.686H13.911l4.674-9.918H41.169L45.8,21.551H23.26l4.569-9.865H51.921L57.424,0Z" transform="translate(56.807 0.571)" fill="#ff371f"/>
      <path id="Path_5548" data-name="Path 5548" d="M39.854,0H11.921L-13,53.017H15.5l1.61-.053,1.455-.154,1.451-.154,1.4-.159,1.093-.207.26-.053,1.3-.26,1.244-.362,1.244-.366,1.2-.419,1.142-.463,1.037-.463,1.089-.573.988-.622L33,48.086l.935-.679.728-.675L35.493,46l.78-.776L37,44.4l.833-.882.78-1.041.776-1.037.829-1.089L41,39.2l.724-1.3.833-1.244.724-1.349.833-1.455L44.89,32.4l.78-1.61.724-1.61,2.654-5.5.724-1.61.622-1.508.675-1.455.52-1.4.467-1.3.467-1.293.366-1.2.309-1.142.313-1.089.15-.988.159-1.037.106-.833.053-.882-.053-.728L53.82,6.5l-.159-.626-.2-.732-.313-.671-.415-.622-.467-.626-.622-.463-.622-.472-.78-.467-.78-.362-.931-.362L47.54.833,46.451.52,45.309.366,44.061.207,42.76.053,41.309,0ZM20.7,12.308H34.558l.467.106.467.049.362.106.366.154.313.154.309.207.211.26.2.211.159.309.154.313.053.362.053.366v.463l-.053.415-.053.472-.106.467-.207.569-.622,1.61-.984,2.232L34.4,23.884l-2.545,5.3-1.35,2.858-1.2,2.284-.467.882-.52.776-.415.626-.366.52-.362.463-.362.366-.415.366-.472.366L25.526,39l-.419.313-.463.256-.467.26-.524.154-.516.159-.52.207h-.1l-.419.1-.569.106-.573.106-.569.049H7.348Z" transform="translate(107.14 0.571)" fill="#ff371f"/>
      <path id="Path_5549" data-name="Path 5549" d="M38.561,0H12.392L-12.582,53.017H2.006L8.083,39.981H19.712l1.4-.049,1.3-.106,1.354-.106.878-.1h.366l1.142-.159,1.142-.15,1.089-.211,1.041-.26.988-.207.931-.26.882-.3.833-.317.829-.309.675-.362.837-.52.878-.577.829-.569.882-.675.78-.728.78-.776.829-.833.78-.931.78-.939.776-1.089L43.39,28.4l.728-1.2.724-1.2.728-1.3.679-1.3.675-1.4L48.9,17.865l.569-1.4.569-1.248.472-1.244.463-1.146.366-1.138.256-1.041.26-.988.154-.984.106-.886.053-.829V6.235l-.1-.732-.159-.675L51.7,4.207l-.2-.52-.37-.52L50.763,2.8l-.415-.366-.52-.362-.52-.309-.671-.26L47.958,1.2,47.231.988,46.349.78,45.467.569,44.43.419,43.39.309,42.3.207l-1.2-.1L39.857,0ZM21.115,12.308H31.553l.776.1.728.053.622.106.52.1.415.154.313.211.211.26.045.1.106.207.053.366V15.06l-.159.573-.2.724-.313.829-.415.829-1.817,4-.472.935-.516.829-.516.78-.52.622-.573.622-.622.467-.622.415L27.972,27l-.472.154-.569.106-.626.1-.675.154-.829.053h-.159l-.776.053-2.077.053H13.9Z" transform="translate(158.644 0.571)" fill="#ff371f"/>
      <path id="Path_5550" data-name="Path 5550" d="M33.2,0,28.58,5.557l-39.412,47.46H4.021l7.268-8.877H31.433l-1.711,8.877H44.985L55.318,0ZM28.58,23.421l9.032-10.853-4.15,21.755H19.544Z" transform="translate(197.444 0.571)" fill="#ff371f"/>
      <path id="Path_5551" data-name="Path 5551" d="M31.555,0,29.786.106l-1.658.1-1.667.1L24.856.52,23.348.728,21.893.935l-1.447.313-1.3.309-1.293.362-1.2.366L15.458,2.7l-1.089.467-1.041.472-.988.569-.882.569-.935.675-.935.728-.878.829-.939.833-.829.988L6,9.816l-.882,1.138-.878,1.2L3.362,13.4l-.882,1.3-.886,1.455-.882,1.5-.829,1.561-.939,1.658-.825,1.715L-2.768,24.4l-2.545,5.4-.833,1.821-.776,1.711L-7.6,35l-.569,1.557-.52,1.508-.467,1.4-.362,1.349-.317,1.248-.2,1.2-.159,1.138-.1.984v.992l.1.829.159.829.2.728.106.313.211.309.154.313.207.26.52.569.516.467.622.467.78.415.886.419.984.366,1.041.26,1.089.309,1.248.207,1.35.256,1.4.159,1.5.1,1.667.106,1.658.053h4.829l1.455-.1,1.354-.106,1.4-.211,1.248-.15,1.3-.211,1.191-.26,1.146-.207,1.142-.309,1.041-.362,1.037-.37.935-.411.935-.419.931-.467.78-.52.882-.565.886-.679.829-.675.829-.776.78-.785.829-.931.78-.935.78-.988.78-1.089.724-1.089.728-1.248.78-1.248.675-1.244.724-1.4.679-1.4.671-1.5H24.649l-.573,1.244L23.5,35.831l-.618,1.032-.569.886-.577.78-.569.671-.622.573-.626.467L19.3,40.6l-.728.313-.776.26-.935.207-.988.207-1.089.106-1.2.053-1.3.049H11.56l-.671-.049-.675-.1-.626-.057-.569-.1-.467-.106-.467-.154-.467-.207-.366-.211L6.943,40.6l-.26-.2-.207-.313-.211-.313-.154-.26-.049-.362L6,38.79v-.52l.159-.728.26-.882.309-1.041L7.2,34.428l.569-1.406.675-1.5L9.223,29.8l2.549-5.451.829-1.711.78-1.508.728-1.4.675-1.2.622-1.037.569-.882.52-.679.52-.565.362-.366.419-.362.415-.26.467-.313.463-.309.52-.207.573-.211.573-.207.569-.207.573-.106.622-.154.675-.106.724-.1.679-.053.728-.053h1.971l1.041.106.935.053.825.154.679.154.52.211.463.26.159.1.154.207.159.159.1.2.106.26v.207l.049.313v.675l-.049.362-.207.833-.264.935-.411.984-.472,1.089h14.54l.106-.15.622-1.406.573-1.345.516-1.3.467-1.244.366-1.2.309-1.146.211-1.089.207-.988.1-.931.053-.886V7.113L49.1,6.284l-.154-.728-.207-.626-.309-.622-.317-.565L47.7,3.321l-.419-.463-.569-.366-.622-.415-.622-.309-.78-.317-.78-.256-.886-.26L42.095.78,41.054.569,39.965.419,38.774.26l-1.248-.1-1.3-.106L34.876,0Z" transform="translate(257.608 0)" fill="#ff371f"/>
      <path id="Path_5552" data-name="Path 5552" d="M18.873,0-6.158,53.017H8.487L33.412,0Z" transform="translate(297.084 0.571)" fill="#ff371f"/>
      <path id="Path_5553" data-name="Path 5553" d="M23.491,0-6.421,25.14l-.752,1.593-.492,1.093.728,2.5,6.8,22.742H14.3L6.509,29.026,39.844,0Z" transform="translate(325.048 0.735)" fill="#0f3a81"/>
      <path id="Path_5554" data-name="Path 5554" d="M3.7,0,3.2.057H2.764l-.5.163L1.825.386,1.382.553.943.825l-.386.333-.329.276L-.1,1.817l-.28.39L-.6,2.589l-.219.443-.167.439-.163.5-.057.5V5.512l.057.439.163.553.167.443.219.439.219.386.28.386.329.386.329.329.386.219.439.28.443.219.439.163.5.11.439.057H4.252l.492-.057.443-.11.439-.163.443-.219.386-.28.386-.219.329-.329L7.5,8.158l.272-.386.276-.386.167-.439L8.439,6.5l.11-.553.057-.439.053-.553-.053-.492-.057-.5-.11-.5-.219-.439-.167-.443-.276-.382L7.5,1.817,7.17,1.435l-.329-.276L6.455.825,6.069.553,5.626.386,5.187.219,4.744.057H4.252L3.752,0Zm.053.772h.386l.443.053.382.114.333.167.329.163.333.219.276.28.329.219.276.329.219.329.167.333.163.382.114.386.167.386V5.841L7.5,6.284,7.39,6.67,7.227,7l-.167.382-.219.276-.276.276-.329.329-.276.224-.333.219L5.3,8.873l-.333.167-.382.053-.443.057L3.752,9.2H3.7L3.313,9.15l-.386-.057L2.6,9.04l-.382-.167-.39-.163L1.5,8.491l-.276-.28L.89,7.938.671,7.662.39,7.333.228,7l-.167-.39-.11-.382-.114-.39L-.211,5.4l-.061-.443.061-.439.049-.386.114-.386.11-.386.167-.382L.39,2.646l.28-.329L.89,1.988l.329-.219.276-.28.329-.219.39-.163L2.541.939,2.927.825,3.313.772H3.7ZM3.7,2.207H3.423L2.6,2.26l-.715.057V7.882h.882V5.459h.658l.219.053H3.7l.167.057h.163l.224.163.11.11.11.167.11.224.053.219.167.935.057.276.106.219H5.9l-.053-.163-.11-.276-.114-.386L5.516,6.5l-.053-.272-.057-.28L5.3,5.731l-.053-.163L5.13,5.349l-.167-.061L4.8,5.178H4.634v-.11l.224-.053.167-.11.219-.11.163-.167.11-.163.11-.224.061-.219V3.748l-.061-.386-.053-.272-.167-.276-.219-.167L4.91,2.479l-.386-.163-.5-.11Zm.053.663.276.11.272.053.171.11.163.167.057.163.11.224v.163l-.057.219L4.691,4.3l-.11.171-.167.106L4.2,4.687l-.224.053L3.7,4.8H2.764V2.918l.329-.049H3.7Z" transform="translate(354.524 42.589)" fill="#0f3a81"/>
    </g>
  </g>
</svg>
