<?xml version="1.0" encoding="utf-8"?>
<!-- Generator: Adobe Illustrator 25.4.1, SVG Export Plug-In . SVG Version: 6.00 Build 0)  -->
<svg version="1.1" id="Layer_1" xmlns="http://www.w3.org/2000/svg" xmlns:xlink="http://www.w3.org/1999/xlink" x="0px" y="0px"
	 viewBox="0 0 425 174" style="enable-background:new 0 0 425 174;" xml:space="preserve">
<style type="text/css">
	.st0{fill:#FFFFFF;}
	.st1{enable-background:new    ;}
	.st2{fill:#243C7A;}
	.st3{fill:none;}
	.st4{fill:#A4CF4F;}
</style>
<g id="Group_3815" transform="translate(7429 -9661)">
	<rect id="Rectangle_1875" x="-7429" y="9661" class="st0" width="425" height="174"/>
	<g id="Group_3807" transform="translate(-7362.702 9691.99)">
		<g class="st1">
			<path class="st2" d="M103.5,109.5c-0.1-0.5-0.1-0.8-0.1-1c-0.8,1.2-1.8,1.2-2.3,1.2c-1.1,0-1.6-0.3-1.9-0.6
				c-0.5-0.5-0.7-1.1-0.7-1.7s0.2-1.7,1.6-2.4c0.9-0.4,2.3-0.4,3-0.4c0-0.5,0-0.7-0.1-1c-0.2-0.6-0.8-0.6-1-0.6
				c-0.3,0-0.6,0.1-0.8,0.4c-0.2,0.3-0.2,0.5-0.2,0.7h-2.2c0-0.4,0.1-1.2,0.9-1.8c0.7-0.5,1.6-0.6,2.3-0.6c0.6,0,1.9,0.1,2.7,1
				c0.5,0.6,0.5,1.5,0.5,1.9l0,3c0,0.6,0,1.3,0.2,1.9H103.5z M100.7,107.2c0,0.5,0.3,1.1,1.1,1.1c0.4,0,0.7-0.2,0.9-0.4
				c0.4-0.5,0.4-1.1,0.4-1.9C101.8,105.8,100.7,106.3,100.7,107.2z"/>
			<path class="st2" d="M111.8,98.7h2.2v9.6c0,0.4,0,0.9,0.1,1.2h-2.2l-0.1-1.1c-0.1,0.3-0.3,0.6-0.8,0.9c-0.6,0.4-1.1,0.4-1.5,0.4
				c-2,0-3.2-1.4-3.2-3.8c0-2.5,1.4-4.1,3.3-4.1c1.4,0,1.9,0.8,2.1,1V98.7z M110.2,108.2c0.6,0,1.2-0.4,1.4-0.9
				c0.3-0.6,0.4-1.4,0.4-1.8c0-1.5-0.6-2.3-1.6-2.3c-1.5,0-1.6,1.8-1.6,2.5C108.6,107.1,109,108.2,110.2,108.2z"/>
			<path class="st2" d="M117.1,102l1.7,5.1l1.7-5.1h2.1l-2.7,7.6h-2.5l-2.8-7.6H117.1z"/>
			<path class="st2" d="M125,106.3c0,0.5,0,2,1.5,2c0.6,0,1.1-0.2,1.3-1h2c0,0.4-0.1,1-0.7,1.7c-0.6,0.6-1.5,0.9-2.7,0.9
				c-0.6,0-1.9-0.1-2.7-0.9c-0.7-0.7-1-1.7-1-3c0-1.2,0.3-2.7,1.6-3.6c0.6-0.4,1.3-0.6,2.1-0.6c1.1,0,2.4,0.4,3.1,1.8
				c0.5,1,0.5,2.1,0.5,2.8H125z M127.8,104.9c0-0.3,0-1.7-1.3-1.7c-1,0-1.4,0.8-1.4,1.7H127.8z"/>
			<path class="st2" d="M131.1,103.8c0-0.4-0.1-1.5-0.1-1.9h2.1l0,1.5c0.3-0.6,0.8-1.6,2.6-1.5v2c-2.2-0.2-2.4,0.9-2.4,1.9v3.7h-2.2
				V103.8z"/>
			<path class="st2" d="M140.6,109.4c-0.7,0.2-1.4,0.2-1.7,0.2c-2.2,0-2.2-1.4-2.2-2v-4.2h-1.5V102h1.5v-1.5l2.2-0.8v2.3h1.8v1.5
				h-1.8v3.4c0,0.7,0,1.1,1,1.1c0.3,0,0.5,0,0.8,0V109.4z"/>
			<path class="st2" d="M141.5,98.7h2.4v1.9h-2.4V98.7z M141.6,101.9h2.2v7.6h-2.2V101.9z"/>
			<path class="st2" d="M146.9,107.3c0,0.5,0.3,1,1.3,1c0.8,0,1.2-0.4,1.2-0.9c0-0.3-0.2-0.6-1-0.9l-1.4-0.4
				c-0.6-0.2-1.9-0.6-1.9-2.1c0-1.5,1.3-2.4,3.3-2.4c1.6,0,2.8,0.7,2.9,2.2h-2c-0.1-0.8-0.7-0.9-1.1-0.9c-0.6,0-1,0.3-1,0.8
				c0,0.5,0.4,0.6,1,0.8l1.4,0.4c1.4,0.4,2,1.1,2,2.1c0,1.3-1.1,2.6-3.5,2.6c-1,0-1.9-0.2-2.6-0.9c-0.5-0.5-0.5-1.1-0.6-1.5H146.9z"
				/>
			<path class="st2" d="M152.3,98.7h2.4v1.9h-2.4V98.7z M152.4,101.9h2.2v7.6h-2.2V101.9z"/>
			<path class="st2" d="M156.1,103.3c0,0,0-0.9,0-1.4h2.1l0.1,1.1c0.2-0.3,0.8-1.3,2.5-1.3c1.5,0,2.1,0.9,2.3,1.4
				c0.2,0.5,0.2,0.9,0.2,2.3v4.1H161v-4.7c0-0.3,0-0.6-0.1-0.8c-0.2-0.3-0.5-0.6-1.1-0.6c-0.5,0-0.9,0.2-1.2,0.6
				c-0.1,0.2-0.3,0.6-0.3,1.2v4.4h-2.2V103.3z"/>
			<path class="st2" d="M172,102c-0.1,0.6-0.1,1.1-0.1,1.9v5.6c0,2.8-2.3,3.1-3.8,3.1c-1.1,0-3.2-0.1-3.3-2.4h2.1c0,0.2,0.1,1,1.3,1
				c0.7,0,1.2-0.3,1.4-1c0.1-0.4,0.1-0.6,0.1-1.8c-0.7,0.9-1.5,1-2,1c-2.2,0-3.2-1.9-3.2-3.7c0-1.9,1.1-3.8,3.2-3.8
				c1.4,0,1.9,0.8,2.1,1.1l0.1-1H172z M168.2,107.9c1.6,0,1.6-1.8,1.6-2.2c0-0.9-0.2-2.3-1.5-2.3c-0.8,0-1.5,0.6-1.5,2.3
				C166.7,106,166.7,107.9,168.2,107.9z"/>
		</g>
		<g class="st1">
			<path class="st2" d="M45.2,24.1h10.5c4.9,0,9,0.3,11.8,3.7c1.8,2.2,2.1,4.6,2.1,6.3c0,3.9-1.6,7.3-4.3,9
				c-2.5,1.6-5.9,1.6-7.7,1.6h-4.9V58h-7.4V24.1z M52.4,39.4h2.9c2.3,0,6.7,0,6.7-5.2c0-4.6-3.9-4.6-6-4.6h-3.7V39.4z"/>
			<path class="st2" d="M81.5,24.1v20.7c0,3.7,0.3,8.4,7.4,8.4c1.2,0,4.7,0,6.6-3c0.7-1,1.1-2.3,1.1-5.8V24.1h7.1v21.2
				c0,10.1-8,13.3-14.9,13.3c-3.4,0-9.6-0.8-12.8-5.9c-1.6-2.6-1.7-5.2-1.7-8.4V24.1H81.5z"/>
			<path class="st2" d="M110.6,24.1h12.7c2,0,5.8,0,8.4,1.6c3.1,2,3.8,5.3,3.8,7.2c0,1.3-0.2,3.5-2,5.1c-0.2,0.3-1.9,1.8-3.9,2.3
				v0.1c5.2,0.9,7.2,4.7,7.2,8.3c0,4-2.4,6.7-5,8c-2.6,1.4-7.2,1.4-8.6,1.4h-12.7V24.1z M117.6,37.9h5.1c2.1,0,5.8,0,5.8-4.4
				c0-4.2-3.6-4.2-6-4.2h-4.9V37.9z M117.6,52.6h4.9c3.3,0,7.1,0,7.1-4.6c0-4.8-4.4-4.8-7.8-4.8h-4.2V52.6z"/>
			<path class="st2" d="M142,24.1h7.4v28.2H164V58h-22V24.1z"/>
			<path class="st2" d="M167.7,23.9h7.3V58h-7.3V23.9z"/>
			<path class="st2" d="M200.3,35.1c-0.1-1.2-0.6-6-5.5-6c-5.4,0-7.7,5.6-7.7,12.6c0,2,0,11.7,7.1,11.7c3.1,0,6-1.9,6.1-6.4h7.7
				c-0.1,2-0.3,5.2-3.1,8c-3,3.1-6.8,3.8-9.9,3.8c-11.7,0-15.5-8.6-15.5-17.1c0-10.8,6-17.9,15.6-17.9c7.4,0,12.6,4.5,12.6,11.3
				H200.3z"/>
			<path class="st2" d="M230.5,24l11.8,34h-7.3l-2.4-7.3h-13.4l-2.5,7.3h-7l12.3-34H230.5z M230.7,45.2L226,30.7l-5,14.5H230.7z"/>
		</g>
		<g id="Path_5448" transform="translate(0 0)">
			<path class="st3" d="M12.4,0h269.9c6.8,0,12.4,5.9,12.4,13.1v58.1c0,7.2-5.5,13.1-12.4,13.1h-30.9c-11.5,12.2-20.3,20-27.1,27.2
				V84.4h-212C5.5,84.4,0,78.5,0,71.2V13.1C0,5.9,5.5,0,12.4,0z"/>
			<path class="st4" d="M12.4,3C7.2,3,3,7.5,3,13.1v58.1c0,5.6,4.2,10.1,9.4,10.1h215v22.9c1.5-1.5,3.2-3.1,4.9-4.8
				c4.9-4.8,10.5-10.2,17-17.1l0.9-0.9h32.2c5.2,0,9.4-4.5,9.4-10.1V13.1c0-5.6-4.2-10.1-9.4-10.1H12.4 M12.4,0h269.9
				c6.8,0,12.4,5.9,12.4,13.1v58.1c0,7.2-5.5,13.1-12.4,13.1c0,0-16.8,0-30.9,0c-11.5,12.2-20.3,20-27.1,27.2c0-9.3,0-17.4,0-27.2
				c-67.5,0-212,0-212,0C5.5,84.4,0,78.5,0,71.2V13.1C0,5.9,5.5,0,12.4,0z"/>
		</g>
	</g>
</g>
</svg>
