<svg xmlns="http://www.w3.org/2000/svg" width="422" height="174" viewBox="0 0 422 174">
  <g id="Group_3816" data-name="Group 3816" transform="translate(8239 -9661)">
    <rect id="Rectangle_1877" data-name="Rectangle 1877" width="422" height="174" transform="translate(-8239 9661)" fill="#fff"/>
    <g id="Group_3809" data-name="Group 3809" transform="translate(-8108.108 9670.258)">
      <path id="Path_4271" data-name="Path 4271" d="M49.431,0a79.192,79.192,0,1,0,79.205,79.192A79.2,79.2,0,0,0,49.431,0m0,147.062a67.876,67.876,0,1,1,67.883-67.87,67.88,67.88,0,0,1-67.883,67.87" transform="translate(29.761 0)"/>
      <path id="Path_4272" data-name="Path 4272" d="M24.5,1.078,5.221,41.277l-13.257-9.7c-11.41,23.869-9.885,54.688,17.19,73.633L9.46,90.634C-2.706,80.126-5.726,62.2-2.562,49.435l12.24,9.611L20.8,35.6l.247,68.594,11.309-.29L31.918-.649Z" transform="translate(35.327 21.744)"/>
      <path id="Path_4273" data-name="Path 4273" d="M25.21,20.136,11.94,29.819-7.339-10.393l-7.4-1.73-.436,104.569,11.309.29.247-68.594L7.5,47.588l12.224-9.6c3.164,12.746.16,30.675-12.006,41.2l.306,14.561C35.082,74.807,36.606,43.988,25.21,20.136" transform="translate(105.91 33.303)"/>
      <path id="Path_4274" data-name="Path 4274" d="M10.667.018,5.193-.011l-.1,32.5c-.043,4.124-5.734,4.167-5.705-.2L-.541.032-6.363.048l-.059,40.925L-1.151,47.2l.088,30.343c-.13,3.832,6.692,4.164,6.735,0l-.218-30.4L10.813,41Z" transform="translate(77.077 38.976)"/>
    </g>
  </g>
</svg>
