<svg xmlns="http://www.w3.org/2000/svg" width="422" height="174" viewBox="0 0 422 174">
  <g id="Group_3813" data-name="Group 3813" transform="translate(8239 -10777)">
    <rect id="Rectangle_1874" data-name="Rectangle 1874" width="422" height="174" transform="translate(-8239 10777)" fill="#fff"/>
    <g id="Group_3806" data-name="Group 3806" transform="translate(-8184.169 10817.702)">
      <path id="Path_5486" data-name="Path 5486" d="M0,4.053A5.568,5.568,0,1,0,1.631.115,5.6,5.6,0,0,0,0,4.053m1.01,0A4.559,4.559,0,1,1,2.343,7.281,4.547,4.547,0,0,1,1.01,4.053" transform="translate(93.206 82.741)" fill="#094694"/>
      <path id="Path_5487" data-name="Path 5487" d="M0,2.711H.753V1.245h.856a.858.858,0,0,1,.25.048.347.347,0,0,1,.22.231.987.987,0,0,1,.04.253c0,.217.015.433.037.646a.737.737,0,0,0,.018.154c.015.044.033.084.051.132h.852l-.04-.147a.287.287,0,0,1-.062-.1c-.011-.033-.018-.073-.029-.11a4.222,4.222,0,0,1-.029-.43,3.449,3.449,0,0,0-.026-.437.736.736,0,0,0-.077-.279.557.557,0,0,0-.165-.191A1.282,1.282,0,0,0,2.52.9.853.853,0,0,0,2.946.467a1.318,1.318,0,0,0,.066-.522,1,1,0,0,0-.4-.757,1.121,1.121,0,0,0-.68-.2H0ZM.753-.352h.959a.9.9,0,0,1,.257.044.4.4,0,0,1,.25.316.561.561,0,0,1-.062.415.413.413,0,0,1-.2.154.708.708,0,0,1-.217.04H.753Z" transform="translate(99.248 85.948)" fill="#094694"/>
      <g id="Group_2320" data-name="Group 2320" transform="translate(95.228 84.93)">
        <path id="Path_5489" data-name="Path 5489" d="M1.772,0,1.126,2.751.472,0H-.663V3.725H.053V.826l.687,2.9H1.5l.683-2.9v2.9h.72V0Z" transform="translate(0.663)" fill="#094694"/>
      </g>
      <path id="Path_5490" data-name="Path 5490" d="M0,0A10.889,10.889,0,0,0,8.107,5.679a10.874,10.874,0,0,0,9.352-3.247l10.494,0L27.942,0Z" transform="translate(60.82 66.53)" fill="#094694"/>
      <path id="Path_5491" data-name="Path 5491" d="M3.708,17.961a22.11,22.11,0,0,1,1.032-4.97A19.887,19.887,0,0,1,40.171,6.868a30.424,30.424,0,0,1,2.784,4.885l.007-5.969,0-1.837A10.462,10.462,0,0,0,33.732-6.671c-.5-.037-1-.048-1.495-.04L8.384-6.719A9.637,9.637,0,0,0,2.609-4.5,10.859,10.859,0,0,0-1.38,4.286l-.007,41.863,34.451-.007a10.427,10.427,0,0,0,9.885-10.627l.007-7.21a30.834,30.834,0,0,1-3.721,5.238,19.9,19.9,0,0,1-15,7.284,21.045,21.045,0,0,1-20.6-20.1,18.241,18.241,0,0,1,.073-2.762" transform="translate(45.825 42.579)" fill="#094694"/>
      <path id="Path_5492" data-name="Path 5492" d="M64.46,13.008V6.638A11.537,11.537,0,0,0,55.31-4.668a12.212,12.212,0,0,0-2.1-.191l-64.483-.007A13.253,13.253,0,0,0-20.512-.693a13.277,13.277,0,0,0-3.6,9.477l0,62.172A13.275,13.275,0,0,0-19.957,80.3,13.293,13.293,0,0,0-10.4,83.922L3.375,83.9l.044-42.936A10.749,10.749,0,0,0,.043,33.486a10.763,10.763,0,0,0-7.666-2.939l-.018-17.561Z" transform="translate(24.114 4.866)" fill="#094694"/>
      <path id="Path_5493" data-name="Path 5493" d="M.35,3.053c-.169.209-.331.43-.481.657L18.363,3.7A11.255,11.255,0,0,0,.35,3.053" transform="translate(61.021 53.072)" fill="#094694"/>
      <path id="Path_5494" data-name="Path 5494" d="M15.157,27.844h-2.8A18.047,18.047,0,0,1-5.67,9.82v-2.2A18.048,18.048,0,0,1,12.358-10.416h2.8A18.048,18.048,0,0,1,33.185,7.616v2.2A18.047,18.047,0,0,1,15.157,27.844m-2.8-28.1A7.877,7.877,0,0,0,4.494,7.616v2.2a7.875,7.875,0,0,0,7.864,7.861h2.8A7.873,7.873,0,0,0,23.021,9.82v-2.2A7.874,7.874,0,0,0,15.157-.252Z" transform="translate(193.932 36.616)" fill="#193342"/>
      <path id="Path_5495" data-name="Path 5495" d="M15.157,0h-2.8A18.047,18.047,0,0,0-5.67,18.028v2.2A18.047,18.047,0,0,0,12.354,38.26h2.8A18.053,18.053,0,0,0,32.186,26.138H20.34A7.828,7.828,0,0,1,15.157,28.1h-2.8a7.885,7.885,0,0,1-7.306-4.959h27.9c.154-.951.239-5.109.239-5.109A18.05,18.05,0,0,0,15.157,0M5.092,15.012a7.881,7.881,0,0,1,7.262-4.849h2.8a7.873,7.873,0,0,1,7.262,4.849Z" transform="translate(110.043 26.202)" fill="#193342"/>
      <g id="Group_2328" data-name="Group 2328" transform="translate(229.907 46.433)">
        <path id="Path_5497" data-name="Path 5497" d="M0,.024V-.009Z" transform="translate(0 0.009)" fill="#193342"/>
      </g>
      <path id="Path_5498" data-name="Path 5498" d="M15.157,8.076h-2.8A17.951,17.951,0,0,0,8.046,8.6c-.051.026-.11.055-.191.088C4.835,9.861,4.5,11.176,4.49,11.209V-3.021H-5.67V28.341A18.047,18.047,0,0,0,12.354,46.336h2.8A18.05,18.05,0,0,0,33.185,28.308V26.1A18.05,18.05,0,0,0,15.157,8.076m7.868,20.232a7.877,7.877,0,0,1-7.868,7.864h-2.8A7.876,7.876,0,0,1,4.49,28.308V26.1a7.876,7.876,0,0,1,7.864-7.864h2.8A7.877,7.877,0,0,1,23.025,26.1Z" transform="translate(235.577 18.126)" fill="#193342"/>
      <path id="Path_5499" data-name="Path 5499" d="M28.277,13.12A18.049,18.049,0,0,0,10.253-4.908H7.45A18.047,18.047,0,0,0-10.578,13.12v2.2A18.044,18.044,0,0,0,7.45,33.348h2.8a18.136,18.136,0,0,0,4.309-.518,1.337,1.337,0,0,1,.191-.092c3.052-1.19,3.365-2.523,3.365-2.523v3.133H28.281Zm-10.16,2.2a7.876,7.876,0,0,1-7.864,7.864H7.45A7.873,7.873,0,0,1-.414,15.324v-2.2A7.877,7.877,0,0,1,7.45,5.252h2.8a7.879,7.879,0,0,1,7.864,7.868Z" transform="translate(282.13 31.11)" fill="#193342"/>
      <path id="Path_5500" data-name="Path 5500" d="M15.16,0h-2.8A18.05,18.05,0,0,0-5.671,18.028v2.2A18.05,18.05,0,0,0,12.361,38.26h2.8a17.959,17.959,0,0,0,3.923-.437.371.371,0,0,0,.055-.026,12.376,12.376,0,0,0,3.879-2.233,7.8,7.8,0,0,1-.077.929c-.018.11-.037.217-.055.331l-.331,1.2c-.026.062-.048.129-.073.191a7.882,7.882,0,0,1-7.321,5H6.814v10.16H15.16A18.044,18.044,0,0,0,33.184,35.347V18.028A18.047,18.047,0,0,0,15.16,0m7.864,20.232A7.876,7.876,0,0,1,15.16,28.1h-2.8a7.88,7.88,0,0,1-7.872-7.864v-2.2a7.88,7.88,0,0,1,7.872-7.864h2.8a7.876,7.876,0,0,1,7.864,7.864Z" transform="translate(152.283 26.202)" fill="#193342"/>
      <g id="Group_2333" data-name="Group 2333" transform="translate(188.491 71.041)">
        <path id="Path_5502" data-name="Path 5502" d="M2.053.639H-.768V-.239H5.818V.639H3V8.158H2.053Z" transform="translate(0.768 0.239)" fill="#193342"/>
      </g>
      <path id="Path_5503" data-name="Path 5503" d="M0,0H3.611A4.042,4.042,0,0,1,5,.22a2.687,2.687,0,0,1,1,.621,2.2,2.2,0,0,1,.481.731,2.4,2.4,0,0,1,.169.922V2.52a2.452,2.452,0,0,1-.169.94A2.272,2.272,0,0,1,6,4.18a2.573,2.573,0,0,1-.724.5,3.4,3.4,0,0,1-.915.279L6.942,8.4H5.782L3.346,5.135H.948V8.4H0ZM3.53,4.279A2.963,2.963,0,0,0,4.4,4.162a2.248,2.248,0,0,0,.691-.342,1.648,1.648,0,0,0,.448-.544A1.533,1.533,0,0,0,5.7,2.553V2.531a1.454,1.454,0,0,0-.566-1.219A2.559,2.559,0,0,0,3.541.878H.948v3.4Z" transform="translate(196.868 71.043)" fill="#193342"/>
      <g id="Group_2336" data-name="Group 2336" transform="translate(204.818 70.978)">
        <path id="Path_5505" data-name="Path 5505" d="M2.785,0h.885L7.5,8.459H6.481L5.5,6.237H.927l-1,2.222h-.973Zm2.34,5.389L3.219,1.106,1.294,5.389Z" transform="translate(1.042)" fill="#193342"/>
      </g>
      <g id="Group_2337" data-name="Group 2337" transform="translate(215.015 71.041)">
        <path id="Path_5506" data-name="Path 5506" d="M0,0H.885L6.175,6.726V0H7.1V8.4H6.344L.926,1.513V8.4H0Z" fill="#193342"/>
      </g>
      <path id="Path_5507" data-name="Path 5507" d="M2.5,6.285A4.961,4.961,0,0,1,.655,5.958,5.406,5.406,0,0,1-.935,4.944l.591-.7a5.044,5.044,0,0,0,1.33.9,3.846,3.846,0,0,0,1.546.29,2.141,2.141,0,0,0,1.363-.4,1.251,1.251,0,0,0,.511-1.025V3.985a1.339,1.339,0,0,0-.1-.525,1.079,1.079,0,0,0-.334-.422A2.439,2.439,0,0,0,3.3,2.685a8.606,8.606,0,0,0-1.087-.3,8.772,8.772,0,0,1-1.26-.36,3.175,3.175,0,0,1-.882-.489A1.833,1.833,0,0,1-.439.867a2.216,2.216,0,0,1-.169-.9V-.059a2.056,2.056,0,0,1,.2-.911A2.2,2.2,0,0,1,.167-1.7a2.791,2.791,0,0,1,.882-.478,3.287,3.287,0,0,1,1.1-.176,4.5,4.5,0,0,1,1.613.261A4.863,4.863,0,0,1,5.1-1.319l-.551.735a4.126,4.126,0,0,0-1.183-.7A3.706,3.706,0,0,0,2.125-1.5a2.018,2.018,0,0,0-1.308.389A1.2,1.2,0,0,0,.34-.143v.026A1.421,1.421,0,0,0,.431.415a1.065,1.065,0,0,0,.353.43,2.478,2.478,0,0,0,.694.36,7.93,7.93,0,0,0,1.139.3,4.99,4.99,0,0,1,2.068.867A1.862,1.862,0,0,1,5.353,3.89v.022a2.2,2.2,0,0,1-.217.977,2.228,2.228,0,0,1-.584.749,2.579,2.579,0,0,1-.907.481A3.79,3.79,0,0,1,2.5,6.285" transform="translate(224.882 73.273)" fill="#193342"/>
      <path id="Path_5508" data-name="Path 5508" d="M0,0H3.141A4.287,4.287,0,0,1,4.43.184a2.984,2.984,0,0,1,1,.533,2.283,2.283,0,0,1,.635.83,2.7,2.7,0,0,1,.22,1.113v.029a2.584,2.584,0,0,1-.261,1.19,2.532,2.532,0,0,1-.716.856,3.118,3.118,0,0,1-1.047.525,4.665,4.665,0,0,1-1.275.173H.948V8.4H0ZM3.027,4.58a3.212,3.212,0,0,0,.948-.132,2.279,2.279,0,0,0,.735-.378,1.716,1.716,0,0,0,.466-.58,1.726,1.726,0,0,0,.162-.764V2.7A1.6,1.6,0,0,0,4.72,1.337,2.721,2.721,0,0,0,3.074.878H.948v3.7Z" transform="translate(232.167 71.043)" fill="#193342"/>
      <path id="Path_5509" data-name="Path 5509" d="M3.106,6.319A4.218,4.218,0,0,1,1.361,5.97,4.005,4.005,0,0,1,.013,5.026,4.055,4.055,0,0,1-.857,3.649,4.424,4.424,0,0,1-1.162,2V1.978A4.35,4.35,0,0,1-.85.325,4.25,4.25,0,0,1,.024-1.06a4.232,4.232,0,0,1,3.108-1.3,4.247,4.247,0,0,1,1.748.349,4.119,4.119,0,0,1,1.344.944A4.07,4.07,0,0,1,7.1.306,4.454,4.454,0,0,1,7.4,1.952c.007.011.007.022,0,.026a4.5,4.5,0,0,1-.312,1.653,4.309,4.309,0,0,1-.878,1.392,4.325,4.325,0,0,1-1.355.948,4.313,4.313,0,0,1-1.752.349m.026-.874a3.161,3.161,0,0,0,1.326-.272,3.219,3.219,0,0,0,1.036-.735A3.5,3.5,0,0,0,6.17,3.348,3.6,3.6,0,0,0,6.416,2V1.978A3.666,3.666,0,0,0,6.17.626,3.282,3.282,0,0,0,5.479-.469a3.23,3.23,0,0,0-1.047-.742,3.151,3.151,0,0,0-1.326-.275,3.29,3.29,0,0,0-1.326.268A3.19,3.19,0,0,0,.744-.48,3.372,3.372,0,0,0,.069.608,3.554,3.554,0,0,0-.178,1.952v.026A3.56,3.56,0,0,0,.069,3.326,3.306,3.306,0,0,0,1.8,5.17a3.192,3.192,0,0,0,1.33.275" transform="translate(240.972 73.262)" fill="#193342"/>
      <path id="Path_5510" data-name="Path 5510" d="M0,0H3.611A4.028,4.028,0,0,1,5,.22,2.718,2.718,0,0,1,6,.841a2.193,2.193,0,0,1,.478.731,2.4,2.4,0,0,1,.165.922V2.52a2.453,2.453,0,0,1-.165.94,2.272,2.272,0,0,1-.474.72,2.646,2.646,0,0,1-.727.5,3.332,3.332,0,0,1-.911.279L6.942,8.4H5.782L3.346,5.135H.948V8.4H0ZM3.534,4.279A2.98,2.98,0,0,0,4.4,4.162a2.109,2.109,0,0,0,.68-.342A1.533,1.533,0,0,0,5.7,2.553V2.531a1.46,1.46,0,0,0-.562-1.219A2.567,2.567,0,0,0,3.545.878H.948v3.4Z" transform="translate(250.374 71.043)" fill="#193342"/>
      <g id="Group_2343" data-name="Group 2343" transform="translate(258.447 71.041)">
        <path id="Path_5512" data-name="Path 5512" d="M2.053.639H-.768V-.239H5.818V.639H3V8.158H2.053Z" transform="translate(0.768 0.239)" fill="#193342"/>
      </g>
      <g id="Group_2344" data-name="Group 2344" transform="translate(266.1 70.978)">
        <path id="Path_5513" data-name="Path 5513" d="M2.785,0h.885L7.5,8.459H6.477L5.493,6.237H.923l-1,2.222h-.97ZM5.122,5.389,3.215,1.106,1.3,5.389Z" transform="translate(1.042)" fill="#193342"/>
      </g>
      <path id="Path_5514" data-name="Path 5514" d="M0,0H2.913a5.014,5.014,0,0,1,1.8.316A4.234,4.234,0,0,1,6.131,1.2a4.041,4.041,0,0,1,.922,1.33,4.2,4.2,0,0,1,.323,1.646V4.2a4.251,4.251,0,0,1-.323,1.653,3.967,3.967,0,0,1-.922,1.33,4.258,4.258,0,0,1-1.414.893,4.861,4.861,0,0,1-1.8.323H0ZM2.913,7.523a3.924,3.924,0,0,0,1.44-.253A3.109,3.109,0,0,0,6.145,5.528a3.5,3.5,0,0,0,.246-1.3V4.2a3.476,3.476,0,0,0-.246-1.3,3.2,3.2,0,0,0-.7-1.054,3.239,3.239,0,0,0-1.095-.709A3.924,3.924,0,0,0,2.913.878H.944V7.523Z" transform="translate(276.297 71.043)" fill="#193342"/>
      <path id="Path_5515" data-name="Path 5515" d="M3.106,6.319A4.218,4.218,0,0,1,1.361,5.97,4.005,4.005,0,0,1,.013,5.026,4.055,4.055,0,0,1-.857,3.649,4.424,4.424,0,0,1-1.162,2V1.978A4.422,4.422,0,0,1-.85.325,4.084,4.084,0,0,1,.028-1.06,4.114,4.114,0,0,1,1.38-2.008a4.2,4.2,0,0,1,1.752-.356,4.218,4.218,0,0,1,1.745.349,4.058,4.058,0,0,1,1.348.944A4.136,4.136,0,0,1,7.1.306a4.527,4.527,0,0,1,.3,1.646c.007.011.007.022,0,.026a4.5,4.5,0,0,1-.312,1.653,4.309,4.309,0,0,1-.878,1.392,4.283,4.283,0,0,1-1.355.948,4.313,4.313,0,0,1-1.752.349m.026-.874A3.186,3.186,0,0,0,5.494,4.439a3.5,3.5,0,0,0,.68-1.091A3.6,3.6,0,0,0,6.416,2V1.978A3.664,3.664,0,0,0,6.173.626,3.314,3.314,0,0,0,4.436-1.211a3.167,3.167,0,0,0-1.33-.275,3.3,3.3,0,0,0-1.326.268A3.245,3.245,0,0,0,.741-.48,3.494,3.494,0,0,0,.069.608,3.627,3.627,0,0,0-.178,1.952v.026A3.633,3.633,0,0,0,.069,3.326a3.315,3.315,0,0,0,.691,1.1A3.361,3.361,0,0,0,1.81,5.17a3.146,3.146,0,0,0,1.322.275" transform="translate(286.466 73.262)" fill="#193342"/>
      <path id="Path_5516" data-name="Path 5516" d="M0,0H3.607A4.056,4.056,0,0,1,5,.22,2.717,2.717,0,0,1,6,.841a2.147,2.147,0,0,1,.481.731,2.4,2.4,0,0,1,.165.922V2.52a2.453,2.453,0,0,1-.165.94,2.211,2.211,0,0,1-.474.72,2.646,2.646,0,0,1-.727.5,3.293,3.293,0,0,1-.911.279L6.946,8.4H5.782L3.346,5.135H.948V8.4H0ZM3.534,4.279A2.938,2.938,0,0,0,4.4,4.162a2.111,2.111,0,0,0,.687-.342,1.584,1.584,0,0,0,.455-.544A1.577,1.577,0,0,0,5.7,2.553V2.531a1.47,1.47,0,0,0-.562-1.219A2.559,2.559,0,0,0,3.545.878H.948v3.4Z" transform="translate(295.871 71.043)" fill="#193342"/>
      <g id="Group_2349" data-name="Group 2349" transform="translate(303.827 70.978)">
        <path id="Path_5518" data-name="Path 5518" d="M2.783,0-1.041,8.459h.966l1-2.222H5.494l.981,2.222H7.5L3.668,0Zm.43,1.106L5.119,5.389H1.3Z" transform="translate(1.041)" fill="#193342"/>
      </g>
    </g>
  </g>
</svg>
