<svg id="Group_3793" data-name="Group 3793" xmlns="http://www.w3.org/2000/svg" width="81.505" height="81.505" viewBox="0 0 81.505 81.505">
  <g id="_01_Icons_Line_user-circle" data-name="01) Icons / Line /  user-circle" transform="translate(0 0)">
    <path id="user-circle" d="M40.752,81.5A40.752,40.752,0,1,1,81.5,40.752,40.8,40.8,0,0,1,40.752,81.5Zm-8.3-26.216L15.812,62.854a6.053,6.053,0,0,0-2.56,2.171,36.615,36.615,0,0,0,27.462,12.4H40.8a36.6,36.6,0,0,0,27.45-12.4A6.065,6.065,0,0,0,65.7,62.854L49.064,55.288a20.283,20.283,0,0,1-8.311,1.768h-.026A20.115,20.115,0,0,1,32.45,55.289ZM40.756,16.3A20.375,20.375,0,0,1,53.3,52.739l14.088,6.4a10.133,10.133,0,0,1,3.466,2.586,36.678,36.678,0,1,0-60.188,0,10.059,10.059,0,0,1,3.462-2.589l14.088-6.4A20.377,20.377,0,0,1,40.756,16.3Zm0,4.075a16.3,16.3,0,1,0,16.3,16.3A16.318,16.318,0,0,0,40.752,20.378Z" transform="translate(0 0)" fill="#97999b"/>
  </g>
</svg>
