<svg xmlns="http://www.w3.org/2000/svg" width="9.809" height="9.805" viewBox="0 0 9.809 9.805">
  <path id="Trazado_8355" data-name="Trazado 8355" d="M7.367.014h0a.35.35,0,1,0,0,.7H8.622L2.917,6.42a.35.35,0,1,0,.495.5L9.117,1.21V2.47a.35.35,0,1,0,.7,0V2.465h0V.421a.327.327,0,0,0,0-.057.35.35,0,0,0-.35-.35H7.367Zm-7,2.1a.35.35,0,0,0-.35.35h0v7a.35.35,0,0,0,.35.35h7a.35.35,0,0,0,.35-.35h0V4.18a.35.35,0,0,0-.7,0v.005h0V9.118H.713v-6.3h4.96a.35.35,0,1,0,0-.7H.363Z" transform="translate(-0.013 -0.014)" fill="#53565a"/>
</svg>
