<svg xmlns="http://www.w3.org/2000/svg" width="34.583" height="34.583" viewBox="0 0 34.583 34.583">
  <g id="_01_Icons_Line_user-circle" data-name="01) Icons / Line /  user-circle" transform="translate(-6.917 -6.917)">
    <path id="user-circle" d="M17.292,34.583A17.292,17.292,0,1,1,34.583,17.292,17.311,17.311,0,0,1,17.292,34.583ZM13.769,23.459l-7.06,3.21a2.568,2.568,0,0,0-1.086.921,15.536,15.536,0,0,0,11.653,5.263h.038a15.529,15.529,0,0,0,11.647-5.263,2.574,2.574,0,0,0-1.085-.921l-7.058-3.211a8.606,8.606,0,0,1-3.526.75h-.011A8.535,8.535,0,0,1,13.769,23.459ZM17.293,6.918a8.645,8.645,0,0,1,5.321,15.46l5.978,2.716a4.3,4.3,0,0,1,1.471,1.1,15.563,15.563,0,1,0-25.538,0,4.268,4.268,0,0,1,1.469-1.1l5.978-2.714a8.646,8.646,0,0,1,5.322-15.46Zm0,1.729a6.916,6.916,0,1,0,6.918,6.916A6.924,6.924,0,0,0,17.292,8.647Z" transform="translate(6.917 6.917)" fill="#97999b"/>
  </g>
</svg>
