<svg id="_01_Icons_Line_mail" data-name="01) Icons / Line /  mail" xmlns="http://www.w3.org/2000/svg" width="16.625" height="14.01" viewBox="0 0 16.625 14.01">
  <path id="mail" d="M14.547,14.01H2.078A2.321,2.321,0,0,1,0,11.51V2.5A2.321,2.321,0,0,1,2.078,0H14.547a2.321,2.321,0,0,1,2.078,2.5v9.01A2.321,2.321,0,0,1,14.547,14.01ZM6.447,7.3h0L1.535,12.86a1.075,1.075,0,0,0,.543.15H14.547a1.074,1.074,0,0,0,.543-.15L10.179,7.3l-1.6,1.586a.363.363,0,0,1-.528,0L6.447,7.3Zm9.226-5.446h0l-.03.033L10.825,6.658l4.838,5.477.011.014a1.744,1.744,0,0,0,.119-.64V2.5a1.755,1.755,0,0,0-.121-.647Zm-14.72,0A1.77,1.77,0,0,0,.831,2.5v9.01a1.744,1.744,0,0,0,.119.64l.012-.014L5.8,6.658.982,1.886ZM2.078,1a1.079,1.079,0,0,0-.536.145l6.77,6.707,6.77-6.707A1.072,1.072,0,0,0,14.547,1Z" transform="translate(0)" fill="#53565a"/>
</svg>
