<svg id="noun_play_4052582" xmlns="http://www.w3.org/2000/svg" width="14" height="14" viewBox="0 0 14 14">
  <g id="Grupo_1977" data-name="Grupo 1977">
    <path id="Trazado_302" data-name="Trazado 302" d="M7,0A7,7,0,1,1,0,7,7,7,0,0,1,7,0ZM7,.766A6.234,6.234,0,1,0,13.233,7,6.234,6.234,0,0,0,7,.766Z" transform="translate(0)" fill="#53565a"/>
    <path id="Trazado_303" data-name="Trazado 303" d="M154.075,126.894l-3.954-2.441a.119.119,0,0,0-.181.1v4.883a.119.119,0,0,0,.181.1l3.954-2.441A.119.119,0,0,0,154.075,126.894Z" transform="translate(-144.591 -119.996)" fill="#53565a" fill-rule="evenodd"/>
  </g>
</svg>
