<svg xmlns="http://www.w3.org/2000/svg" width="66" height="64" viewBox="0 0 66 64">
  <g id="Group_3791" data-name="Group 3791" transform="translate(0.036 -0.414)">
    <ellipse id="Ellipse_13" data-name="Ellipse 13" cx="33" cy="32" rx="33" ry="32" transform="translate(-0.036 0.414)" fill="#53565a"/>
    <g id="_01_Icons_Line_user-circle" data-name="01) Icons / Line /  user-circle" transform="translate(16.599 17.037)">
      <path id="user-circle" d="M16.386,32.771A16.386,16.386,0,1,1,32.771,16.386,16.4,16.4,0,0,1,16.386,32.771ZM13.048,22.23l-6.69,3.042a2.434,2.434,0,0,0-1.029.873A14.722,14.722,0,0,0,16.37,31.133h.036a14.716,14.716,0,0,0,11.037-4.988,2.439,2.439,0,0,0-1.028-.873L19.727,22.23a8.155,8.155,0,0,1-3.342.711h-.01A8.088,8.088,0,0,1,13.048,22.23Zm3.34-15.675a8.193,8.193,0,0,1,5.042,14.65l5.664,2.573a4.074,4.074,0,0,1,1.394,1.04,14.747,14.747,0,1,0-24.2,0,4.044,4.044,0,0,1,1.392-1.041l5.664-2.572a8.193,8.193,0,0,1,5.044-14.65Zm0,1.638a6.554,6.554,0,1,0,6.555,6.554A6.561,6.561,0,0,0,16.386,8.194Z" transform="translate(0 0)" fill="#fff"/>
    </g>
  </g>
</svg>
