<svg id="Capa_1" data-name="Capa 1" xmlns="http://www.w3.org/2000/svg" viewBox="0 0 69.17 69.17"><defs><style>.cls-1{fill:#97999b;}</style></defs><path id="user-circle" class="cls-1" d="M43,74.58A34.58,34.58,0,1,1,77.58,40,34.58,34.58,0,0,1,43,74.58ZM36,52.33,21.83,58.75a5.19,5.19,0,0,0-2.17,1.85A31.06,31.06,0,0,0,43,71.12H43A31.06,31.06,0,0,0,66.34,60.6a5.1,5.1,0,0,0-2.17-1.84L50.05,52.33a17,17,0,0,1-7,1.5h0A16.89,16.89,0,0,1,36,52.33Zm7-33.08A17.29,17.29,0,0,1,53.64,50.17l12,5.43a8.49,8.49,0,0,1,2.94,2.2,31.12,31.12,0,1,0-51.07,0,8.45,8.45,0,0,1,2.93-2.2l12-5.43A17.29,17.29,0,0,1,43,19.25Zm0,3.46A13.83,13.83,0,1,0,56.83,36.54,13.83,13.83,0,0,0,43,22.71Z" transform="translate(-8.42 -5.42)"/></svg>