<svg id="Capa_1" data-name="Capa 1" xmlns="http://www.w3.org/2000/svg" viewBox="0 0 154.95 30.69"><defs><style>.cls-1{fill:#ff371f;}.cls-2{fill:#0f3a81;}.cls-3{fill:#131626;}.cls-4{fill:#1053ac;}.cls-5{fill:#1448a6;}</style></defs><g id="Grupo_3647" data-name="Grupo 3647"><path id="Trazado_9261" data-name="Trazado 9261" class="cls-1" d="M41.16,11.13H34L28,23.88h3.49L33,20.66H36l.15,0,.13,0,.12.05.1,0,.07.08.06.07,0,.09v.1l0,.11,0,.14,0,.15-.06.16-.06.19-.09.19-.83,1.77H39l.84-1.77.11-.25.11-.23.09-.23.08-.22.06-.2.05-.2,0-.16,0-.17,0-.16V20l0-.13,0-.1,0-.1-.07-.09-.06-.07-.09-.06-.1-.07-.14-.06-.14,0-.16-.05-.2-.05-.19,0-.22,0,.4-.1.2-.07.19-.06.17-.06.18-.08.16-.07.15-.08.18-.1.19-.11.18-.14.18-.12.16-.15.18-.16.16-.16.16-.19.15-.18.15-.21.17-.2.12-.21.15-.24.14-.23.12-.25.13-.26.39-.82.12-.27.1-.25.1-.26.09-.23.07-.22,0-.21,0-.2,0-.2,0-.19v-.34l0-.13,0-.14,0-.13L43.76,12l-.06-.1-.09-.09-.09-.09-.1-.07-.11-.07-.12-.07L43,11.41l-.15-.05-.18,0-.18-.05-.19,0-.21,0-.23,0-.24,0-.24,0Zm-5,3h2.81l.16,0h.14l.13,0h.11l.08,0,.07,0,0,0,0,0,0,0,0,0,0,0,0,.05v.24l0,.15L39.7,15l-.07.17-.39.83-.12.25L39,16.5l-.12.22-.15.17-.14.16-.16.15-.15.11-.17.1-.13.07-.16.06-.18.05-.2,0-.22,0H37l-.26,0H34.44Z" transform="translate(-28.03 -2.15)"/><path id="Trazado_9262" data-name="Trazado 9262" class="cls-1" d="M46.19,11.13l-6,12.75h9.39l1.32-2.81H45l1.13-2.39h5.42l1.12-2.37H47.27l1.1-2.37h5.79l1.32-2.81Z" transform="translate(-28.03 -2.15)"/><path id="Trazado_9263" data-name="Trazado 9263" class="cls-1" d="M63.35,11.13H56.64l-6,12.75h6.86l.38,0,.35,0,.35,0,.34,0,.26-.05h.07l.31-.06.3-.09.3-.09.29-.1.27-.11.24-.11.26-.14.24-.14.24-.15.22-.17.18-.16.2-.17L62.5,22l.17-.2.2-.21.19-.25.19-.25.2-.26.18-.28.18-.31L64,20l.17-.33.2-.35.19-.35.18-.39.18-.38.64-1.33.17-.38.15-.37.16-.35.13-.33.11-.32.11-.31.09-.28.07-.28.08-.26,0-.24,0-.25,0-.2v-.38l0-.18,0-.15-.05-.17-.08-.16-.1-.15-.11-.15-.15-.12L66,11.68l-.19-.11-.19-.09-.22-.08-.24-.07-.26-.07-.27,0-.3,0-.32,0-.34,0Zm-4.6,3h3.34l.11,0h.11l.08,0,.09,0,.07,0,.08,0,0,.07,0,.05,0,.07,0,.08,0,.08v.3l0,.11,0,.12-.05.13-.15.39-.24.54-.3.66-.61,1.27-.32.68-.29.55-.11.21-.12.19-.1.15-.09.13-.09.11-.09.09-.1.08-.11.09-.1.08-.1.07-.11.06-.11.07-.13,0-.12,0-.13,0h0l-.1,0-.14,0-.14,0-.13,0H55.54Z" transform="translate(-28.03 -2.15)"/><path id="Trazado_9264" data-name="Trazado 9264" class="cls-1" d="M75.43,11.13H69.14l-6,12.75h3.5l1.46-3.14h3.14l.31,0,.32,0,.21,0h.09l.28,0,.26,0,.27,0,.25-.06.23,0,.23-.07.21-.07.2-.07.2-.08.16-.09.2-.12.21-.14.2-.14.22-.16.18-.17.19-.19.2-.2.19-.22.19-.23.18-.26.17-.25.17-.29.18-.28.17-.32.17-.31.16-.33.47-1,.14-.34.14-.3.11-.3.11-.28.09-.27.06-.25.07-.24,0-.23,0-.22v-.37l0-.17,0-.17,0-.14L78.53,12l-.08-.13-.09-.08-.1-.09-.13-.09L78,11.56l-.16-.07-.17-.07-.17-.05-.21,0-.21-.05-.25,0-.25,0-.27,0-.28,0-.3,0Zm-4.2,3h2.51l.19,0h.17l.15,0,.13,0,.1,0,.07,0,0,.06v0l0,.05v.34l0,.14,0,.17-.07.2-.1.2-.44,1-.11.22-.12.2-.13.19-.12.15-.14.15-.15.11-.15.1-.15.07-.11,0-.14,0-.15,0-.16,0h-.43l-.49,0H69.5Z" transform="translate(-28.03 -2.15)"/><path id="Trazado_9265" data-name="Trazado 9265" class="cls-1" d="M83.46,11.13l-1.11,1.34L72.88,23.88h3.57l1.75-2.14H83l-.41,2.14H86.3l2.48-12.75Zm-1.11,5.63,2.17-2.61-1,5.23H80.18Z" transform="translate(-28.03 -2.15)"/><path id="Trazado_9266" data-name="Trazado 9266" class="cls-1" d="M97.53,11l-.42,0-.4,0-.4,0-.39,0-.36.05-.35.05-.35.08-.31.07-.31.09-.29.08-.29.1-.26.12-.25.11-.24.14-.21.13-.22.17-.23.17-.21.2-.23.2-.2.24-.22.23-.21.28-.21.29-.21.3-.22.31-.21.35-.21.36-.2.37-.23.4-.2.42-.21.43-.61,1.3-.2.44-.19.41-.16.4-.14.38-.12.36-.12.33-.08.33-.08.3,0,.29,0,.27,0,.24v.23l0,.2,0,.2,0,.18,0,.07,0,.08,0,.07,0,.07.13.13.12.12.15.11.19.1.21.1.24.09.25.06.26.07.3.05.33.06.33,0,.36,0,.4,0h1.56l.35,0,.33,0,.33-.06.3,0,.32-.05.28-.07.28-.05.27-.07.25-.09.25-.09.23-.1.22-.1.23-.11.18-.12.22-.14.21-.16.2-.16.2-.19.19-.19.2-.22.19-.23L98,21.5l.19-.27.17-.26.18-.3.18-.3.17-.3.17-.34.16-.33.17-.37h-3.5l-.14.3-.14.28-.15.25-.13.21-.14.19-.14.16-.15.14-.15.11-.15.09-.17.07-.19.06-.23.05-.23,0-.26,0h-.94l-.16,0h-.15l-.14,0L92,21l-.11,0-.11-.05-.09-.05-.07,0-.07-.05,0-.08,0-.07,0-.06v-.3l0-.18.06-.21.07-.25.12-.29.13-.34.17-.36.18-.41.62-1.31.2-.41.19-.36.17-.34.16-.29.15-.25.14-.21.13-.16.12-.14.09-.09.1-.08.1-.07.11-.07.11-.08.13-.05.13-.05.14,0,.14-.05.14,0,.15,0,.16,0,.17,0,.16,0h.65l.25,0H97l.2,0,.17,0,.12.05.11.07,0,0,0,0,0,0,0,0,0,.06v.05l0,.07v.25l-.05.2-.07.22-.1.24-.11.26h3.5l0,0,.15-.34.14-.32.12-.32.11-.3.1-.28.07-.28,0-.26,0-.24,0-.22V12.7l0-.2,0-.17,0-.15-.08-.15-.08-.13-.1-.1-.1-.12-.13-.08-.15-.1-.15-.08-.19-.08-.19-.06-.21-.06-.22,0-.26,0-.26,0-.28,0L99,11l-.32,0H97.53Z" transform="translate(-28.03 -2.15)"/><path id="Trazado_9267" data-name="Trazado 9267" class="cls-1" d="M104,11.13,98,23.88h3.52l6-12.75Z" transform="translate(-28.03 -2.15)"/><path id="Trazado_9268" data-name="Trazado 9268" class="cls-2" d="M111.8,11.17l-7.19,6-.18.38-.12.26.18.6,1.63,5.47h3.47l-1.87-5.78,8-7Z" transform="translate(-28.03 -2.15)"/><path id="Trazado_9269" data-name="Trazado 9269" class="cls-2" d="M114.13,21.23l-.12,0h-.1l-.12,0-.11,0-.11,0-.1.06-.09.08-.08.07-.08.09-.07.09-.05.1L113,22l0,.11,0,.12,0,.12v.25l0,.1,0,.14,0,.1.06.11.05.09.07.09.08.1.08.08.09.05.1.07.11.05.11,0,.12,0,.1,0h.25l.12,0,.11,0,.1,0,.11-.05.09-.07.1-.05.08-.08.08-.1.06-.09.07-.09,0-.11,0-.1,0-.14v-.47l0-.12,0-.11,0-.11-.07-.09-.06-.09-.08-.09-.08-.07-.1-.08-.09-.06-.11,0-.1,0-.11,0h-.12l-.12,0Zm0,.19h.2l.09,0,.08,0,.08,0,.08.06.07.07.08.05.07.08,0,.08,0,.08,0,.09,0,.09,0,.1v.4l0,.11,0,.09,0,.08,0,.09,0,.07-.07.07-.08.08-.07.05-.08.05-.07,0-.08,0h-.1l-.1,0-.1,0h0l-.09,0h-.17l-.1,0-.09,0-.08-.06-.07-.06-.07-.07,0-.07-.07-.07,0-.08,0-.1,0-.09,0-.1v-.4l0-.1,0-.09,0-.09,0-.08.06-.08.06-.08.07-.05.07-.07.08-.06.09,0,.08,0,.1,0h.19Zm0,.34h-.07l-.2,0h-.17v1.34h.22v-.59h.15l.06,0h.09l.05,0,0,0,0,0,0,.06,0,.05,0,.23v.06l0,.06h.22v0l0-.07,0-.09,0-.13v-.07l0-.07,0-.05v0l0-.05,0,0,0,0h0v0h0l0,0,.06,0,0,0,0,0,0-.06,0-.05v-.07l0-.09V22l0-.07-.05,0-.07,0-.09,0-.12,0Zm0,.16.07,0h.07l0,0,0,0v0l0,.05v0l0,.05v.06l0,0,0,0,0,0h0l-.07,0h-.22v-.46h.23Z" transform="translate(-28.03 -2.15)"/></g><g id="Grupo_3645" data-name="Grupo 3645"><g id="Grupo_3644" data-name="Grupo 3644"><path id="Trazado_9247" data-name="Trazado 9247" class="cls-3" d="M182.38,14.48a.2.2,0,0,0,.13-.2c0-.16-.11-.21-.25-.21H182v.69h.12v-.27h.11l.14.27h.14Zm-.13-.08h-.1v-.23h.1c.09,0,.14,0,.14.11s0,.12-.14.12" transform="translate(-28.03 -2.15)"/><path id="Trazado_9248" data-name="Trazado 9248" class="cls-3" d="M182.28,13.73a.69.69,0,1,0,.69.69.69.69,0,0,0-.69-.69m0,1.25a.56.56,0,0,1,0-1.12.56.56,0,1,1,0,1.12" transform="translate(-28.03 -2.15)"/><path id="Trazado_9249" data-name="Trazado 9249" class="cls-4" d="M170.57,21.23l-2,4.12h2v1.48h-2.66l-1.23,2.85h.69v.91H163.2V29.44c1.4-.25,1.67-1.1,1.72-1.33l4.48-8.47h-.83v-.75h2Z" transform="translate(-28.03 -2.15)"/><path id="Trazado_9250" data-name="Trazado 9250" class="cls-5" d="M174.39,24.83h0V23.32h0Z" transform="translate(-28.03 -2.15)"/><path id="Trazado_9251" data-name="Trazado 9251" class="cls-5" d="M174.39,19.69h0v-.84h0Z" transform="translate(-28.03 -2.15)"/><path id="Trazado_9252" data-name="Trazado 9252" class="cls-4" d="M180.77,29.91a2.69,2.69,0,0,1-1.59.68H175l0,0a2.39,2.39,0,0,1-.14-.79v-.5c.81,0,2.1,0,2.89-.12a1.69,1.69,0,0,0,1.52-1,2.85,2.85,0,0,0,0-2.13,2.47,2.47,0,0,0-2-1.21,10.54,10.54,0,0,0-1.14,0l-1.24,0V23.43h.62a6.53,6.53,0,0,0,1.65-.13,1.78,1.78,0,0,0,1.15-2.24v0a1.74,1.74,0,0,0-1.59-1.37c-.19,0-.5,0-.94,0h-.88v-.74h3.14a2.31,2.31,0,0,1,1.48.79,2.87,2.87,0,0,1,.56,2,2.3,2.3,0,0,1-.84,1.64l-.7.54.88-.1h.13a2.51,2.51,0,0,1,2.06,1.12,3.88,3.88,0,0,1-.75,5" transform="translate(-28.03 -2.15)"/><path id="Trazado_9253" data-name="Trazado 9253" class="cls-5" d="M174.39,24.83h0V23.32h0Z" transform="translate(-28.03 -2.15)"/><path id="Trazado_9254" data-name="Trazado 9254" class="cls-5" d="M174.39,19.69h0v-.84h0Z" transform="translate(-28.03 -2.15)"/><path id="Trazado_9255" data-name="Trazado 9255" class="cls-3" d="M181.85,24.65a3,3,0,0,0-2.15-1.28,2.81,2.81,0,0,0,.69-1.63,3.24,3.24,0,0,0-.66-2.33,2.69,2.69,0,0,0-1.78-.93H174.8V16.09a1.94,1.94,0,0,1,1.45-.5h.17a3.52,3.52,0,0,1,3.23,1.91l.1.25h1.34v-4H164.33v4h1.5l.12-.21c.82-1.47,1.26-1.79,2.77-2a3.27,3.27,0,0,1,.44,0,1.48,1.48,0,0,1,1.4.68v2.3h-2.4V20h.56l-4.16,7.88,0,0,0,.06c0,.18-.26.8-1.4,1l-.33.06V31h5V29.27h-.48l.88-2h2.39v3.27a2.13,2.13,0,0,1-1.23,1.09l-.26.1v1.15h7.52V31.74l-.33-.07a1.8,1.8,0,0,1-1.09-.67h4a3.14,3.14,0,0,0,1.81-.79,4.43,4.43,0,0,0,1.47-2.84,4,4,0,0,0-.66-2.72m-13.94,2.18-1.23,2.86h.69v.9H163.2V29.44c1.4-.25,1.67-1.1,1.72-1.33l4.48-8.47h-.83v-.75h2v2.34l-2,4.11h2v1.49Zm2.66-4.68v2.78H169.2Zm5.61,9.92v.37h-6.7V32A2.5,2.5,0,0,0,171,30.61V16.06a1.83,1.83,0,0,0-1.8-1,4.19,4.19,0,0,0-.5,0c-1.63.23-2.18.61-3.07,2.2h-.85v-3.2h15.94v3.2H180a3.93,3.93,0,0,0-3.57-2.15h-.21a2.19,2.19,0,0,0-1.8.71l-.05.07V29.75a2.63,2.63,0,0,0,.13.84s0,.08,0,.12l0,.09.07.16,0,0,.06.09a2.08,2.08,0,0,0,1.43,1M174.8,20h.88c.52,0,.77,0,.9,0a1.33,1.33,0,0,1,1.23,1c.24,1.27-.43,1.68-.86,1.8a5.62,5.62,0,0,1-1.53.12h-.62Zm0,5.12H176c.62,0,.94,0,1.1,0a2,2,0,0,1,1.68,1,2.43,2.43,0,0,1,0,1.8,1.26,1.26,0,0,1-1.19.78c-.77.09-2,.11-2.84.12Zm6,4.75a2.69,2.69,0,0,1-1.59.68H175l0,0a2.39,2.39,0,0,1-.14-.79v-.5c.81,0,2.09,0,2.88-.12a1.7,1.7,0,0,0,1.53-1,2.85,2.85,0,0,0,0-2.13,2.47,2.47,0,0,0-2-1.21,10.54,10.54,0,0,0-1.14,0l-1.24,0V23.43h.62a6.53,6.53,0,0,0,1.65-.13,1.78,1.78,0,0,0,1.15-2.24v0a1.73,1.73,0,0,0-1.59-1.37c-.19,0-.5,0-.94,0h-.88v-.74h3.14a2.31,2.31,0,0,1,1.48.79,2.87,2.87,0,0,1,.56,2,2.3,2.3,0,0,1-.84,1.64l-.7.54.88-.1h.13a2.51,2.51,0,0,1,2.06,1.12,3.88,3.88,0,0,1-.75,5" transform="translate(-28.03 -2.15)"/><path id="Trazado_9256" data-name="Trazado 9256" class="cls-4" d="M180.68,14.14v3.2H180a3.91,3.91,0,0,0-3.56-2.15h-.21a2.17,2.17,0,0,0-1.81.72l-.05.06v2.93h0v.75h0v3.77h0v1.35h0v5a2.63,2.63,0,0,0,.13.84s0,.08,0,.12l0,.09.07.16,0,0,.06.09a2.08,2.08,0,0,0,1.43,1v.37h-6.7V32A2.5,2.5,0,0,0,171,30.61V16.05a1.84,1.84,0,0,0-1.8-1,4.19,4.19,0,0,0-.5,0c-1.63.23-2.18.61-3.07,2.2h-.85V14.14Z" transform="translate(-28.03 -2.15)"/><path id="Trazado_9257" data-name="Trazado 9257" class="cls-5" d="M177.82,12.62H177a2.22,2.22,0,0,0-.67-1l-.07,0-.07,0c-.09,0-.24,0-.3,0a.28.28,0,0,1,0-.22l0-.21-.21,0a.63.63,0,0,0-.4.23.32.32,0,0,1,0-.41,2,2,0,0,0,.71-.68s.2-.21.31,0l.15.39c.07.15.15.32.25.5a4.51,4.51,0,0,0,1.12,1.41" transform="translate(-28.03 -2.15)"/><path id="Trazado_9258" data-name="Trazado 9258" class="cls-4" d="M180.57,6.69a.76.76,0,0,0-.11-.32l-.11-.14,0,0,0,0,0,0,0,0,0,0a1.13,1.13,0,0,1-.12-.21,2,2,0,0,1-.07-.23s0-.07,0-.11V5.27l0,0,0,0,0,0h0l0,0-.06,0,0,0-.05,0-.11,0h-.1a.35.35,0,0,0-.11,0h-1.07a.92.92,0,0,1,.23-.09l.06,0h.09V4.65s0,0,0-.06h-.12l-.26.11,0-.27a1.23,1.23,0,0,0,0-.19V4.16a.24.24,0,0,0,0-.08h0l0,0h0l-.2.17-.06-.25-.05-.17,0-.07a.13.13,0,0,0,0,0v0l0,0h0l-.13.22-.14-.2-.07-.1-.06-.1-.07-.09-.07-.09-.08-.09-.08-.08a.6.6,0,0,0-.08-.08l-.08-.08-.08-.07,0,0,0,0-.09,0,0,0h-.05l-.08,0h-.08l-.07,0h0l-.08.12-.15-.16-.15-.13-.15-.14a.57.57,0,0,0-.13-.08v.09l-.07.25-.2-.18,0,0,0,0-.08-.06L175,2.53l-.09,0,.13.36-.37-.2a.3.3,0,0,0-.16-.05.32.32,0,0,0-.17,0l-.21.07-.11,0-.1,0-.11.05-.11,0-.21.09-.43.19H173l-.05,0,0,0,0,0h0l-.15.12h0s0,0-.05,0l-.1.11-.09.13,0,.07,0,0,0,0,0,0,0,0-3.07,2.3,0,0H169l-.11,0-.24.06a1.19,1.19,0,0,0-.25.13s-.16.13-.34.25l-.2.22a3.13,3.13,0,0,0-.29.42,5.82,5.82,0,0,0-.42,1l0,.13a.14.14,0,0,0,0,.06l0,.08a2,2,0,0,1-.11.26,3,3,0,0,1-.31.48,3,3,0,0,1-.38.42,3.73,3.73,0,0,1-.43.36l-.11.09-.11.07-.1.08a.39.39,0,0,1-.1.08,2.3,2.3,0,0,0-.32.38,1.91,1.91,0,0,0-.23.45,1.82,1.82,0,0,0-.07.25,1.83,1.83,0,0,0-.06.25,4.38,4.38,0,0,0,0,.52c0,.13,0,.25,0,.38h.56a1,1,0,0,1,0-.17,1.76,1.76,0,0,1,0-.4,1.62,1.62,0,0,1,.22-.76,1.72,1.72,0,0,1,.23-.32,2.35,2.35,0,0,1,.29-.26l.16-.11.17-.09.32-.18c.21-.12.42-.23.62-.36l.3-.2.28-.22a2.57,2.57,0,0,0,.48-.51c.07-.1.13-.2.19-.3s.1-.22.14-.33a.78.78,0,0,1,0,.37.9.9,0,0,1-.11.27.25.25,0,0,1,0,.07.34.34,0,0,0,0,.26.58.58,0,0,0,.22.22l.21.1-.17.16a3.37,3.37,0,0,1-.81.59,4.82,4.82,0,0,0,0,2.17h.7a2.85,2.85,0,0,1-.28-.55,1.31,1.31,0,0,1,.23-1.53l0,0h0a3.35,3.35,0,0,0,1-.55.24.24,0,0,0,0-.34c-.18-.1-.38-.25-.4-.25a7.38,7.38,0,0,0,.94.16,9.18,9.18,0,0,0,2.16,0c.25,0,.21-.15.21-.15h-.13l0,0,0,0a.05.05,0,0,1,0,0l0,0a.23.23,0,0,1-.07-.07.22.22,0,0,1-.05-.08l0,0,0-.05V9s0,0,0,0V8.77h-.37l-.06,0-.06-.05,0-.06v0l0,0s0,0,0-.06,0,0,0-.05v0a.31.31,0,0,1,0-.1s0,0,0-.06l-.15,0-.06,0a.12.12,0,0,1-.05-.05l0,0s0,0,0,0l0-.06a.58.58,0,0,1,0-.23,1.29,1.29,0,0,1,0-.19l.08-.17.1-.15.06-.07.07-.07v0h0l0,0,.06,0,.05,0,.05-.06,0-.06.05-.07a.43.43,0,0,0,0-.07l0-.06a1.09,1.09,0,0,0,.08-.15.16.16,0,0,0,0-.07.25.25,0,0,0,0-.07l.15-.3,0,.16,0,.17a.24.24,0,0,0,0,.08l0,.08-.06.16-.07.16a.25.25,0,0,1,0,.07s0,0,0,.08l-.05.07-.06.08-.06.07h0v0a.44.44,0,0,0-.08.11l-.07.13a.78.78,0,0,0-.05.14.59.59,0,0,0,0,.13.16.16,0,0,0,0,.1s0,0,0,0h.1l.13,0,.33-.08-.15.3v.06l0,.05s0,0,0,.06,0,0,0,.06v.07h.28l.07,0h0l.31-.11-.1.31v.05a.43.43,0,0,1,0,0,.43.43,0,0,0,0,.11V9a0,0,0,0,0,0,0V9l0,0h.26l.1,0h.4l0,0s0,0,0,0l.06,0a.1.1,0,0,0,.05,0l0,0,.05,0,.07,0,.09-.11.39-.39-.12.54v0l0,0,0,.06,0,.06,0,.06,0,0,0,.05,0,.06,0,0-.09.1,0,.05-.05,0a.41.41,0,0,1-.1.09l-.1.09-.1.08-.11.07-.1.07-.12.06-.05,0-.06,0-.12.06-.06,0,.4.61.07,0,.19-.14.18-.15.18-.16.17-.16.08-.09.09-.08.15-.18c.06-.06.1-.12.15-.18l0-.05,0,0a.86.86,0,0,0,.07-.1l.06-.1a.36.36,0,0,0,.07-.1l0-.05,0,0,.06-.1c0-.06.07-.13.11-.2a2.14,2.14,0,0,1,.1-.22l0-.1,0-.06,0-.05,0-.11,0-.11,0-.06V8h0V8h-.06l0,0-.05,0,0,0h-.05l-.1,0-.1,0-.05,0h-.06l-.1,0-.12,0h-.79l.11,0,.11,0,.11,0,.12,0H174l.12,0h.67l.06,0h.06l.06,0,.06,0,.07,0h0l0,0,0,0,0,0,0,0,0,0,0,0,0,0v0h0l0,0,0,0,0,.13,0,.06v.06l0,.12,0,.12,0,.06,0,.06-.05.12-.11.22-.11.23-.07.1,0,.06,0,0-.07.11-.07.1a.86.86,0,0,0-.07.1l0,0,0,.05-.16.2-.17.18-.08.09-.09.09-.18.17-.05,0s-.07.14.09.14h0a.67.67,0,0,0,.36-.14l.6-.58-.43.94a1.94,1.94,0,0,0,.58-.36l.27-.25v.43a1.6,1.6,0,0,0,.5-.47,1.37,1.37,0,0,0,.15-.21l0-.07,0-.08a.25.25,0,0,1,0-.07.6.6,0,0,1,.09-.13l.14-.12.16-.07.16,0a1.22,1.22,0,0,1,.33,0l.15,0h0l0,0,.07,0a.71.71,0,0,1,.14.1.76.76,0,0,1,.11.14.64.64,0,0,1,.1.33v.08l.1,0,.05,0,0,0,.19-.09,0,.2a.59.59,0,0,1,0,.19l0,.12.09-.05.2-.1v.46l.1-.07a.1.1,0,0,0,.06-.05l.06,0,0-.06.05-.06a1.38,1.38,0,0,0,.14-.27l0-.15a.22.22,0,0,0,0-.08V9.88H179l.19,0,.17,0h0l0,0h0l.14-.06h.13l.12,0,.13,0,.05,0,0,0,0,0v0l0,0s0,0,0-.05,0,0,0-.06V9.12h0l.06-.86,0-.07h0s0,0,0,0,0-.06,0-.09a1.16,1.16,0,0,0,0-.18V7.49a.19.19,0,0,1,0-.07.92.92,0,0,1,.09-.23l0-.05h0v0l0,0s0,0,0,0a.8.8,0,0,0,.07-.34m-1.06-1.48-.14.16-.1.1-.11.1-.06.06-.07.06-.06.06,0,0,0,0-.06.1a.28.28,0,0,0,0,.09,1,1,0,0,0,0,.16l.06.07h0l.06,0h.24l.09,0-.18,0,0,0H179l0,0,0,0,0,0,0,0,0,0,0,0,0,0,0,0,0,0h-.39l0,0,0,0,0,0,0,0,0,0,0,0,0,0,0,0v-.1s0,0,0-.06l0,0,0-.05,0,0a.08.08,0,0,1,0,0l0,0h0a2,2,0,0,1,0-.24v-.2a.79.79,0,0,1,.06-.22.57.57,0,0,1,.13-.21.8.8,0,0,1,.19-.13l0,0,0,0,.08,0,.08,0,.07,0,.14-.06.13,0,.18-.1.07,0s0,0-.05.06" transform="translate(-28.03 -2.15)"/><path id="Trazado_9259" data-name="Trazado 9259" class="cls-3" d="M178.91,5.8l0,0,0,0,.07-.06.06-.06s0,0,.06-.06l.12-.1.1-.1.14-.16s.05-.06.05-.07l-.07,0-.18.1-.13.06L179,5.4l-.08,0-.08,0-.08,0h0l-.05,0a.67.67,0,0,0-.19.14.66.66,0,0,0-.14.2,1.55,1.55,0,0,0,0,.23.61.61,0,0,0,0,.19,2,2,0,0,0,0,.24h0l0,0,0,0s0,0,0,0l0,0,0,.05a.07.07,0,0,1,0,0v.1l0,0a.08.08,0,0,1,0,0l0,0,0,0,0,0,0,0,0,0,0,0h.39l0,0,0,0s0,0,0,0l0,0s0,0,0,0,0,0,0,0l0,0,0,0,0,0h0l0,0h.08l.18,0-.09,0H179l-.05,0h0l-.05-.08a.3.3,0,0,1,0-.16.14.14,0,0,1,0-.09.27.27,0,0,1,.06-.1m-.19.63h0" transform="translate(-28.03 -2.15)"/><path id="Trazado_9260" data-name="Trazado 9260" class="cls-3" d="M180.85,6l0,0,0,0,0,0,0,0h-.12a.08.08,0,0,1,0,0l0,0,0,0,0,0h0l0,0a.44.44,0,0,1-.08-.15.49.49,0,0,1-.05-.16.29.29,0,0,1,0-.09V5.14l-.05,0,0,0h0l0,0-.06,0,0,0H180l-.07,0-.06,0-.06,0-.06,0-.12,0H179v0a.76.76,0,0,0,0-.15.49.49,0,0,0-.06-.17.3.3,0,0,0-.08-.08.21.21,0,0,0-.1-.06l-.11,0h0a.57.57,0,0,0,0-.13.59.59,0,0,0,0-.13.3.3,0,0,0,0-.08.16.16,0,0,0-.06-.08.24.24,0,0,0-.11-.06h-.12l-.07,0h0a.47.47,0,0,0,0-.1.47.47,0,0,0-.07-.12l-.06,0a.24.24,0,0,0-.1,0,.24.24,0,0,0-.12,0l-.09,0,0,0,0,0-.07-.1-.08-.1-.08-.1-.08-.09a.76.76,0,0,0-.09-.09l-.1-.09a.39.39,0,0,0-.1-.08.1.1,0,0,0,0,0l-.06,0-.11-.07-.07,0-.07,0-.14,0h-.16l-.16.05-.06-.08-.2-.17-.22-.14-.12,0-.07,0h-.07l-.1.18a1,1,0,0,0-.23-.11,1.05,1.05,0,0,0-.24-.06l-.13,0h-.14l-.32,0,.1.11-.12,0-.24.08-.11,0-.11,0-.11,0-.11,0-.21.09-.22.09-.18.08h0l-.09,0a.4.4,0,0,0-.16.08.43.43,0,0,0-.11.12l0,.06-.05,0-.1.07-.14.15a1.63,1.63,0,0,0-.11.17.56.56,0,0,0-.05.08l0,0h0l-3,2.24H169l-.15,0-.29.08a2.58,2.58,0,0,0-.51.29l-.17.15-.06,0,0,0c-.3.36-.74.76-1,.67a.31.31,0,0,1-.1-.13.76.76,0,0,0-.9-.4c-.26-.09-.75-.16-1,.55a.84.84,0,0,0,1.08-.29.5.5,0,0,1,.62.29.49.49,0,0,0,.25.24.55.55,0,0,0,.36,0,.52.52,0,0,0,.16-.06,6.25,6.25,0,0,0-.33.81l0,.14s0,0,0,.06l0,.06a2.29,2.29,0,0,1-.1.23,2.44,2.44,0,0,1-.28.43,3.07,3.07,0,0,1-.34.38,4.23,4.23,0,0,1-.4.34l-.11.08-.11.08-.12.08a.52.52,0,0,1-.11.1,2.67,2.67,0,0,0-.38.44,3.06,3.06,0,0,0-.26.51c0,.09-.06.19-.08.28l-.06.28c0,.18,0,.37,0,.55s0,.37,0,.55v.16h1.33l-.09-.22v-.07a.24.24,0,0,1,0-.08,1,1,0,0,1,0-.17,3.25,3.25,0,0,1,0-.33,1.51,1.51,0,0,1,.17-.62,1.85,1.85,0,0,1,.19-.27l.12-.12a.69.69,0,0,1,.13-.11.71.71,0,0,1,.14-.1.67.67,0,0,1,.14-.09l.32-.19a5.93,5.93,0,0,0,.62-.4,5.09,5.09,0,0,0,.58-.46,1.8,1.8,0,0,0,.19-.2,1.26,1.26,0,0,0,.19.25,2.07,2.07,0,0,1-.58.4h0c-.16.09-.37.55-.08,2.61l0,.14h1.61l-.21-.26s-1-1.18-.29-1.88c.24-.08,1.26-.46,1.4-1a7.48,7.48,0,0,0,1.33.12,6.37,6.37,0,0,0,1-.07l-.1,0-.1.06-.18.07.1.16.59.9.08.13.13-.08.11-.07.1-.07.07-.05a1.28,1.28,0,0,0,.7.05l-.16.35.28,0a1.78,1.78,0,0,0,.77-.3.87.87,0,0,0,.46.83l.2.13,0-.24a.13.13,0,0,1,0-.1.36.36,0,0,0,.13.23.6.6,0,0,0,.52.09,2.2,2.2,0,0,1,.52.9l0,.11h2.18l-.54-.29a6.47,6.47,0,0,1-2.05-2.86l.06,0a.38.38,0,0,1,.1,0,1,1,0,0,1,.24,0l.11,0h0l.05,0,.09.06a.47.47,0,0,1,.06.09.48.48,0,0,1,.07.2v.11a.09.09,0,0,1,0,.05,0,0,0,0,0,0,0v0l-.08.27.25-.08.12,0,.1,0h0a.69.69,0,0,1,0,.13l0,.06v0l0,0-.19.34.36-.13.11,0,.11,0h0v0a.49.49,0,0,0,0,.12.13.13,0,0,0,0,.06v0h0a0,0,0,0,0,0,0l.05.15.14-.06.09,0,.08,0a.91.91,0,0,0,.16-.11l.08-.06.07-.07a.46.46,0,0,1,.07-.07l.06-.08a1.42,1.42,0,0,0,.17-.35,1.05,1.05,0,0,0,.05-.19.13.13,0,0,1,0-.06H179l.21,0,.22-.05.06,0,.06,0,0,0,0,0h.11l.17,0,.18-.06.08-.05.08-.06.06-.07,0-.05a.05.05,0,0,0,0,0,.36.36,0,0,0,0-.09.32.32,0,0,0,0-.09s0-.06,0-.09V9.12l.05-.83,0,0,0-.06,0-.12a1.43,1.43,0,0,0,0-.22,1.62,1.62,0,0,0,0-.22V7.48a.47.47,0,0,1,.06-.15l0,0h0v0l0-.06,0-.06a1,1,0,0,0,.08-.47,1,1,0,0,0-.11-.39h0l0,0s0,0,0-.05a.08.08,0,0,0,0,0l0,0s0,0,0,0,0,0,0,0V5.93h0m-4.4,4.76a4.43,4.43,0,0,0,.24.5,4.47,4.47,0,0,0,1.13,1.42H177a2.22,2.22,0,0,0-.67-1l-.07,0-.07,0c-.09,0-.24,0-.3,0s0-.11,0-.22l0-.21-.21,0a.66.66,0,0,0-.4.23.32.32,0,0,1,0-.41,2.1,2.1,0,0,0,.71-.68s.2-.21.3,0,.09.24.16.39m4-3.68s0,0,0,0l0,0v0h0l0,.05a1.09,1.09,0,0,0-.09.23s0,0,0,.07a.11.11,0,0,0,0,.08v.09c0,.06,0,.13,0,.19a1.16,1.16,0,0,1,0,.18.29.29,0,0,1,0,.09s0,0,0,0h0l0,.07-.06.87h0v.23s0,0,0,0a.43.43,0,0,1,0,0l0,.05a0,0,0,0,1,0,0l0,0,0,0,0,0,0,0-.11,0-.13,0h-.13l-.13.06h-.06l0,0-.17,0-.19,0h-.34v.22a.17.17,0,0,1,0,.07l0,.15a1.47,1.47,0,0,1-.14.28l0,.06-.05.05-.06.06-.06.05-.1.06h0v-.44l-.2.1-.1,0,0-.11a.41.41,0,0,0,0-.19l0-.2-.18.08,0,0-.05,0-.09,0v-.08a.81.81,0,0,0-.11-.33.69.69,0,0,0-.11-.13l-.13-.1-.07,0,0,0H177l-.16,0a1.13,1.13,0,0,0-.32,0l-.17,0-.16.08a.69.69,0,0,0-.13.11.71.71,0,0,0-.1.14.16.16,0,0,0,0,.07.21.21,0,0,0,0,.07l0,.08-.15.21a1.87,1.87,0,0,1-.51.46v-.43l-.26.26a2,2,0,0,1-.59.35l.44-.93-.6.58a.7.7,0,0,1-.36.14h0c-.16,0-.12-.1-.09-.14l0,0,.18-.17.09-.09.09-.09.16-.19c.06-.06.11-.13.16-.19l0,0,0-.05.07-.1.07-.1.07-.11,0,0,0-.05.07-.11.12-.22c0-.08.07-.15.1-.23l.05-.12,0-.06,0-.06,0-.11,0-.13,0-.06V8.09l0-.12,0,0,0,0h0v0l0,0,0,0,0,0,0,0,0,0,0,0h0l-.06,0-.06,0-.06,0h-.79l-.12,0h-.12l-.11,0a.35.35,0,0,0-.11,0l-.11,0-.12,0h.91l.11,0h.11l.1,0,.1,0h.05l0,0,.05,0,0,0h0V8h0V8l0,.05,0,.06,0,.11,0,.11,0,.05,0,.06a.76.76,0,0,1,0,.11,2,2,0,0,1-.1.21l-.11.21-.06.1,0,.05,0,0-.07.1-.06.1-.07.09,0,0,0,.05-.15.18-.16.18-.08.08-.08.09a1.29,1.29,0,0,0-.17.16l-.18.15-.19.15-.18.15-.07,0-.4-.61.06,0,.11,0,.06,0,.06,0,.11-.06.11-.07.1-.08.1-.07.1-.09.1-.09,0,0,0-.05a.81.81,0,0,0,.09-.1l0,0,0-.06,0-.05,0-.06,0-.05,0-.06,0-.07v0l0,0,.11-.53-.39.39-.09.11,0,.05-.05,0-.05.05,0,0-.06,0-.05,0h-.06l-.06,0h-.32l-.1,0h-.19s0,0,0,0h0l0,0V9s0,0,0,0h0V8.8s0-.07,0-.11,0,0,0,0V8.59l.11-.32-.31.12-.06,0-.07,0-.06,0h-.24v0a.09.09,0,0,0,0-.05s0,0,0-.06,0-.05,0-.07,0,0,0-.06v0l0,0,.14-.3-.32.08-.13,0h-.11s0,0,0,0a.2.2,0,0,1,0-.1.68.68,0,0,1,0-.14s0-.09.05-.13.05-.09.07-.13l.09-.12h0v0h0l.06-.07,0-.07a.35.35,0,0,0,.05-.08l0-.07,0-.08s0-.1.07-.16l.06-.16a.31.31,0,0,1,0-.08.19.19,0,0,0,0-.08.94.94,0,0,0,0-.16,1,1,0,0,0,0-.17l-.15.3,0,.07a.3.3,0,0,0,0,.08l-.08.14,0,.07,0,.06,0,.07,0,.06-.05.06,0,.06-.05,0,0,0h0l0,0h0l-.06.07-.06.07a.86.86,0,0,0-.1.16.89.89,0,0,0-.08.17.58.58,0,0,0,0,.19.42.42,0,0,0,0,.22.14.14,0,0,0,0,.06l0,0,0,0,.06.05.06,0a.42.42,0,0,0,.15,0s0,0,0,.07a.28.28,0,0,0,0,.09v.11s0,0,0,.06v0s0,0,0,0,0,0,0,.06l.06,0,.06,0,.05,0h.2l.09,0h0v.16a.06.06,0,0,0,0,0s0,0,0,0,0,0,0,.05,0,0,0,0a.22.22,0,0,0,0,.08l.07.07,0,0,0,0,0,0h.17s.05.1-.21.15a9.75,9.75,0,0,1-2.16,0,5.83,5.83,0,0,1-.93-.16s.21.15.4.26a.24.24,0,0,1,0,.33,3.11,3.11,0,0,1-1,.55h0l0,0a1.29,1.29,0,0,0-.24,1.53,3.45,3.45,0,0,0,.28.54h-.7a4.82,4.82,0,0,1,0-2.17,3.12,3.12,0,0,0,.81-.59l.18-.16-.22-.1a.53.53,0,0,1-.21-.21.29.29,0,0,1,0-.27.43.43,0,0,0,0-.07,2,2,0,0,0,.11-.26,1.2,1.2,0,0,0,0-.38,1.66,1.66,0,0,1-.15.33,1.49,1.49,0,0,1-.18.3,2.63,2.63,0,0,1-.49.51l-.28.22-.3.2c-.2.13-.41.25-.62.36l-.32.18-.16.09-.16.11a2.43,2.43,0,0,0-.29.26,2,2,0,0,0-.24.33,1.81,1.81,0,0,0-.22.76,2.56,2.56,0,0,0,0,.39l0,.17h-.55v-.38a4.57,4.57,0,0,1,.05-.52,2.21,2.21,0,0,1,.05-.25c0-.08,0-.16.07-.24a2.38,2.38,0,0,1,.23-.45,1.7,1.7,0,0,1,.33-.38l.09-.08.1-.08.11-.08.11-.08a3.83,3.83,0,0,0,.44-.36,3.7,3.7,0,0,0,.37-.42,3,3,0,0,0,.31-.48l.12-.27,0-.07a.64.64,0,0,1,0-.07.56.56,0,0,1,0-.12,4.87,4.87,0,0,1,.41-1,4,4,0,0,1,.3-.42,1.34,1.34,0,0,1,.2-.21l.33-.26a2.1,2.1,0,0,1,.26-.13.86.86,0,0,1,.23-.06l.12,0h.17l0,0,3.07-2.3,0,0,0,0,0,0,0,0a.16.16,0,0,1,0-.07l.09-.14.1-.11,0,0h0l.14-.11h0v0l0,0a.1.1,0,0,1,0,0l0,0h.1l0,0,.42-.18.22-.1.11,0,.1,0,.11,0,.11-.05.2-.07.18,0,.16,0,.37.2-.13-.35.09,0,.17.09.08.05,0,0,0,0,.2.19.07-.25V2.61s0,0,0,0l.12.07c.05,0,.11.09.15.14s.13.11.15.14l.15.16.08-.12h0l0,0,.07,0h.07l.09,0,0,0,.05,0,.09,0,0,0,.05,0,.08.07.08.08a.3.3,0,0,1,.08.08l.08.08.07.09.08.09.06.09a.36.36,0,0,1,.07.1l.07.1.14.2.13-.22h0v0l0,0v0l0,0,0,.08.06.17.06.24.2-.17h0l0,0h0s0,0,0,.07v.09a1.36,1.36,0,0,1,0,.2l0,.26.26-.1h.11s0,0,0,0a.14.14,0,0,1,0,.06.54.54,0,0,1,0,.18h-.14a.92.92,0,0,0-.23.09l.12,0h1l.11,0h.1l.11,0,.05,0,0,0,.05,0,.05,0h0l0,0,0,0,0,0v.15a.45.45,0,0,0,0,.11s0,.07,0,.11a.86.86,0,0,0,.06.23.92.92,0,0,0,.13.21l0,0,0,0,0,0,0,0,0,0,.11.13a.76.76,0,0,1,.11.32.79.79,0,0,1-.06.34" transform="translate(-28.03 -2.15)"/></g></g></svg>