<svg id="Capa_1" data-name="Capa 1" xmlns="http://www.w3.org/2000/svg" viewBox="0 0 198.65 22.2"><defs><style>.cls-1{fill:#53565a;}.cls-2{fill:#094694;}.cls-3{fill:#193342;}</style></defs><g id="Grupo_2569" data-name="Grupo 2569"><path id="Trazado_596" data-name="Trazado 596" class="cls-1" d="M77.2,5.78,75.5,7.26H74l.79-1.48ZM74.94,9.47c-1.39,0-1.88.57-1.88,2.89s.5,2.91,1.9,2.91,1.87-.6,1.87-2.91-.48-2.89-1.89-2.89m0,7.65c-2.82,0-4-1.49-4-4.76s1.19-4.73,4-4.73,4,1.46,4,4.73-1.16,4.76-4,4.76M90.24,17,86.78,12l-.64-.94h0l0,1.14V17h-2V7.81H86l3.37,4.7.65.93,0,0,0-1.12V7.81h2V17ZM63.36,7.81h2.26V17H63.36Zm-7.72,4.35L58.46,17H55.94l-1.31-2.41-.51-1h0l-.52,1L52.29,17H49.7l2.77-4.73-2.7-4.41h2.66l1.14,2.07.52,1h0l.52-1,1.15-2.07h2.55Zm-15-1.51-.87,2.78h2.38l-.84-2.76-.3-1.12h0Zm2.06,4.55H39.26L38.71,17H36.36l3.38-9.14h2.59L45.77,17H43.28ZM28.31,9.6H26.93V12h1.35c1,0,1.31-.28,1.31-1.24S29.26,9.6,28.31,9.6m2,3.6L32.55,17H29.94l-1.65-3.31H26.93V17h-2.2V7.81H28.3c2.4,0,3.59.93,3.59,2.87a2.4,2.4,0,0,1-1.57,2.52M17.48,9.74V17H15.24V9.74H12.65l0-1.93H20l0,1.93ZM86.71,26.13,84.53,23l-.27-.42h0v3.58h-.56V21.52h.57L86.6,25h0V21.52h.56v4.61Zm4.63-4v4H90.7v-4H89.33l0-.59H92.7v.59Zm-10,3.45v.57H78.37V21.52h2.84l0,.57H79v1.38h1.91V24H79v1.56Zm-6.35-4h.65v4.61H75Zm-6.46,0,1.32,3.26.18.46h0l.17-.46,1.32-3.26h.71v4.61h-.57V22.58h0l-.17.47-1.25,3.09h-.45l-1.24-3.06-.18-.47h0v3.53h-.56V21.52Zm-4.1,0h.64v4.61h-.64Zm32,.51c-.9,0-1.25.38-1.25,1.8s.35,1.8,1.25,1.8,1.25-.4,1.25-1.8S97.37,22,96.46,22m0,4.19c-1.36,0-1.91-.71-1.91-2.4s.54-2.38,1.91-2.38,1.91.7,1.91,2.38-.53,2.4-1.91,2.4m-34.32-4.7L60.5,26.13h-.72l-1.64-4.61h.7L60,25.06l.15.47h0l.15-.47,1.17-3.54ZM54.38,22c-.9,0-1.25.38-1.25,1.8s.34,1.8,1.25,1.8,1.25-.39,1.25-1.8S55.29,22,54.38,22m0,4.19c-1.37,0-1.92-.71-1.92-2.39s.54-2.39,1.92-2.39,1.9.7,1.9,2.39-.53,2.39-1.9,2.39m-8-4.7,1.32,3.26.18.46h0l.17-.46,1.32-3.26h.71v4.61h-.57V22.59h0l-.18.47-1.25,3.09h-.44l-1.24-3.07-.18-.47h0v3.53h-.56V21.52Zm-23.23.94-.68,2h1.66l-.67-2L23.34,22h0ZM24.33,25h-2l-.37,1.1h-.67L23,21.52h.75l1.7,4.61H24.7Zm9.55.53,0,.58H30.91V21.52h2.84l0,.58H31.54v1.37h1.91V24H31.54v1.57Zm5.37.58L37.07,23l-.27-.42h0v3.59h-.56V21.52h.57L39.14,25h0V21.52h.56v4.62Zm-21.82-4h-.95v3.44h.95c.9,0,1.33-.34,1.33-1.74s-.38-1.7-1.33-1.7m0,4H15.85V21.52h1.58c1.4,0,2,.67,2,2.29s-.65,2.33-2,2.33m-5-4.62h.64v4.62h-.64Zm-2.28,0L8.54,26.14H7.82L6.17,21.52h.7L8,25.06l.15.47h0l.15-.47,1.17-3.54Z" transform="translate(-6.17 -4.9)"/></g><g id="Grupo_3299" data-name="Grupo 3299"><path id="Trazado_5486" data-name="Trazado 5486" class="cls-2" d="M152.15,25.76a1.34,1.34,0,1,0,2.67,0,1.37,1.37,0,0,0-.39-1,1.34,1.34,0,0,0-1.89,0,1.36,1.36,0,0,0-.39,1m.24,0a1.09,1.09,0,0,1,1.09-1.1,1.12,1.12,0,0,1,.78.32,1.11,1.11,0,0,1,0,1.56,1.1,1.1,0,0,1-1.55,0,1.1,1.1,0,0,1-.32-.78" transform="translate(-6.17 -4.9)"/><path id="Trazado_5487" data-name="Trazado 5487" class="cls-2" d="M153.6,26.21h.18v-.35h.27a.1.1,0,0,1,0,.06s0,0,0,.06a.76.76,0,0,0,0,.15v0s0,0,0,0h.2v0s0,0,0,0v0a.31.31,0,0,1,0-.1.34.34,0,0,0,0-.1.08.08,0,0,0,0-.07.07.07,0,0,0,0-.05s0,0,0,0a.14.14,0,0,0,.1-.1.19.19,0,0,0,0-.13.22.22,0,0,0-.1-.18.28.28,0,0,0-.16-.05h-.46Zm.18-.74h.29s.06.05.06.08a.17.17,0,0,1,0,.1.1.1,0,0,1-.05,0h-.29Z" transform="translate(-6.17 -4.9)"/><g id="Grupo_2320" data-name="Grupo 2320"><path id="Trazado_5489" data-name="Trazado 5489" class="cls-2" d="M153.22,25.31l-.16.66-.16-.66h-.27v.9h.17v-.7l.17.7h.18l.17-.7v.7h.17v-.9Z" transform="translate(-6.17 -4.9)"/></g><path id="Trazado_5490" data-name="Trazado 5490" class="cls-2" d="M144.36,20.89a2.62,2.62,0,0,0,4.2.58h2.52v-.58Z" transform="translate(-6.17 -4.9)"/><path id="Trazado_5491" data-name="Trazado 5491" class="cls-2" d="M141.65,19.45a5.25,5.25,0,0,1,.25-1.19,4.77,4.77,0,0,1,8.51-1.48,7.63,7.63,0,0,1,.67,1.18V16.08a2.53,2.53,0,0,0-2.22-2.55h-6.09a2.29,2.29,0,0,0-1.39.54,2.62,2.62,0,0,0-1,2.11V26.23h8.28a2.5,2.5,0,0,0,2.38-2.56V21.94a7.36,7.36,0,0,1-.89,1.26A4.81,4.81,0,0,1,146.58,25a5.06,5.06,0,0,1-5-4.84,4.85,4.85,0,0,1,0-.66" transform="translate(-6.17 -4.9)"/><path id="Trazado_5492" data-name="Trazado 5492" class="cls-2" d="M151,9.19V7.66a2.72,2.72,0,0,0-2.7-2.76h-15.5a3.19,3.19,0,0,0-3.09,3.28V23.12a3.19,3.19,0,0,0,3.3,3.12h3.31V15.91a2.63,2.63,0,0,0-.82-1.8,2.58,2.58,0,0,0-1.84-.7V9.19Z" transform="translate(-6.17 -4.9)"/><path id="Trazado_5493" data-name="Trazado 5493" class="cls-2" d="M144.49,18.39a.91.91,0,0,0-.11.16h4.44a2.7,2.7,0,0,0-3.76-.69,3.17,3.17,0,0,0-.57.53" transform="translate(-6.17 -4.9)"/><path id="Trazado_5494" data-name="Trazado 5494" class="cls-3" d="M180,20.39h-.67A4.35,4.35,0,0,1,175,16.06v-.53a4.35,4.35,0,0,1,4.34-4.33H180a4.33,4.33,0,0,1,4.33,4.33v.53A4.33,4.33,0,0,1,180,20.39m-.67-6.75a1.89,1.89,0,0,0-1.89,1.89v.53A1.89,1.89,0,0,0,179.33,18H180a1.89,1.89,0,0,0,1.89-1.89v-.53A1.89,1.89,0,0,0,180,13.64Z" transform="translate(-6.17 -4.9)"/><path id="Trazado_5495" data-name="Trazado 5495" class="cls-3" d="M159.84,11.2h-.68a4.33,4.33,0,0,0-4.33,4.33v.53a4.35,4.35,0,0,0,4.33,4.34h.68a4.35,4.35,0,0,0,4.09-2.92h-2.85a1.87,1.87,0,0,1-1.24.47h-.68a1.89,1.89,0,0,1-1.75-1.19h6.7c0-.23.06-1.23.06-1.23a4.33,4.33,0,0,0-4.33-4.33m-2.42,3.6a1.89,1.89,0,0,1,1.74-1.16h.68a1.89,1.89,0,0,1,1.74,1.16Z" transform="translate(-6.17 -4.9)"/><g id="Grupo_2328" data-name="Grupo 2328"><path id="Trazado_5497" data-name="Trazado 5497" class="cls-3" d="M185,16.07h0Z" transform="translate(-6.17 -4.9)"/></g><path id="Trazado_5498" data-name="Trazado 5498" class="cls-3" d="M190,11.2h-.67a4.55,4.55,0,0,0-1,.12l0,0c-.73.28-.81.6-.81.61V8.53H185v7.54a4.32,4.32,0,0,0,4.33,4.32H190a4.35,4.35,0,0,0,4.34-4.33v-.53A4.35,4.35,0,0,0,190,11.2m1.89,4.86A1.89,1.89,0,0,1,190,18h-.67a1.89,1.89,0,0,1-1.89-1.89v-.53a1.89,1.89,0,0,1,1.89-1.89H190a1.89,1.89,0,0,1,1.89,1.89Z" transform="translate(-6.17 -4.9)"/><path id="Trazado_5499" data-name="Trazado 5499" class="cls-3" d="M204.36,15.53A4.35,4.35,0,0,0,200,11.2h-.67A4.33,4.33,0,0,0,195,15.53v.53a4.33,4.33,0,0,0,4.33,4.33H200a4.55,4.55,0,0,0,1-.12l0,0c.74-.29.81-.61.81-.61v.75h2.45Zm-2.45.53A1.89,1.89,0,0,1,200,18h-.67a1.89,1.89,0,0,1-1.89-1.89v-.53a1.89,1.89,0,0,1,1.89-1.89H200a1.89,1.89,0,0,1,1.89,1.89Z" transform="translate(-6.17 -4.9)"/><path id="Trazado_5500" data-name="Trazado 5500" class="cls-3" d="M170,11.2h-.67A4.35,4.35,0,0,0,165,15.53v.53a4.36,4.36,0,0,0,4.34,4.34H170a4.24,4.24,0,0,0,.94-.11h0a3.07,3.07,0,0,0,.93-.53,1.64,1.64,0,0,1,0,.22v.08l-.08.29s0,0,0,0a1.89,1.89,0,0,1-1.76,1.2h-2V24h2a4.34,4.34,0,0,0,4.33-4.33V15.53A4.33,4.33,0,0,0,170,11.2m1.89,4.86A1.89,1.89,0,0,1,170,18h-.67a1.89,1.89,0,0,1-1.89-1.89v-.53a1.89,1.89,0,0,1,1.89-1.89H170a1.89,1.89,0,0,1,1.89,1.89Z" transform="translate(-6.17 -4.9)"/><g id="Grupo_2333" data-name="Grupo 2333"><path id="Trazado_5502" data-name="Trazado 5502" class="cls-3" d="M175.73,22.18h-.68V22h1.58v.21H176V24h-.23Z" transform="translate(-6.17 -4.9)"/></g><path id="Trazado_5503" data-name="Trazado 5503" class="cls-3" d="M177.06,22h.87a.92.92,0,0,1,.33.06.63.63,0,0,1,.24.14.71.71,0,0,1,.12.18.57.57,0,0,1,0,.22h0a.47.47,0,0,1,0,.23.36.36,0,0,1-.11.16.59.59,0,0,1-.18.13.79.79,0,0,1-.22.06l.62.83h-.28l-.59-.78h-.57V24h-.23Zm.85,1a.76.76,0,0,0,.21,0,.38.38,0,0,0,.17-.08.32.32,0,0,0,.1-.13.33.33,0,0,0,0-.17h0a.33.33,0,0,0-.13-.29.67.67,0,0,0-.39-.1h-.62V23Z" transform="translate(-6.17 -4.9)"/><g id="Grupo_2336" data-name="Grupo 2336"><path id="Trazado_5505" data-name="Trazado 5505" class="cls-3" d="M179.89,22h.22l.92,2h-.25l-.23-.53h-1.1l-.24.53H179Zm.57,1.3-.46-1-.46,1Z" transform="translate(-6.17 -4.9)"/></g><g id="Grupo_2337" data-name="Grupo 2337"><path id="Trazado_5506" data-name="Trazado 5506" class="cls-3" d="M181.43,22h.21l1.27,1.62V22h.22v2H183l-1.3-1.65V24h-.22Z" transform="translate(-6.17 -4.9)"/></g><path id="Trazado_5507" data-name="Trazado 5507" class="cls-3" d="M184.4,24a1.19,1.19,0,0,1-.45-.08,1.36,1.36,0,0,1-.38-.24l.14-.17a1.26,1.26,0,0,0,.32.21,1,1,0,0,0,.38.08.56.56,0,0,0,.33-.1.33.33,0,0,0,.12-.25h0a.31.31,0,0,0,0-.13.19.19,0,0,0-.08-.1.8.8,0,0,0-.16-.08l-.26-.08L184,23a.72.72,0,0,1-.21-.12.4.4,0,0,1-.13-.16.54.54,0,0,1,0-.22h0a.54.54,0,0,1,0-.22.49.49,0,0,1,.14-.18.53.53,0,0,1,.21-.11.59.59,0,0,1,.26,0,.84.84,0,0,1,.39.06.94.94,0,0,1,.32.19l-.13.17a1,1,0,0,0-.28-.17,1,1,0,0,0-.3-.05.52.52,0,0,0-.32.09.32.32,0,0,0-.11.24h0a.51.51,0,0,0,0,.13.22.22,0,0,0,.09.1.51.51,0,0,0,.16.09l.28.07a1.16,1.16,0,0,1,.5.21.48.48,0,0,1,.16.36h0a.59.59,0,0,1-.05.23.86.86,0,0,1-.14.18.94.94,0,0,1-.22.12.86.86,0,0,1-.28,0" transform="translate(-6.17 -4.9)"/><path id="Trazado_5508" data-name="Trazado 5508" class="cls-3" d="M185.55,22h.75a1.06,1.06,0,0,1,.31.05.7.7,0,0,1,.24.13.5.5,0,0,1,.15.2.47.47,0,0,1,.05.26h0a.49.49,0,0,1-.06.29.55.55,0,0,1-.17.2.85.85,0,0,1-.25.13,1.06,1.06,0,0,1-.31,0h-.48V24h-.23Zm.73,1.1a.56.56,0,0,0,.22,0,.51.51,0,0,0,.18-.09.3.3,0,0,0,.11-.14.37.37,0,0,0,0-.18h0a.37.37,0,0,0-.15-.32.61.61,0,0,0-.4-.11h-.5v.88Z" transform="translate(-6.17 -4.9)"/><path id="Trazado_5509" data-name="Trazado 5509" class="cls-3" d="M188.41,24a1.06,1.06,0,0,1-.42-.09,1,1,0,0,1-.32-.22,1.08,1.08,0,0,1-.21-.34,1.05,1.05,0,0,1-.07-.4h0a1.12,1.12,0,0,1,.07-.4,1.15,1.15,0,0,1,.21-.33A1.09,1.09,0,0,1,188,22a1.16,1.16,0,0,1,.42-.08,1.2,1.2,0,0,1,.42.08,1,1,0,0,1,.32.23,1.15,1.15,0,0,1,.21.33.94.94,0,0,1,.07.4h0a1.12,1.12,0,0,1-.07.4,1,1,0,0,1-.54.56.85.85,0,0,1-.42.08m0-.21a.71.71,0,0,0,.32-.07.72.72,0,0,0,.25-.18.76.76,0,0,0,.16-.26.87.87,0,0,0,.06-.32h0a.87.87,0,0,0-.06-.32.78.78,0,0,0-.17-.26.72.72,0,0,0-.25-.18.77.77,0,0,0-.64,0,.81.81,0,0,0-.24.17.8.8,0,0,0-.16.26,1,1,0,0,0-.06.33h0a.7.7,0,0,0,.05.32.83.83,0,0,0,.17.27.64.64,0,0,0,.25.18.71.71,0,0,0,.32.07" transform="translate(-6.17 -4.9)"/><path id="Trazado_5510" data-name="Trazado 5510" class="cls-3" d="M189.92,22h.87a.88.88,0,0,1,.33.06.68.68,0,0,1,.25.14.58.58,0,0,1,.11.18.43.43,0,0,1,0,.22h0a.47.47,0,0,1,0,.23.36.36,0,0,1-.11.16.59.59,0,0,1-.18.13.79.79,0,0,1-.22.06l.62.83h-.28l-.59-.78h-.57V24h-.23Zm.85,1a.71.71,0,0,0,.21,0,.38.38,0,0,0,.17-.08.35.35,0,0,0,.14-.3h0a.33.33,0,0,0-.13-.29.64.64,0,0,0-.38-.1h-.63V23Z" transform="translate(-6.17 -4.9)"/><g id="Grupo_2343" data-name="Grupo 2343"><path id="Trazado_5512" data-name="Trazado 5512" class="cls-3" d="M192.54,22.18h-.67V22h1.58v.21h-.68V24h-.23Z" transform="translate(-6.17 -4.9)"/></g><g id="Grupo_2344" data-name="Grupo 2344"><path id="Trazado_5513" data-name="Trazado 5513" class="cls-3" d="M194.63,22h.21l.92,2h-.25l-.23-.53h-1.1l-.24.53h-.23Zm.56,1.3-.46-1-.46,1Z" transform="translate(-6.17 -4.9)"/></g><path id="Trazado_5514" data-name="Trazado 5514" class="cls-3" d="M196.16,22h.7a1.26,1.26,0,0,1,.43.08,1.08,1.08,0,0,1,.34.21,1,1,0,0,1,.23.32.92.92,0,0,1,.07.4h0a.92.92,0,0,1-.07.4.9.9,0,0,1-.23.32,1,1,0,0,1-.34.21,1.05,1.05,0,0,1-.43.07h-.7Zm.7,1.81a1,1,0,0,0,.34-.06.69.69,0,0,0,.43-.42.81.81,0,0,0,.06-.31h0a.85.85,0,0,0-.06-.31.67.67,0,0,0-.16-.25.77.77,0,0,0-.27-.17.79.79,0,0,0-.34-.06h-.48v1.6Z" transform="translate(-6.17 -4.9)"/><path id="Trazado_5515" data-name="Trazado 5515" class="cls-3" d="M199.35,24a1,1,0,0,1-.42-.09,1.19,1.19,0,0,1-.33-.22.9.9,0,0,1-.2-.34,1.06,1.06,0,0,1-.08-.4h0a1.14,1.14,0,0,1,.08-.4,1.15,1.15,0,0,1,.21-.33,1,1,0,0,1,.32-.23,1.25,1.25,0,0,1,.42-.08,1.16,1.16,0,0,1,.42.08,1,1,0,0,1,.33.23,1.15,1.15,0,0,1,.21.33,1.12,1.12,0,0,1,.07.4h0a1.12,1.12,0,0,1-.07.4.91.91,0,0,1-.22.33.9.9,0,0,1-.32.23.88.88,0,0,1-.42.08m0-.21a.71.71,0,0,0,.32-.07.64.64,0,0,0,.25-.18.63.63,0,0,0,.16-.26.87.87,0,0,0,.06-.32h0a.87.87,0,0,0-.06-.32.63.63,0,0,0-.16-.26.72.72,0,0,0-.25-.18.77.77,0,0,0-.64,0,.74.74,0,0,0-.25.17,1.06,1.06,0,0,0-.17.26.76.76,0,0,0-.05.33h0a.87.87,0,0,0,.06.32.67.67,0,0,0,.16.27.76.76,0,0,0,.26.18.67.67,0,0,0,.31.07" transform="translate(-6.17 -4.9)"/><path id="Trazado_5516" data-name="Trazado 5516" class="cls-3" d="M200.86,22h.87a1,1,0,0,1,.33.06.72.72,0,0,1,.24.14.54.54,0,0,1,.16.4h0a.62.62,0,0,1,0,.23.46.46,0,0,1-.11.16.75.75,0,0,1-.18.13.79.79,0,0,1-.22.06l.62.83h-.28l-.59-.78h-.57V24h-.23Zm.85,1a.76.76,0,0,0,.21,0,.35.35,0,0,0,.16-.08.28.28,0,0,0,.11-.13.33.33,0,0,0,0-.17h0a.33.33,0,0,0-.13-.29.67.67,0,0,0-.39-.1h-.62V23Z" transform="translate(-6.17 -4.9)"/><g id="Grupo_2349" data-name="Grupo 2349"><path id="Trazado_5518" data-name="Trazado 5518" class="cls-3" d="M203.69,22l-.92,2H203l.24-.53h1.09l.24.53h.25l-.92-2Zm.1.26.46,1h-.91Z" transform="translate(-6.17 -4.9)"/></g></g></svg>