<svg id="Capa_1" data-name="Capa 1" xmlns="http://www.w3.org/2000/svg" viewBox="0 0 190.8 14"><defs><style>.cls-1{fill:#acd24c;}.cls-2{fill:#32c1eb;}.cls-3{fill:#a9d14c;}</style></defs><g id="Grupo_3651" data-name="Grupo 3651"><path id="Trazado_9281" data-name="Trazado 9281" class="cls-1" d="M66.07,9.51h-3.5V13h3.5Z" transform="translate(-3.1 -9.5)"/><path id="Trazado_9282" data-name="Trazado 9282" class="cls-1" d="M62.58,13h-3.5v3.5h-3.5V20h7Z" transform="translate(-3.1 -9.5)"/><path id="Trazado_9283" data-name="Trazado 9283" class="cls-1" d="M66.07,20h-3.5v3.5h3.5Z" transform="translate(-3.1 -9.5)"/><path id="Trazado_9284" data-name="Trazado 9284" class="cls-1" d="M52.08,23.5h3.5V20h-3.5Z" transform="translate(-3.1 -9.5)"/><path id="Trazado_9285" data-name="Trazado 9285" class="cls-1" d="M55.58,9.51h-3.5V13h3.5Z" transform="translate(-3.1 -9.5)"/><path id="Trazado_9286" data-name="Trazado 9286" class="cls-1" d="M10.64,12.59v10.9H7.19V12.59H3.1L3.18,9.5H14.67l.08,3.09Z" transform="translate(-3.1 -9.5)"/><path id="Trazado_9287" data-name="Trazado 9287" class="cls-1" d="M27.23,18l3.26,5.53h-4l-2.37-4.88H22V23.5H18.53V9.5h5.59c3.78,0,5.67,1.41,5.67,4.51,0,2-.91,3.47-2.56,4m-3.09-5.75H22v3.95h2.11c1.52,0,2.13-.44,2.13-2s-.57-1.94-2.07-1.94" transform="translate(-3.1 -9.5)"/><path id="Trazado_9288" data-name="Trazado 9288" class="cls-1" d="M43.91,20.77H38.38l-.86,2.73H33.9l5.27-14h4.09l5.33,14H44.76Zm-3.17-7.42-1.53,4.8H43.1l-1.47-4.8-.41-1.48h-.06Z" transform="translate(-3.1 -9.5)"/><path id="Trazado_9289" data-name="Trazado 9289" class="cls-1" d="M69.59,9.5h3.5v14h-3.5Z" transform="translate(-3.1 -9.5)"/><path id="Trazado_9290" data-name="Trazado 9290" class="cls-1" d="M78.07,12.67c-.53,0-.76-.24-.76-.83s.23-.85.76-.85.76.25.76.84-.23.84-.76.84m0-.4c.17,0,.23-.08.23-.44s-.06-.44-.23-.44-.24.08-.24.44.06.44.24.44" transform="translate(-3.1 -9.5)"/><path id="Trazado_9291" data-name="Trazado 9291" class="cls-1" d="M79.94,12.63v-1c0-.15-.07-.21-.2-.21a.29.29,0,0,0-.21.09v1.12H79V11l.36,0,.07.13a.66.66,0,0,1,.43-.15c.34,0,.56.23.56.64v1Z" transform="translate(-3.1 -9.5)"/><path id="Trazado_9292" data-name="Trazado 9292" class="cls-1" d="M78.88,14.16a2.33,2.33,0,1,1,2.32-2.33,2.33,2.33,0,0,1-2.32,2.33m0-4.31a2,2,0,1,0,2,2,2,2,0,0,0-2-2" transform="translate(-3.1 -9.5)"/></g><g id="Grupo_3650" data-name="Grupo 3650"><path id="Trazado_9270" data-name="Trazado 9270" class="cls-2" d="M157.24,21a4.48,4.48,0,1,1,4.49-4.48A4.48,4.48,0,0,1,157.24,21" transform="translate(-3.1 -9.5)"/><path id="Trazado_9271" data-name="Trazado 9271" d="M106.69,13.92v6.9h-2v-6.9H102.4l0-1.76H109l0,1.76Z" transform="translate(-3.1 -9.5)"/><path id="Trazado_9272" data-name="Trazado 9272" d="M117.1,17.21l2,3.61h-2.27l-1.52-3.23h-1.22v3.23h-2V12.15h3.18c2.14,0,3.22.85,3.22,2.7a2.23,2.23,0,0,1-1.46,2.36m-1.75-3.44h-1.24v2.36h1.2c.87,0,1.21-.26,1.21-1.2s-.32-1.16-1.18-1.16" transform="translate(-3.1 -9.5)"/><path id="Trazado_9273" data-name="Trazado 9273" d="M127.12,19.13H124l-.49,1.69h-2.06l3-8.67h2.32l3,8.67h-2.17Zm-1.8-4.6-.87,3h2.21l-.83-3-.23-.91h0Z" transform="translate(-3.1 -9.5)"/><path id="Trazado_9274" data-name="Trazado 9274" d="M137.51,16.29,140,20.82h-2.21l-1.26-2.47-.39-.84h0l-.4.85-1.24,2.46h-2.25l2.46-4.48-2.4-4.19h2.31l1.12,2.17.42.83h0l.4-.83,1.12-2.17h2.22Z" transform="translate(-3.1 -9.5)"/><path id="Trazado_9275" data-name="Trazado 9275" d="M146.35,18h-1.16v2.82h-1.95V12.15h3.11c2.4,0,3.39.95,3.39,3,0,1.83-1,2.88-3.39,2.88m0-4.22h-1.16v2.66h1.16c1,0,1.37-.24,1.37-1.32s-.37-1.33-1.37-1.33" transform="translate(-3.1 -9.5)"/><path id="Trazado_9276" data-name="Trazado 9276" d="M169.92,17.21l2,3.61h-2.27l-1.52-3.23h-1.22v3.23h-2V12.15h3.18c2.14,0,3.22.85,3.22,2.7a2.25,2.25,0,0,1-1.46,2.36m-1.76-3.44h-1.23v2.36h1.2c.86,0,1.21-.26,1.21-1.2s-.32-1.16-1.18-1.16" transform="translate(-3.1 -9.5)"/><path id="Trazado_9277" data-name="Trazado 9277" d="M178.51,13.92v6.9h-2v-6.9h-2.32l0-1.76h6.53l.05,1.76Z" transform="translate(-3.1 -9.5)"/><path id="Trazado_9278" data-name="Trazado 9278" class="cls-3" d="M186.52,12.16l-4.33,8.66h8.67Z" transform="translate(-3.1 -9.5)"/><path id="Trazado_9279" data-name="Trazado 9279" d="M192.76,13.73l.3.54h-.34l-.22-.49h-.19v.49H192V13h.48c.32,0,.48.12.48.4a.33.33,0,0,1-.22.35m-.26-.51h-.19v.35h.18c.13,0,.18,0,.18-.18s0-.17-.17-.17" transform="translate(-3.1 -9.5)"/><path id="Trazado_9280" data-name="Trazado 9280" d="M192.46,15.06a1.44,1.44,0,1,1,0-2.88,1.44,1.44,0,0,1,0,2.88m0-2.67a1.22,1.22,0,0,0-1.22,1.23,1.23,1.23,0,1,0,1.22-1.23" transform="translate(-3.1 -9.5)"/></g></svg>