<svg id="Capa_1" data-name="Capa 1" xmlns="http://www.w3.org/2000/svg" viewBox="0 0 38.07 38.07"><path id="Trazado_4271" data-name="Trazado 4271" d="M24,2.46a19,19,0,1,0,19,19,19.05,19.05,0,0,0-19-19h0m0,35.35A16.32,16.32,0,1,1,40.32,21.5,16.31,16.31,0,0,1,24,37.81" transform="translate(-4.96 -2.46)"/><path id="Trazado_4272" data-name="Trazado 4272" d="M19.34,8l-4.63,9.66-3.19-2.33C8.78,21,9.15,28.43,15.66,33l.07-3.5a10.32,10.32,0,0,1-2.89-9.9l2.94,2.31,2.68-5.63.06,16.49,2.71-.07-.1-25.14Z" transform="translate(-4.96 -2.46)"/><path id="Trazado_4273" data-name="Trazado 4273" d="M36.48,15.31l-3.19,2.33L28.66,8l-1.78-.41-.1,25.13,2.72.07.05-16.49,2.67,5.64,2.94-2.31a10.3,10.3,0,0,1-2.88,9.9l.07,3.5c6.5-4.55,6.87-12,4.13-17.69" transform="translate(-4.96 -2.46)"/><path id="Trazado_4274" data-name="Trazado 4274" d="M26.05,11.84H24.74l0,7.81a.69.69,0,0,1-.63.74.69.69,0,0,1-.74-.64.75.75,0,0,1,0-.15l0-7.75H22v9.84l1.26,1.5,0,7.3c0,.92,1.61,1,1.62,0l-.05-7.31,1.29-1.48Z" transform="translate(-4.96 -2.46)"/></svg>