<?xml version="1.0" encoding="utf-8"?>
<!-- Generator: Adobe Illustrator 25.4.1, SVG Export Plug-In . SVG Version: 6.00 Build 0)  -->
<svg version="1.1" id="Capa_1" xmlns="http://www.w3.org/2000/svg" xmlns:xlink="http://www.w3.org/1999/xlink" x="0px" y="0px"
	 viewBox="0 0 207 38" style="enable-background:new 0 0 207 38;" xml:space="preserve">
<style type="text/css">
	.st0{fill:#53565A;}
	.st1{fill:#094694;}
	.st2{fill:#193342;}
</style>
<g>
	<g id="Grupo_2569">
		<path id="Trazado_596" class="st0" d="M71,1l-1.7,1.5h-1.5L68.6,1H71z M68.8,4.7c-1.4,0-1.9,0.6-1.9,2.9s0.5,2.9,1.9,2.9
			s1.9-0.6,1.9-2.9S70.2,4.7,68.8,4.7 M68.8,12.3c-2.8,0-4-1.5-4-4.8s1.2-4.7,4-4.7s4,1.5,4,4.7S71.6,12.3,68.8,12.3 M84.1,12.2
			l-3.5-5L80,6.3l0,0v1.1v4.8h-2V3h1.9l3.4,4.7l0.7,0.9l0,0V7.5V3h2v9.2H84.1z M57.2,3h2.3v9.2h-2.3V3z M49.5,7.4l2.8,4.8h-2.5
			l-1.3-2.4l-0.5-1l0,0l-0.5,1l-1.3,2.4h-2.6l2.8-4.7l-2.7-4.4h2.7l1.1,2.1l0.5,1l0,0l0.5-1l1.2-2.1h2.5L49.5,7.4z M34.5,5.9
			l-0.9,2.8H36l-0.8-2.8l-0.3-1.1l0,0L34.5,5.9z M36.5,10.4h-3.4l-0.5,1.8h-2.4l3.4-9.1h2.6l3.4,9.1h-2.5L36.5,10.4z M22.1,4.8h-1.4
			v2.4h1.4c1,0,1.3-0.3,1.3-1.2S23.1,4.8,22.1,4.8 M24.1,8.4l2.2,3.8h-2.6l-1.6-3.3h-1.4v3.3h-2.2V3h3.6c2.4,0,3.6,0.9,3.6,2.9
			C25.8,7,25.2,8,24.1,8.4 M11.3,5v7.3H9.1V5H6.5V3h7.4V5H11.3z M80.5,21.3l-2.2-3.1l-0.3-0.4l0,0v3.6h-0.6v-4.6h0.6l2.3,3.5l0,0
			v-3.5H81v4.6L80.5,21.3z M85.2,17.3v4h-0.6v-4h-1.4v-0.6h3.4v0.6H85.2z M75.2,20.8v0.6h-3v-4.6H75v0.6h-2.2v1.4h1.9v0.5h-1.9v1.6
			L75.2,20.8z M68.8,16.8h0.7v4.6h-0.6L68.8,16.8z M62.4,16.8l1.3,3.3l0.2,0.5l0,0l0.2-0.5l1.3-3.3h0.7v4.6h-0.6v-3.6l0,0l-0.2,0.5
			l-1.2,3.1h-0.4l-1.2-3.1l-0.2-0.5l0,0v3.5h-0.6v-4.6L62.4,16.8z M58.3,16.8h0.6v4.6h-0.6V16.8z M90.3,17.3c-0.9,0-1.2,0.4-1.2,1.8
			s0.3,1.8,1.2,1.8s1.2-0.4,1.2-1.8S91.2,17.2,90.3,17.3 M90.3,21.4c-1.4,0-1.9-0.7-1.9-2.4s0.5-2.4,1.9-2.4s1.9,0.7,1.9,2.4
			S91.7,21.4,90.3,21.4 M56,16.7l-1.6,4.6h-0.7L52,16.7h0.7l1.2,3.5l0.2,0.5l0,0l0.2-0.5l1.2-3.5L56,16.7z M48.2,17.2
			c-0.9,0-1.2,0.4-1.2,1.8s0.3,1.8,1.2,1.8c0.9,0,1.2-0.4,1.2-1.8S49.1,17.2,48.2,17.2 M48.2,21.4c-1.4,0-1.9-0.7-1.9-2.4
			s0.5-2.4,1.9-2.4s1.9,0.7,1.9,2.4S49.6,21.4,48.2,21.4 M40.2,16.7l1.3,3.3l0.2,0.5l0,0l0.2-0.5l1.3-3.3h0.7v4.6h-0.6v-3.5l0,0
			l-0.2,0.5l-1.2,3.1h-0.4l-1.2-3.1L40,17.8l0,0v3.5h-0.6v-4.6L40.2,16.7z M17,17.7l-0.7,2H18l-0.7-2l-0.1-0.4l0,0L17,17.7z
			 M18.2,20.2h-2l-0.4,1.1h-0.7l1.7-4.6h0.8l1.7,4.6h-0.8L18.2,20.2z M27.7,20.8v0.6h-3v-4.6h2.8v0.6h-2.2v1.4h1.9v0.5h-1.9v1.6
			L27.7,20.8z M33.1,21.3l-2.2-3.1l-0.3-0.4l0,0v3.6h-0.6v-4.6h0.6l2.3,3.5l0,0v-3.5h0.6v4.6L33.1,21.3z M11.3,17.3h-1v3.4h1
			c0.9,0,1.3-0.3,1.3-1.7S12.2,17.3,11.3,17.3 M11.3,21.3H9.7v-4.6h1.6c1.4,0,2,0.7,2,2.3S12.6,21.4,11.3,21.3 M6.3,16.7h0.6v4.6
			H6.3V16.7z M4,16.7l-1.6,4.6H1.7L0,16.7h0.7l1.1,3.5L2,20.7l0,0l0.1-0.5l1.2-3.5H4z"/>
	</g>
	<g id="Grupo_3299">
		<path id="Trazado_5486" class="st1" d="M146,21.9c-0.1,0.7,0.5,1.4,1.2,1.5c0.7,0.1,1.4-0.5,1.5-1.2c0-0.1,0-0.2,0-0.2
			c0-0.4-0.1-0.7-0.4-1c-0.5-0.5-1.4-0.5-1.9,0C146.1,21.1,146,21.5,146,21.9 M146.2,21.9c0-0.6,0.5-1.1,1.1-1.1c0,0,0,0,0,0
			c0.3,0,0.6,0.1,0.8,0.3c0.4,0.4,0.4,1.1,0,1.6c-0.4,0.4-1.1,0.4-1.6,0C146.3,22.4,146.2,22.2,146.2,21.9"/>
		<path id="Trazado_5487" class="st1" d="M147.4,22.3h0.2V22h0.3c0,0,0,0,0,0.1c0,0,0,0,0,0.1c0,0,0,0.1,0,0.1l0,0l0,0h0.2l0,0l0,0
			l0,0c0,0,0-0.1,0-0.1c0,0,0-0.1,0-0.1c0,0,0,0,0-0.1c0,0,0,0,0,0l0,0c0,0,0.1-0.1,0.1-0.1c0,0,0-0.1,0-0.1c0-0.1,0-0.1-0.1-0.2
			c0,0-0.1-0.1-0.2,0h-0.5L147.4,22.3z M147.6,21.6h0.3c0,0,0.1,0,0.1,0.1c0,0,0,0.1,0,0.1c0,0,0,0-0.1,0h-0.3L147.6,21.6z"/>
		<g id="Grupo_2320">
			<path id="Trazado_5489" class="st1" d="M147.1,21.4l-0.2,0.7l-0.2-0.7h-0.3v0.9h0.2v-0.7l0.2,0.7h0.2l0.2-0.7v0.7h0.2v-0.9H147.1
				z"/>
		</g>
		<path id="Trazado_5490" class="st1" d="M138.2,17c0.7,1.3,2.3,1.8,3.5,1.1c0.2-0.1,0.5-0.3,0.7-0.5h2.5V17H138.2z"/>
		<path id="Trazado_5491" class="st1" d="M135.5,15.6c0-0.4,0.1-0.8,0.2-1.2c0.7-2.5,3.3-4,5.9-3.3c1.1,0.3,2,1,2.7,1.9
			c0.3,0.4,0.5,0.8,0.7,1.2v-1.9c0-1.3-0.9-2.4-2.2-2.6h-6.1c-0.5,0-1,0.2-1.4,0.5c-0.6,0.5-1,1.3-1,2.1v10h8.3
			c1.4-0.1,2.4-1.2,2.4-2.6V18c-0.3,0.5-0.6,0.9-0.9,1.3c-0.9,1.1-2.2,1.7-3.6,1.8c-2.7,0-4.9-2.2-5-4.8
			C135.4,16,135.4,15.8,135.5,15.6"/>
		<path id="Trazado_5492" class="st1" d="M144.8,5.3V3.8c0-1.5-1.2-2.7-2.7-2.8c0,0,0,0,0,0h-15.5c-1.8,0.1-3.1,1.5-3.1,3.3v14.9
			c0,1.8,1.5,3.2,3.3,3.1c0,0,0,0,0,0h3.3V12c0-0.7-0.3-1.3-0.8-1.8c-0.5-0.5-1.2-0.7-1.8-0.7V5.3H144.8z"/>
		<path id="Trazado_5493" class="st1" d="M138.3,14.5c0,0-0.1,0.1-0.1,0.2h4.4c-0.8-1.2-2.5-1.5-3.8-0.7c0,0,0,0,0,0
			C138.7,14.1,138.5,14.3,138.3,14.5"/>
		<path id="Trazado_5494" class="st2" d="M173.8,16.5h-0.7c-2.4,0-4.3-1.9-4.3-4.3v-0.5c0-2.4,1.9-4.3,4.3-4.3h0.7
			c2.4,0,4.3,1.9,4.3,4.3c0,0,0,0,0,0v0.5C178.2,14.6,176.2,16.5,173.8,16.5L173.8,16.5 M173.2,9.7c-1,0-1.9,0.8-1.9,1.9v0.5
			c0,1,0.8,1.9,1.8,1.9c0,0,0,0,0.1,0h0.7c1,0,1.9-0.8,1.9-1.9v-0.5c0-1-0.8-1.9-1.8-1.9c0,0,0,0-0.1,0L173.2,9.7z"/>
		<path id="Trazado_5495" class="st2" d="M153.7,7.3H153c-2.4,0-4.3,1.9-4.3,4.3c0,0,0,0,0,0v0.5c0,2.4,1.9,4.3,4.3,4.3h0.7
			c1.8,0,3.5-1.2,4.1-2.9h-2.9c-0.3,0.3-0.8,0.5-1.2,0.5H153c-0.8,0-1.5-0.5-1.8-1.2h6.7c0-0.2,0.1-1.2,0.1-1.2
			C158,9.2,156.1,7.3,153.7,7.3L153.7,7.3 M151.2,10.9c0.3-0.7,1-1.2,1.7-1.2h0.7c0.8,0,1.4,0.5,1.7,1.2H151.2z"/>
		<g id="Grupo_2328">
			<path id="Trazado_5497" class="st2" d="M178.8,12.2L178.8,12.2z"/>
		</g>
		<path id="Trazado_5498" class="st2" d="M183.8,7.3h-0.7c-0.3,0-0.7,0-1,0.1l0,0c-0.7,0.3-0.8,0.6-0.8,0.6V4.6h-2.5v7.5
			c0,2.4,1.9,4.3,4.3,4.3c0,0,0,0,0,0h0.7c2.4,0,4.3-1.9,4.3-4.3v-0.5C188.2,9.2,186.2,7.3,183.8,7.3 M185.7,12.2
			c0,1-0.8,1.9-1.8,1.9c0,0,0,0-0.1,0h-0.7c-1,0-1.9-0.8-1.9-1.9v-0.5c0-1,0.8-1.9,1.9-1.9h0.7c1,0,1.9,0.8,1.9,1.9V12.2z"/>
		<path id="Trazado_5499" class="st2" d="M198.2,11.6c0-2.4-2-4.3-4.4-4.3h-0.7c-2.4,0-4.3,1.9-4.3,4.3c0,0,0,0,0,0v0.5
			c0,2.4,1.9,4.3,4.3,4.3l0,0h0.7c0.3,0,0.7,0,1-0.1l0,0c0.7-0.3,0.8-0.6,0.8-0.6v0.8h2.4L198.2,11.6z M195.7,12.2
			c0,1-0.8,1.9-1.8,1.9c0,0,0,0-0.1,0h-0.7c-1,0-1.9-0.8-1.9-1.9v-0.5c0-1,0.8-1.9,1.9-1.9h0.7c1,0,1.9,0.8,1.9,1.9L195.7,12.2z"/>
		<path id="Trazado_5500" class="st2" d="M163.8,7.3h-0.7c-2.4,0-4.3,1.9-4.3,4.3v0.5c0,2.4,1.9,4.3,4.3,4.3h0.7
			c0.3,0,0.6,0,0.9-0.1l0,0c0.3-0.1,0.7-0.3,0.9-0.5c0,0.1,0,0.1,0,0.2v0.1l-0.1,0.3l0,0c-0.3,0.7-1,1.2-1.8,1.2h-2v2.5h2
			c2.4,0,4.3-1.9,4.3-4.3v-4.1C168.2,9.2,166.3,7.3,163.8,7.3C163.9,7.3,163.8,7.3,163.8,7.3 M165.7,12.2c0,1-0.8,1.9-1.8,1.9
			c0,0,0,0-0.1,0h-0.7c-1,0-1.9-0.8-1.9-1.9v-0.5c0-1,0.8-1.9,1.9-1.9h0.7c1,0,1.9,0.8,1.9,1.9V12.2z"/>
		<g id="Grupo_2333">
			<path id="Trazado_5502" class="st2" d="M169.6,18.3h-0.7v-0.2h1.6v0.2h-0.6v1.8h-0.2L169.6,18.3z"/>
		</g>
		<path id="Trazado_5503" class="st2" d="M170.9,18.1h0.9c0.1,0,0.2,0,0.3,0.1c0.1,0,0.2,0.1,0.2,0.1c0,0.1,0.1,0.1,0.1,0.2
			c0,0.1,0,0.1,0,0.2l0,0c0,0.1,0,0.2,0,0.2c0,0.1-0.1,0.1-0.1,0.2c-0.1,0.1-0.1,0.1-0.2,0.1c-0.1,0-0.1,0.1-0.2,0.1l0.6,0.8h-0.3
			l-0.6-0.8h-0.6v0.8h-0.2V18.1z M171.7,19.1c0.1,0,0.1,0,0.2,0c0.1,0,0.1,0,0.2-0.1c0,0,0.1-0.1,0.1-0.1c0-0.1,0-0.1,0-0.2l0,0
			c0-0.1,0-0.2-0.1-0.3c-0.1-0.1-0.3-0.1-0.4-0.1h-0.6v0.8H171.7z"/>
		<g id="Grupo_2336">
			<path id="Trazado_5505" class="st2" d="M173.7,18.1h0.2l0.9,2h-0.2l-0.2-0.5h-1.1l-0.2,0.5h-0.2L173.7,18.1z M174.3,19.4l-0.5-1
				l-0.5,1H174.3z"/>
		</g>
		<g id="Grupo_2337">
			<path id="Trazado_5506" class="st2" d="M175.3,18.1h0.2l1.3,1.6v-1.6h0.2v2h-0.1l-1.3-1.6v1.6h-0.2L175.3,18.1z"/>
		</g>
		<path id="Trazado_5507" class="st2" d="M178.2,20.1c-0.2,0-0.3,0-0.4-0.1c-0.1-0.1-0.3-0.1-0.4-0.2l0.1-0.2
			c0.1,0.1,0.2,0.2,0.3,0.2c0.1,0.1,0.2,0.1,0.4,0.1c0.1,0,0.2,0,0.3-0.1c0.1-0.1,0.1-0.2,0.1-0.2l0,0c0,0,0-0.1,0-0.1
			c0,0,0-0.1-0.1-0.1c-0.1,0-0.1-0.1-0.2-0.1l-0.3-0.1l-0.4-0.1c-0.1,0-0.1-0.1-0.2-0.1c-0.1,0-0.1-0.1-0.1-0.2c0-0.1,0-0.1,0-0.2
			l0,0c0-0.1,0-0.1,0-0.2c0-0.1,0.1-0.1,0.1-0.2c0.1-0.1,0.1-0.1,0.2-0.1c0.1,0,0.2,0,0.3,0c0.1,0,0.3,0,0.4,0.1
			c0.1,0,0.2,0.1,0.3,0.2l-0.1,0.2c-0.1-0.1-0.2-0.1-0.3-0.2c-0.1,0-0.2,0-0.3,0c-0.1,0-0.2,0-0.3,0.1c-0.1,0.1-0.1,0.1-0.1,0.2l0,0
			c0,0,0,0.1,0,0.1c0,0,0.1,0.1,0.1,0.1c0,0,0.1,0.1,0.2,0.1l0.3,0.1c0.2,0,0.4,0.1,0.5,0.2c0.1,0.1,0.2,0.2,0.2,0.4l0,0
			c0,0.1,0,0.2-0.1,0.2c0,0.1-0.1,0.1-0.1,0.2c-0.1,0-0.1,0.1-0.2,0.1C178.4,20.1,178.3,20.1,178.2,20.1"/>
		<path id="Trazado_5508" class="st2" d="M179.4,18.1h0.8c0.1,0,0.2,0,0.3,0c0.1,0,0.2,0.1,0.2,0.1c0.1,0.1,0.1,0.1,0.1,0.2
			c0,0.1,0.1,0.2,0.1,0.3l0,0c0,0.1,0,0.2-0.1,0.3c0,0.1-0.1,0.1-0.2,0.2c-0.1,0.1-0.2,0.1-0.2,0.1c-0.1,0-0.2,0-0.3,0h-0.5v0.7
			h-0.2L179.4,18.1z M180.1,19.2c0.1,0,0.1,0,0.2,0c0.1,0,0.1,0,0.2-0.1c0,0,0.1-0.1,0.1-0.1c0-0.1,0-0.1,0-0.2l0,0
			c0-0.1,0-0.2-0.1-0.3c-0.1-0.1-0.3-0.1-0.4-0.1h-0.5v0.9L180.1,19.2z"/>
		<path id="Trazado_5509" class="st2" d="M182.2,20.1c-0.1,0-0.3,0-0.4-0.1c-0.1-0.1-0.2-0.1-0.3-0.2c-0.1-0.1-0.2-0.2-0.2-0.3
			c0-0.1-0.1-0.3-0.1-0.4l0,0c0-0.1,0-0.3,0.1-0.4c0.1-0.1,0.1-0.2,0.2-0.3c0.1-0.1,0.2-0.2,0.3-0.2c0.1-0.1,0.3-0.1,0.4-0.1
			c0.1,0,0.3,0,0.4,0.1c0.1,0.1,0.2,0.1,0.3,0.2c0.1,0.1,0.2,0.2,0.2,0.3c0.1,0.1,0.1,0.3,0.1,0.4l0,0c0,0.1,0,0.3-0.1,0.4
			c-0.1,0.3-0.3,0.5-0.5,0.6C182.5,20.1,182.4,20.1,182.2,20.1 M182.2,19.9c0.1,0,0.2,0,0.3-0.1c0.1,0,0.2-0.1,0.2-0.2
			c0.1-0.1,0.1-0.2,0.2-0.3c0-0.1,0.1-0.2,0.1-0.3l0,0c0-0.1,0-0.2-0.1-0.3c0-0.1-0.1-0.2-0.2-0.3c-0.1-0.1-0.2-0.1-0.2-0.2
			c-0.2-0.1-0.4-0.1-0.6,0c-0.1,0-0.2,0.1-0.2,0.2c-0.1,0.1-0.1,0.2-0.2,0.3c0,0.1-0.1,0.2-0.1,0.3l0,0c0,0.1,0,0.2,0.1,0.3
			c0,0.1,0.1,0.2,0.2,0.3c0.1,0.1,0.2,0.1,0.2,0.2C182,19.9,182.1,19.9,182.2,19.9"/>
		<path id="Trazado_5510" class="st2" d="M183.8,18.1h0.9c0.1,0,0.2,0,0.3,0.1c0.1,0,0.2,0.1,0.2,0.1c0,0.1,0.1,0.1,0.1,0.2
			c0,0.1,0,0.1,0,0.2l0,0c0,0.1,0,0.2,0,0.2c0,0.1-0.1,0.1-0.1,0.2c-0.1,0.1-0.1,0.1-0.2,0.1c-0.1,0-0.1,0.1-0.2,0.1l0.6,0.8h-0.3
			l-0.6-0.8H184v0.8h-0.2V18.1z M184.6,19.1c0.1,0,0.1,0,0.2,0c0.1,0,0.1,0,0.2-0.1c0.1-0.1,0.1-0.2,0.1-0.3l0,0
			c0-0.1,0-0.2-0.1-0.3c-0.1-0.1-0.2-0.1-0.4-0.1H184v0.8H184.6z"/>
		<g id="Grupo_2343">
			<path id="Trazado_5512" class="st2" d="M186.4,18.3h-0.7v-0.2h1.6v0.2h-0.7v1.8h-0.2L186.4,18.3z"/>
		</g>
		<g id="Grupo_2344">
			<path id="Trazado_5513" class="st2" d="M188.5,18.1h0.2l0.9,2h-0.2l-0.2-0.5H188l-0.2,0.5h-0.2L188.5,18.1z M189,19.4l-0.5-1
				l-0.5,1H189z"/>
		</g>
		<path id="Trazado_5514" class="st2" d="M190,18.1h0.7c0.1,0,0.3,0,0.4,0.1c0.1,0,0.2,0.1,0.3,0.2c0.1,0.1,0.2,0.2,0.2,0.3
			c0.1,0.1,0.1,0.3,0.1,0.4l0,0c0,0.1,0,0.3-0.1,0.4c-0.1,0.1-0.1,0.2-0.2,0.3c-0.1,0.1-0.2,0.2-0.3,0.2c-0.1,0.1-0.3,0.1-0.4,0.1
			H190V18.1z M190.7,19.9c0.1,0,0.2,0,0.3-0.1c0.2-0.1,0.4-0.2,0.4-0.4c0-0.1,0.1-0.2,0.1-0.3l0,0c0-0.1,0-0.2-0.1-0.3
			c0-0.1-0.1-0.2-0.2-0.2c-0.1-0.1-0.2-0.1-0.3-0.2c-0.1,0-0.2-0.1-0.3-0.1h-0.5v1.6L190.7,19.9z"/>
		<path id="Trazado_5515" class="st2" d="M193.2,20.1c-0.1,0-0.3,0-0.4-0.1c-0.1-0.1-0.2-0.1-0.3-0.2c-0.1-0.1-0.2-0.2-0.2-0.3
			c-0.1-0.1-0.1-0.3-0.1-0.4l0,0c0-0.1,0-0.3,0.1-0.4c0.1-0.1,0.1-0.2,0.2-0.3c0.1-0.1,0.2-0.2,0.3-0.2c0.1-0.1,0.3-0.1,0.4-0.1
			c0.1,0,0.3,0,0.4,0.1c0.1,0.1,0.2,0.1,0.3,0.2c0.1,0.1,0.2,0.2,0.2,0.3c0,0.1,0.1,0.3,0.1,0.4l0,0c0,0.1,0,0.3-0.1,0.4
			c0,0.1-0.1,0.2-0.2,0.3c-0.1,0.1-0.2,0.2-0.3,0.2C193.5,20.1,193.3,20.1,193.2,20.1 M193.2,19.9c0.1,0,0.2,0,0.3-0.1
			c0.1,0,0.2-0.1,0.2-0.2c0.1-0.1,0.1-0.2,0.2-0.3c0-0.1,0.1-0.2,0.1-0.3l0,0c0-0.1,0-0.2-0.1-0.3c0-0.1-0.1-0.2-0.2-0.3
			c-0.1-0.1-0.2-0.1-0.2-0.2c-0.2-0.1-0.4-0.1-0.6,0c-0.1,0-0.2,0.1-0.2,0.2c-0.1,0.1-0.1,0.2-0.2,0.3c0,0.1-0.1,0.2-0.1,0.3l0,0
			c0,0.1,0,0.2,0.1,0.3c0,0.1,0.1,0.2,0.2,0.3c0.1,0.1,0.2,0.1,0.3,0.2C193,19.9,193.1,19.9,193.2,19.9"/>
		<path id="Trazado_5516" class="st2" d="M194.7,18.1h0.9c0.1,0,0.2,0,0.3,0.1c0.1,0,0.2,0.1,0.2,0.1c0.1,0.1,0.2,0.3,0.2,0.4l0,0
			c0,0.1,0,0.2,0,0.2c0,0.1-0.1,0.1-0.1,0.2c-0.1,0.1-0.1,0.1-0.2,0.1c-0.1,0-0.1,0.1-0.2,0.1l0.6,0.8h-0.3l-0.6-0.8H195v0.8h-0.2
			L194.7,18.1z M195.5,19.1c0.1,0,0.1,0,0.2,0c0.1,0,0.1,0,0.2-0.1c0,0,0.1-0.1,0.1-0.1c0-0.1,0-0.1,0-0.2l0,0c0-0.1,0-0.2-0.1-0.3
			c-0.1-0.1-0.3-0.1-0.4-0.1h-0.6v0.8H195.5z"/>
		<g id="Grupo_2349">
			<path id="Trazado_5518" class="st2" d="M197.5,18.1l-0.9,2h0.2l0.2-0.5h1.1l0.2,0.5h0.2l-0.9-2H197.5z M197.6,18.4l0.5,1h-0.9
				L197.6,18.4z"/>
		</g>
	</g>
</g>
</svg>
