<?xml version="1.0" encoding="utf-8"?>
<!-- Generator: Adobe Illustrator 25.4.1, SVG Export Plug-In . SVG Version: 6.00 Build 0)  -->
<svg version="1.1" id="Capa_1" xmlns="http://www.w3.org/2000/svg" xmlns:xlink="http://www.w3.org/1999/xlink" x="0px" y="0px"
	 viewBox="0 0 207 38" style="enable-background:new 0 0 207 38;" xml:space="preserve">
<style type="text/css">
	.st0{fill:#12356B;}
	.st1{fill:#FF371F;}
	.st2{clip-path:url(#SVGID_00000112600622037857362940000001973256861692368293_);}
	.st3{fill:url(#Trazado_8903_00000025417825382561083140000014196715402346413974_);}
	.st4{clip-path:url(#SVGID_00000028285245181786504940000010888349709354448787_);}
	.st5{fill:url(#Trazado_8911_00000056403057503990979680000009460450427016528051_);}
	.st6{clip-path:url(#SVGID_00000003787801924510789130000001563201872661693845_);}
	.st7{fill:url(#Trazado_8913_00000041266264082385243650000009822541603311378364_);}
	.st8{fill:#32A947;}
	.st9{fill:#135DB2;}
	.st10{fill:#1E6E3C;}
</style>
<g id="Grupo_3295">
	<g id="Grupo_3191">
		<g id="Grupo_3048">
			<path id="Trazado_8905" class="st0" d="M18.2,23.1h-4C10.7,17.4,7.4,11.5,4.1,5.8c0.7-1.2,1.4-2.3,2-3.5
				C10.1,9.2,14.2,16.1,18.2,23.1"/>
		</g>
		<g id="Grupo_3049">
			<path id="Trazado_8906" class="st0" d="M18.5,2.2c0.7,1.2,1.4,2.3,2,3.5c-0.5,1-1.1,1.9-1.6,2.8h-4c0-0.1,0.1-0.2,0.2-0.4
				c0.5-0.9,1-1.8,1.6-2.7C17.2,4.4,17.8,3.3,18.5,2.2"/>
		</g>
		<g id="Grupo_3050">
			<path id="Trazado_8907" class="st0" d="M2.3,8.9h3.2c0.7,1.1,1.4,2.4,2.1,3.6H0.3c0-0.2,0.1-0.3,0.2-0.4C1,11,1.7,9.9,2.3,8.9"/>
		</g>
		<g id="Grupo_3051">
			<path id="Trazado_8908" class="st0" d="M22.3,8.9c0.7,1.1,1.4,2.4,2,3.6H13.9c-0.5,0.1-1,0.1-1.5,0c-0.2-0.1-0.4-0.6-0.5-0.9
				c-0.5-0.9-1.2-1.9-1.5-2.7H22.3z"/>
		</g>
		<g id="Grupo_3052">
			<path id="Trazado_8909" class="st0" d="M12.6,12.8h3.9c-0.6,1.1-1.3,2.2-1.9,3.4C13.9,15,13.2,13.9,12.6,12.8"/>
		</g>
		<g id="Grupo_3190">
			<g id="Grupo_3036">
				<path id="Trazado_8893" class="st0" d="M29.5,11.3c0,0-1.6-0.5-2.4,0.2c-0.7,0.6-0.9,1.5-0.5,2.3c0.2,0.5,0.7,0.8,1.2,0.7
					c0.3,0,0.6,0,0.9-0.1c0.1,0,0.2-0.1,0.2-0.2c0-0.2,0-0.9,0-0.9s0-0.1-0.1-0.1h-0.5c-0.1,0-0.1-0.1-0.1-0.2v-0.4
					c0-0.1,0.1-0.2,0.2-0.1h1.5c0,0,0.1,0,0.1,0.2s-0.1,2.2-0.1,2.2s0,0.2-0.3,0.3c-1.1,0.2-2.2,0.1-3.2-0.2c-1.1-0.6-1-2.2-0.8-2.8
					c0.2-0.7,0.7-1.3,1.5-1.6c0.8-0.2,1.6-0.3,2.4-0.1c0.1,0,0.3,0,0.3,0.2s0,0.6,0,0.6S29.7,11.5,29.5,11.3"/>
			</g>
			<g id="Grupo_3037">
				<path id="Trazado_8894" class="st0" d="M30.8,10.6c0,0-0.1,3-0.2,4.3c0,0.1,0.1,0.2,0.2,0.2c0,0,0,0,0,0h0.7
					c0.1,0,0.2-0.1,0.2-0.2c0,0,0,0,0,0c0-0.2,0.1-3.7,0.1-3.7c0-0.1,0.1-0.2,0.2-0.2h0.8c0,0,0.7,0,0.7,0.6c0,0.4-0.3,0.7-0.7,0.7
					c-0.2,0-0.5,0-0.7,0c0,0,0,0,0,0.1c0,0.1,0.7,1.4,1,2.3c0,0,0.1,0.2,0.2,0.2h0.9c0,0,0.1,0,0-0.1s-0.7-1.3-0.7-1.3l-0.3-0.5
					c0,0-0.1-0.1,0.1-0.2c0.3-0.1,0.5-0.2,0.7-0.3c0.3-0.3,0.4-0.6,0.4-1c0-0.5-0.3-1-0.8-1.1c-0.3,0-0.6-0.1-0.9-0.1h-1.6
					C30.9,10.5,30.8,10.5,30.8,10.6L30.8,10.6z"/>
			</g>
			<g id="Grupo_3038">
				<path id="Trazado_8895" class="st0" d="M35.1,10.6c0,0-0.1,2.3-0.1,2.6c-0.1,0.5,0,1.1,0.4,1.5c0.5,0.3,1,0.5,1.5,0.5
					c0.7,0,1.3-0.2,1.9-0.6c0.2-0.3,0.4-0.6,0.4-0.9l0.2-3.1c0,0,0-0.2-0.1-0.2h-0.8c-0.1,0-0.2,0.1-0.2,0.2c0,0.2-0.2,2.8-0.2,2.8
					c0,0.6-0.5,1.1-1.1,1.1c0,0,0,0,0,0H37c-0.5,0-1-0.3-1-0.9c0,0,0,0,0,0v-0.1c0-0.5,0.1-2.8,0.1-2.8s0-0.2-0.1-0.2h-0.8
					C35.2,10.5,35.1,10.5,35.1,10.6L35.1,10.6z"/>
			</g>
			<g id="Grupo_3039">
				<path id="Trazado_8896" class="st0" d="M40.2,10.7c0,0,0,0.9-0.2,4.2c0,0,0,0.3,0.1,0.3h0.7c0.1,0,0.1-0.1,0.1-0.1c0,0,0,0,0,0
					c0-0.1,0.1-3.7,0.1-3.7c0-0.1,0.1-0.2,0.2-0.2H42c0.3,0,0.6,0.2,0.6,0.5c0,0,0,0,0,0l0,0c0,0.3-0.2,0.6-0.5,0.7
					c-0.2,0-0.4,0-0.6,0h-0.2l0.1,0.5c0,0.1,0.1,0.2,0.2,0.2h0.5c0.5,0,0.9-0.3,1.2-0.7c0.1-0.3,0.2-0.5,0.2-0.8
					c0-0.5-0.2-0.9-0.6-1.1c-0.2-0.1-0.3-0.1-0.5-0.1h-2.1c-0.1,0-0.1,0-0.1,0.1c0,0,0,0,0,0V10.7z"/>
			</g>
			<g id="Grupo_3040">
				<path id="Trazado_8897" class="st0" d="M49.2,12.5c0-0.5-0.2-1.1-0.6-1.4c-0.5-0.5-1.2-0.7-1.9-0.7c-0.7,0-1.4,0.2-1.9,0.7
					c-0.4,0.5-0.7,1-0.7,1.6c-0.1,0.6,0,1.2,0.4,1.6c0.5,0.6,1.3,1,2.1,1c0.5,0,1-0.1,1.5-0.4c0.4-0.2,0.8-0.6,1-1
					C49.1,13.5,49.2,13,49.2,12.5 M48.2,13.2c-0.3,0.8-1.1,1.3-2,1c-0.8-0.3-1.3-1.1-1-2c0.2-0.8,1-1.2,1.8-1.1
					C47.9,11.4,48.4,12.3,48.2,13.2C48.2,13.1,48.2,13.1,48.2,13.2"/>
			</g>
			<g id="Grupo_3041">
				<path id="Trazado_8898" class="st1" d="M44.7,16.4h2.5c0,0,0.2,0,0.1,0.2s-1.6,6.2-2.2,9.2c0,0-0.1,0.3-0.2,0.3h-2.7
					c0,0-0.1,0-0.1-0.2S43,23,43,22.9s1-3.9,1.4-6.2C44.4,16.7,44.4,16.4,44.7,16.4"/>
			</g>
			<g id="Grupo_3042">
				<path id="Trazado_8899" class="st1" d="M38.8,16.7l-0.3,1.6c0,0,0,0.2-0.3,0.1s-2.5-0.6-3.6,0c0,0-0.9,0.5-0.1,1.1
					c0.8,0.6,2.2,1.5,3.1,2.2c0.8,0.6,1,1.8,0.4,2.7c-0.1,0.1-0.2,0.3-0.4,0.4c-0.9,0.7-2,1.2-3.2,1.2H5C5,26,5,26,5,25.9
					c0,0,0,0,0,0l1-1.5c0.1-0.1,0.3-0.2,0.4-0.2h27.2c0.4,0,0.8-0.2,1-0.5c0.2-0.3,0.1-0.6-0.1-0.8l0,0c-0.1-0.1-2.8-2-2.8-2
					s-2.1-1.5-0.3-3.2c1.8-1.7,4.3-1.4,4.8-1.4c0.7,0,2.5,0.2,2.5,0.2S38.8,16.6,38.8,16.7"/>
			</g>
			<g id="Grupo_3043">
				<path id="Trazado_8900" class="st1" d="M60.6,17c-1.2-0.7-2.5-0.9-3.9-0.8c-1.4,0.1-4.1,0-4.3,0c-0.1,0-0.2,0.1-0.3,0.2l0,0v0.3
					c-0.5,2.5-2.3,9.3-2.3,9.3v0.1c0,0.1,0,0.1,0,0.1h3.5c0.5,0,3.7,0.1,5.2-0.8c1.6-1,2.8-2.5,3.2-4.4C62.2,19.6,61.7,18,60.6,17
					 M57.7,23.1c-0.6,0.5-1.1,1-4.1,1c0,0-0.1,0-0.1-0.2s1.3-5.2,1.3-5.2c0-0.1,0.1-0.2,0.2-0.2h1.8c0,0,2-0.2,2.1,1.3
					C59,21,58.5,22.2,57.7,23.1"/>
			</g>
			<g id="Grupo_3044">
				<path id="Trazado_8901" class="st1" d="M66.1,17.4c0,0.7-0.5,1.2-1.2,1.3c0,0,0,0,0,0l0,0c-0.7,0-1.2-0.5-1.3-1.2l0,0
					c0-0.7,0.6-1.2,1.3-1.2c0,0,0,0,0,0l0,0C65.5,16.2,66.1,16.7,66.1,17.4C66.1,17.4,66.1,17.4,66.1,17.4L66.1,17.4 M63.9,17.4
					c0,0.5,0.4,1,0.9,1l0,0c0.5,0,0.9-0.4,0.9-0.9l0,0c0-0.5-0.4-1-0.9-1l0,0C64.3,16.5,63.9,16.9,63.9,17.4
					C63.9,17.4,63.9,17.4,63.9,17.4L63.9,17.4 M64.7,18.1h-0.3v-1.2c0.2,0,0.3,0,0.5,0c0.1,0,0.3,0,0.4,0.1c0.1,0.1,0.1,0.2,0.1,0.3
					c0,0.1-0.1,0.3-0.3,0.3l0,0c0.1,0,0.2,0.2,0.2,0.3c0,0.1,0,0.2,0.1,0.3h-0.3c0-0.1-0.1-0.2-0.1-0.3c0-0.1-0.1-0.2-0.2-0.2h-0.1
					V18.1z M64.7,17.4h0.1c0.2,0,0.3-0.1,0.3-0.2c0-0.1-0.1-0.2-0.3-0.2c0,0-0.1,0-0.2,0L64.7,17.4z"/>
			</g>
			<g>
				<defs>
					<path id="SVGID_1_" d="M6.4,2.1c0.6,1.1,1.3,2.4,2,3.5h7.7c0.6-1,1.2-2.1,1.8-3.1l0,0c0.1-0.1,0.2-0.3,0.2-0.4L6.4,2.1z"/>
				</defs>
				<clipPath id="SVGID_00000126301804004179144830000002843260605390881198_">
					<use xlink:href="#SVGID_1_"  style="overflow:visible;"/>
				</clipPath>
				<g style="clip-path:url(#SVGID_00000126301804004179144830000002843260605390881198_);">
					<g id="Grupo_3047">
						<g id="Grupo_3046">
							
								<linearGradient id="Trazado_8903_00000039837360176297286960000012638017643951748226_" gradientUnits="userSpaceOnUse" x1="-580.1349" y1="-319.5347" x2="-579.985" y2="-319.5347" gradientTransform="matrix(65.87 0 0 36.92 38219.8945 11817.7422)">
								<stop  offset="0" style="stop-color:#FFFFFF"/>
								<stop  offset="0.1" style="stop-color:#EFF3F9"/>
								<stop  offset="0.2" style="stop-color:#D8E2F2"/>
								<stop  offset="0.3" style="stop-color:#BCCEE9"/>
								<stop  offset="0.4" style="stop-color:#9EB9DF"/>
								<stop  offset="0.5" style="stop-color:#7EA3D5"/>
								<stop  offset="0.6" style="stop-color:#5D8CCA"/>
								<stop  offset="0.7" style="stop-color:#3C77BF"/>
								<stop  offset="0.8" style="stop-color:#1A61B4"/>
								<stop  offset="0.9" style="stop-color:#135DB2"/>
								<stop  offset="1" style="stop-color:#135DB2"/>
							</linearGradient>
							<path id="Trazado_8903" style="fill:url(#Trazado_8903_00000039837360176297286960000012638017643951748226_);" d="M0.2,2.1
								h65.9V39H0.2V2.1z"/>
						</g>
					</g>
				</g>
			</g>
			<g>
				<defs>
					<path id="SVGID_00000031912125454522388070000009529898848902026404_" d="M0.7,12.8v0.9c1.8,3.1,3.6,6.2,5.4,9.3l0,0
						c0.7-1.2,1.4-2.4,2-3.5l0,0c-1.3-2.2-2.6-4.5-3.9-6.7L0.7,12.8"/>
				</defs>
				<clipPath id="SVGID_00000042712904697400373030000008054646895424663449_">
					<use xlink:href="#SVGID_00000031912125454522388070000009529898848902026404_"  style="overflow:visible;"/>
				</clipPath>
				<g style="clip-path:url(#SVGID_00000042712904697400373030000008054646895424663449_);">
					<g id="Grupo_3055">
						<g id="Grupo_3054">
							
								<linearGradient id="Trazado_8911_00000090267456276036726830000017703022362018193845_" gradientUnits="userSpaceOnUse" x1="-580.205" y1="-319.5347" x2="-580.105" y2="-319.5347" gradientTransform="matrix(65.87 0 0 36.92 38219.8945 11817.7422)">
								<stop  offset="0" style="stop-color:#135DB2"/>
								<stop  offset="0.1" style="stop-color:#135DB2"/>
								<stop  offset="0.2" style="stop-color:#1E64B5"/>
								<stop  offset="0.3" style="stop-color:#3A75BE"/>
								<stop  offset="0.4" style="stop-color:#5788C8"/>
								<stop  offset="0.5" style="stop-color:#749BD1"/>
								<stop  offset="0.6" style="stop-color:#91AFDB"/>
								<stop  offset="0.7" style="stop-color:#AEC4E4"/>
								<stop  offset="0.8" style="stop-color:#CBD8EE"/>
								<stop  offset="0.9" style="stop-color:#E7EDF7"/>
								<stop  offset="1" style="stop-color:#FFFFFF"/>
							</linearGradient>
							<path id="Trazado_8911" style="fill:url(#Trazado_8911_00000090267456276036726830000017703022362018193845_);" d="M0.2,2.1
								h65.9V39H0.2V2.1z"/>
						</g>
					</g>
				</g>
			</g>
			<g>
				<defs>
					<path id="SVGID_00000127032804973020523420000010535849137294161045_" d="M20.3,12.8c-1.3,2.2-2.6,4.4-3.9,6.6l0,0
						c0.7,1.1,1.4,2.3,2,3.5l0,0c1.9-3.2,3.8-6.6,5.7-9.9l0,0c0-0.1,0.2-0.2,0.1-0.3H20.3z"/>
				</defs>
				<clipPath id="SVGID_00000055664728806345367700000017177925046114117546_">
					<use xlink:href="#SVGID_00000127032804973020523420000010535849137294161045_"  style="overflow:visible;"/>
				</clipPath>
				<g style="clip-path:url(#SVGID_00000055664728806345367700000017177925046114117546_);">
					<g id="Grupo_3057">
						<g id="Grupo_3056">
							
								<linearGradient id="Trazado_8913_00000078033317240239497110000007563806831094226565_" gradientUnits="userSpaceOnUse" x1="-579.965" y1="-319.5347" x2="-579.865" y2="-319.5347" gradientTransform="matrix(65.87 0 0 36.92 38219.8945 11817.7422)">
								<stop  offset="0" style="stop-color:#135DB2"/>
								<stop  offset="0.1" style="stop-color:#135DB2"/>
								<stop  offset="0.2" style="stop-color:#1D63B5"/>
								<stop  offset="0.3" style="stop-color:#3874BE"/>
								<stop  offset="0.4" style="stop-color:#5486C7"/>
								<stop  offset="0.5" style="stop-color:#7099D0"/>
								<stop  offset="0.6" style="stop-color:#8DADD9"/>
								<stop  offset="0.7" style="stop-color:#AAC1E3"/>
								<stop  offset="0.8" style="stop-color:#C7D6EC"/>
								<stop  offset="0.9" style="stop-color:#E4EBF6"/>
								<stop  offset="1" style="stop-color:#FFFFFF"/>
							</linearGradient>
							<path id="Trazado_8913" style="fill:url(#Trazado_8913_00000078033317240239497110000007563806831094226565_);" d="M0.2,2.1
								h65.9V39H0.2V2.1z"/>
						</g>
					</g>
				</g>
			</g>
			<g id="Grupo_3058">
				<path id="Trazado_8915" class="st0" d="M10,16.8c0.7,1.1,1.4,2.3,2.1,3.5c-0.5,1-1.1,1.9-1.6,2.8h-4c0-0.1,0.1-0.2,0.1-0.4
					C7.7,20.8,9,18.8,10,16.8"/>
			</g>
		</g>
	</g>
</g>
<path id="Trazado_5519" class="st8" d="M89.9,11.9H118l-0.6,1H89.3L89.9,11.9z"/>
<path id="Trazado_5520" class="st9" d="M86.5,17.5l-5.3,8.7l-0.8,1.1h29.3l0.7-1.2H82.9l5.3-8.6H86.5z"/>
<path id="Trazado_5521" class="st8" d="M94.4,4.6h3.7l1.1,6.8h-9L94.4,4.6z"/>
<path id="Trazado_5522" class="st8" d="M103.5,15.9l1.4-2.3H88.9l-1.4,2.3h9L91.4,24h3.7l2-3.3h2.3l1.9-3.2h-2.3l1-1.6L103.5,15.9z"
	/>
<path id="Trazado_5523" class="st9" d="M96.6,1l-0.8,1.2h25.8l-4.4,8.1h1.7l5-9.3L96.6,1L96.6,1z"/>
<path id="Trazado_5524" class="st8" d="M117.1,13.6h-4l-1.7,2.7v-2.7h-6l-1.4,2.3h1.2l-5,8.1h4.4l2.2-3.6V24h4.4L117.1,13.6z"/>
<path id="Trazado_4302" class="st10" d="M203,5.3c0,0-1.1,4.2-2.2,7.8h3.7c1.1-3.6,2.2-7.8,2.2-7.8L203,5.3z"/>
<path id="Trazado_4303" class="st10" d="M198.9,17.7c-1.4,1.5-3.2,1.4-3.1-0.9c0.1-0.8,0.2-1.6,0.4-2.4h-3.6c-0.2,1-0.4,1.9-0.6,2.6
	c-0.6,3.4,0,6.2,4.1,6.1s5.6-2.7,6.8-5.5c0.3-0.7,0.7-1.8,1.1-3.1h-3.7C200.1,15.6,199.6,16.7,198.9,17.7"/>
<path id="Trazado_4304" class="st10" d="M196.6,13.1c1-3.5,2.4-7.8,2.4-7.8h-3.7c0,0-1.3,4.2-2.3,7.8H196.6z"/>
<path id="Trazado_4305" class="st10" d="M179.2,22.3h4.2l1.7-6.2c0,0,0.5,0,2.4,0c1.5,0,2.9-0.6,3.9-1.7h-9.8L179.2,22.3z"/>
<path id="Trazado_4306" class="st10" d="M192.2,13.1c0.2-0.5,0.5-1,0.6-1.5c1.3-3.9-0.5-6.3-3.2-6.3h-5.4l-2.3,7.8L192.2,13.1z
	 M187.2,9c1.4,0,1.9,0.3,1.8,1.3s-0.5,2.2-1.8,2.2c-0.3,0-0.7,0-1.1,0C186.2,12.5,187.1,9.4,187.2,9"/>
<path id="Trazado_4308" class="st10" d="M182.2,8.8h-3.7l-1.3,4.3h3.7L182.2,8.8z"/>
<path id="Trazado_4309" class="st10" d="M176.7,14.4l-2.4,7.9h3.8l2.3-7.9H176.7z"/>
<path id="Trazado_4310" class="st10" d="M173.3,5.3h-4.6l-2.5,7.8h4.5L173.3,5.3z"/>
<path id="Trazado_4311" class="st10" d="M169.4,17.9l1.1-3.4h-4.5l-2.5,7.9h10.4l1.4-4.4H169.4z"/>
<path id="Trazado_4312" class="st10" d="M135.5,22.3l29.4-9.1l2.9-7.9L135.5,22.3z M135.5,22.3h26l2.8-7.6L135.5,22.3z"/>
<path id="Trazado_4313" class="st10" d="M179.6,5.3l-0.9,2.8h3.7l0.9-2.9L179.6,5.3z"/>
</svg>
