<svg id="Capa_1" data-name="Capa 1" xmlns="http://www.w3.org/2000/svg" xmlns:xlink="http://www.w3.org/1999/xlink" viewBox="0 0 206.57 37.95"><defs><style>.cls-1{fill:none;}.cls-2{fill:#12356b;}.cls-3{fill:#ff371f;}.cls-4{clip-path:url(#clip-path);}.cls-5{fill:url(#Degradado_sin_nombre_4);}.cls-6{clip-path:url(#clip-path-2);}.cls-7{fill:url(#Degradado_sin_nombre_2);}.cls-8{clip-path:url(#clip-path-3);}.cls-9{fill:url(#Degradado_sin_nombre_3);}.cls-10{fill:#32a947;}.cls-11{fill:#135db2;}.cls-12{fill:#1e6e3c;}</style><clipPath id="clip-path" transform="translate(-2.06 -3.38)"><path class="cls-1" d="M8.27,4.42c.62,1.13,1.32,2.41,2.05,3.52H18c.6-1,1.23-2.1,1.8-3.09h0c.08-.14.21-.28.18-.43Z"/></clipPath><linearGradient id="Degradado_sin_nombre_4" x1="-10.14" y1="733.55" x2="-9.99" y2="733.55" gradientTransform="matrix(65.87, 0, 0, -36.92, 676.17, 27101.7)" gradientUnits="userSpaceOnUse"><stop offset="0" stop-color="#fff"/><stop offset="0.1" stop-color="#eff3f9"/><stop offset="0.2" stop-color="#d8e2f2"/><stop offset="0.3" stop-color="#bccee9"/><stop offset="0.4" stop-color="#9eb9df"/><stop offset="0.5" stop-color="#7ea3d5"/><stop offset="0.6" stop-color="#5d8cca"/><stop offset="0.7" stop-color="#3c77bf"/><stop offset="0.8" stop-color="#1a61b4"/><stop offset="0.9" stop-color="#135db2"/><stop offset="1" stop-color="#135db2"/></linearGradient><clipPath id="clip-path-2" transform="translate(-2.06 -3.38)"><path class="cls-1" d="M2.59,15.14v.91C4.4,19.13,6.15,22.26,8,25.32H8c.66-1.18,1.35-2.35,2-3.52h0c-1.29-2.21-2.56-4.45-3.85-6.66H2.59"/></clipPath><linearGradient id="Degradado_sin_nombre_2" x1="-10.21" y1="733.55" x2="-10.11" y2="733.55" gradientTransform="matrix(65.87, 0, 0, -36.92, 676.17, 27101.7)" gradientUnits="userSpaceOnUse"><stop offset="0" stop-color="#135db2"/><stop offset="0.1" stop-color="#135db2"/><stop offset="0.2" stop-color="#1e64b5"/><stop offset="0.3" stop-color="#3a75be"/><stop offset="0.4" stop-color="#5788c8"/><stop offset="0.5" stop-color="#749bd1"/><stop offset="0.6" stop-color="#91afdb"/><stop offset="0.7" stop-color="#aec4e4"/><stop offset="0.8" stop-color="#cbd8ee"/><stop offset="0.9" stop-color="#e7edf7"/><stop offset="1" stop-color="#fff"/></linearGradient><clipPath id="clip-path-3" transform="translate(-2.06 -3.38)"><path class="cls-1" d="M22.13,15.14c-1.32,2.17-2.56,4.43-3.85,6.63h0c.7,1.15,1.35,2.35,2,3.5h0c1.89-3.24,3.8-6.62,5.68-9.85h0c0-.09.16-.17.12-.28Z"/></clipPath><linearGradient id="Degradado_sin_nombre_3" x1="-9.97" y1="733.55" x2="-9.87" y2="733.55" gradientTransform="matrix(65.87, 0, 0, -36.92, 676.17, 27101.7)" gradientUnits="userSpaceOnUse"><stop offset="0" stop-color="#135db2"/><stop offset="0.1" stop-color="#135db2"/><stop offset="0.2" stop-color="#1d63b5"/><stop offset="0.3" stop-color="#3874be"/><stop offset="0.4" stop-color="#5486c7"/><stop offset="0.5" stop-color="#7099d0"/><stop offset="0.6" stop-color="#8dadd9"/><stop offset="0.7" stop-color="#aac1e3"/><stop offset="0.8" stop-color="#c7d6ec"/><stop offset="0.9" stop-color="#e4ebf6"/><stop offset="1" stop-color="#fff"/></linearGradient></defs><g id="Grupo_3295" data-name="Grupo 3295"><g id="Grupo_3191" data-name="Grupo 3191"><g id="Grupo_3048" data-name="Grupo 3048"><path id="Trazado_8905" data-name="Trazado 8905" class="cls-2" d="M20,25.47H16C12.57,19.73,9.29,13.88,5.91,8.12c.68-1.18,1.36-2.35,2-3.53Q14,15,20,25.47" transform="translate(-2.06 -3.38)"/></g><g id="Grupo_3049" data-name="Grupo 3049"><path id="Trazado_8906" data-name="Trazado 8906" class="cls-2" d="M20.3,4.59c.69,1.17,1.35,2.35,2,3.53-.51,1-1.06,1.86-1.59,2.78h-4c0-.14.11-.24.17-.35.52-.9,1-1.83,1.57-2.74.63-1.07,1.23-2.18,1.85-3.22" transform="translate(-2.06 -3.38)"/></g><g id="Grupo_3050" data-name="Grupo 3050"><path id="Trazado_8907" data-name="Trazado 8907" class="cls-2" d="M4.11,11.23h3.2c.72,1.14,1.43,2.4,2.05,3.55H2.11a.86.86,0,0,1,.18-.43c.57-1,1.25-2.1,1.82-3.12" transform="translate(-2.06 -3.38)"/></g><g id="Grupo_3051" data-name="Grupo 3051"><path id="Trazado_8908" data-name="Trazado 8908" class="cls-2" d="M24.11,11.23c.72,1.13,1.44,2.39,2.05,3.55H15.75a7.22,7.22,0,0,1-1.47,0c-.18-.06-.37-.58-.54-.86-.51-.9-1.17-1.95-1.54-2.69Z" transform="translate(-2.06 -3.38)"/></g><g id="Grupo_3052" data-name="Grupo 3052"><path id="Trazado_8909" data-name="Trazado 8909" class="cls-2" d="M14.43,15.11H18.3c-.62,1.14-1.29,2.24-1.92,3.37-.67-1.1-1.32-2.23-1.95-3.37" transform="translate(-2.06 -3.38)"/></g><g id="Grupo_3190" data-name="Grupo 3190"><g id="Grupo_3036" data-name="Grupo 3036"><path id="Trazado_8893" data-name="Trazado 8893" class="cls-2" d="M31.34,13.67s-1.62-.51-2.44.19a1.94,1.94,0,0,0-.52,2.29,1.26,1.26,0,0,0,1.22.74,3.35,3.35,0,0,0,.89-.12.21.21,0,0,0,.16-.21c0-.17,0-.88,0-.88s0-.12-.12-.12H30a.25.25,0,0,1-.1-.2V15a.21.21,0,0,1,.22-.14h1.46s.13,0,.12.23-.1,2.21-.1,2.21,0,.22-.28.26a5.64,5.64,0,0,1-3.2-.24c-1.1-.61-1-2.18-.82-2.81a2.22,2.22,0,0,1,1.47-1.56,4.62,4.62,0,0,1,2.42-.08c.1,0,.33,0,.34.21s0,.58,0,.58,0,.19-.24.06" transform="translate(-2.06 -3.38)"/></g><g id="Grupo_3037" data-name="Grupo 3037"><path id="Trazado_8894" data-name="Trazado 8894" class="cls-2" d="M32.67,13s-.06,3-.17,4.31a.19.19,0,0,0,.16.22h.7a.17.17,0,0,0,.16-.19c0-.19.1-3.67.1-3.67a.17.17,0,0,1,.15-.17h.77s.67,0,.67.63a.84.84,0,0,1-.66.74,4,4,0,0,1-.7,0s-.05,0,0,.1.67,1.41,1,2.29c0,0,.08.21.24.21H36s.11,0,0-.14S35.28,16,35.28,16L35,15.53s-.09-.15.07-.2a1.53,1.53,0,0,0,.7-.34,1.47,1.47,0,0,0,.41-1,1.1,1.1,0,0,0-.84-1.13,4.64,4.64,0,0,0-.91-.06H32.78a.14.14,0,0,0-.11.14Z" transform="translate(-2.06 -3.38)"/></g><g id="Grupo_3038" data-name="Grupo 3038"><path id="Trazado_8895" data-name="Trazado 8895" class="cls-2" d="M36.94,13s-.1,2.27-.12,2.63a1.75,1.75,0,0,0,.4,1.54,2.71,2.71,0,0,0,1.55.49,2.89,2.89,0,0,0,1.88-.59,1.49,1.49,0,0,0,.38-.94L41.22,13s0-.19-.09-.19h-.8a.2.2,0,0,0-.17.2c0,.2-.15,2.81-.15,2.81a1.08,1.08,0,0,1-1.1,1.06h-.06a.93.93,0,0,1-1-.87v-.11c0-.49.14-2.85.14-2.85s0-.23-.09-.23h-.85s-.1,0-.11.14Z" transform="translate(-2.06 -3.38)"/></g><g id="Grupo_3039" data-name="Grupo 3039"><path id="Trazado_8896" data-name="Trazado 8896" class="cls-2" d="M42.08,13.05s0,.92-.16,4.22c0,0,0,.27.12.28h.72a.13.13,0,0,0,.13-.14c0-.13.1-3.72.1-3.72a.17.17,0,0,1,.17-.16h.72a.55.55,0,0,1,.55.56v0a.66.66,0,0,1-.5.7,1.68,1.68,0,0,1-.63,0h-.19l.11.5a.29.29,0,0,0,.25.22H44a1.62,1.62,0,0,0,1.23-.7,1.69,1.69,0,0,0,.23-.84,1.26,1.26,0,0,0-.63-1.13,1.15,1.15,0,0,0-.52-.1H42.18a.1.1,0,0,0-.1.12Z" transform="translate(-2.06 -3.38)"/></g><g id="Grupo_3040" data-name="Grupo 3040"><path id="Trazado_8897" data-name="Trazado 8897" class="cls-2" d="M51,14.81a2.11,2.11,0,0,0-.64-1.44,2.58,2.58,0,0,0-1.91-.66,2.86,2.86,0,0,0-1.91.71,2.64,2.64,0,0,0-.69,1.64,2.18,2.18,0,0,0,.37,1.64,2.79,2.79,0,0,0,2.14,1,3.91,3.91,0,0,0,1.46-.35,1.86,1.86,0,0,0,.95-1A3.27,3.27,0,0,0,51,14.81m-1,.7a1.57,1.57,0,1,1-1.17-2,1.63,1.63,0,0,1,1.17,2" transform="translate(-2.06 -3.38)"/></g><g id="Grupo_3041" data-name="Grupo 3041"><path id="Trazado_8898" data-name="Trazado 8898" class="cls-3" d="M46.52,18.76h2.55s.17,0,.13.16S47.58,25.15,47,28.16c0,0-.06.31-.2.31H44.08s-.13,0-.07-.2.8-2.9.84-3.06,1-3.88,1.43-6.18c0,0,0-.27.24-.27" transform="translate(-2.06 -3.38)"/></g><g id="Grupo_3042" data-name="Grupo 3042"><path id="Trazado_8899" data-name="Trazado 8899" class="cls-3" d="M40.6,19.08l-.33,1.6s0,.18-.32.11-2.48-.64-3.64.05c0,0-.91.45-.13,1.08s2.23,1.47,3.07,2.22a1.9,1.9,0,0,1,.36,2.66,2.16,2.16,0,0,1-.37.37,5.45,5.45,0,0,1-3.15,1.22H6.85a.08.08,0,0,1,0-.14l1-1.49a.48.48,0,0,1,.41-.19h27.2a1.33,1.33,0,0,0,1-.53.57.57,0,0,0-.13-.79l0,0c-.14-.12-2.83-2-2.83-2s-2.09-1.49-.29-3.19,4.28-1.35,4.78-1.35c.71,0,2.53.24,2.53.24s.1,0,.08.18" transform="translate(-2.06 -3.38)"/></g><g id="Grupo_3043" data-name="Grupo 3043"><path id="Trazado_8900" data-name="Trazado 8900" class="cls-3" d="M62.4,19.33a6.16,6.16,0,0,0-3.89-.77c-1.43.06-4.13,0-4.33,0a.23.23,0,0,0-.26.19h0l0,.31c-.45,2.47-2.28,9.34-2.28,9.34l0,.13c0,.12,0,.13,0,.13h3.5c.55,0,3.69.08,5.25-.82a7.08,7.08,0,0,0,3.2-4.37,4.1,4.1,0,0,0-1.15-4.15m-2.93,6.11c-.59.53-1.07,1-4.09,1,0,0-.11,0-.08-.18S56.6,21,56.6,21a.22.22,0,0,1,.24-.18h1.77s2-.19,2.14,1.3a4.46,4.46,0,0,1-1.28,3.34" transform="translate(-2.06 -3.38)"/></g><g id="Grupo_3044" data-name="Grupo 3044"><path id="Trazado_8901" data-name="Trazado 8901" class="cls-3" d="M67.93,19.74A1.23,1.23,0,0,1,66.72,21h0a1.25,1.25,0,0,1-1.26-1.22v0a1.24,1.24,0,0,1,1.26-1.22h0a1.22,1.22,0,0,1,1.25,1.2v0m-2.2,0a1,1,0,0,0,.91,1h0a.94.94,0,0,0,.93-.94v0a1,1,0,0,0-.91-1h0a.93.93,0,0,0-.94.95v0m.75.64h-.28V19.16a2.38,2.38,0,0,1,.46,0,.8.8,0,0,1,.43.09.36.36,0,0,1,.12.27.31.31,0,0,1-.26.28v0a.36.36,0,0,1,.23.3.8.8,0,0,0,.09.3H67a1,1,0,0,1-.1-.3c0-.13-.1-.19-.25-.19h-.14Zm0-.69h.13c.16,0,.28-.06.28-.18s-.08-.18-.26-.18a.38.38,0,0,0-.15,0Z" transform="translate(-2.06 -3.38)"/></g><g class="cls-4"><g id="Grupo_3047" data-name="Grupo 3047"><g id="Grupo_3046" data-name="Grupo 3046"><path id="Trazado_8903" data-name="Trazado 8903" class="cls-5" d="M2.06,4.42H67.93V41.33H2.06Z" transform="translate(-2.06 -3.38)"/></g></g></g><g class="cls-6"><g id="Grupo_3055" data-name="Grupo 3055"><g id="Grupo_3054" data-name="Grupo 3054"><path id="Trazado_8911" data-name="Trazado 8911" class="cls-7" d="M2.06,4.42H67.93V41.33H2.06Z" transform="translate(-2.06 -3.38)"/></g></g></g><g class="cls-8"><g id="Grupo_3057" data-name="Grupo 3057"><g id="Grupo_3056" data-name="Grupo 3056"><path id="Trazado_8913" data-name="Trazado 8913" class="cls-9" d="M2.06,4.42H67.93V41.33H2.06Z" transform="translate(-2.06 -3.38)"/></g></g></g><g id="Grupo_3058" data-name="Grupo 3058"><path id="Trazado_8915" data-name="Trazado 8915" class="cls-2" d="M11.89,19.16c.72,1.14,1.36,2.35,2.06,3.5-.54,1-1.08,1.92-1.65,2.84h-4c0-.08.07-.24.15-.38,1.09-1.95,2.35-4,3.44-6" transform="translate(-2.06 -3.38)"/></g></g></g></g><path id="Trazado_5519" data-name="Trazado 5519" class="cls-10" d="M91.79,14.25h28.09l-.55,1H91.13Z" transform="translate(-2.06 -3.38)"/><path id="Trazado_5520" data-name="Trazado 5520" class="cls-11" d="M88.35,19.87,83,28.58l-.75,1.12h29.27l.68-1.21H84.71L90,19.87Z" transform="translate(-2.06 -3.38)"/><path id="Trazado_5521" data-name="Trazado 5521" class="cls-10" d="M96.24,6.91h3.7l1.14,6.76h-9Z" transform="translate(-2.06 -3.38)"/><path id="Trazado_5522" data-name="Trazado 5522" class="cls-10" d="M105.35,18.26,106.78,16H90.71l-1.37,2.27h9l-5.06,8.1H97l2-3.29h2.33l1.93-3.2h-2.32l1-1.6Z" transform="translate(-2.06 -3.38)"/><path id="Trazado_5523" data-name="Trazado 5523" class="cls-11" d="M98.48,3.38,97.67,4.6h25.76L119,12.66h1.73l5-9.27H98.48Z" transform="translate(-2.06 -3.38)"/><path id="Trazado_5524" data-name="Trazado 5524" class="cls-10" d="M118.93,16h-4l-1.71,2.73V16h-6l-1.41,2.27h1.24l-5,8.1h4.45l2.24-3.62v3.62h4.45Z" transform="translate(-2.06 -3.38)"/><path id="Trazado_4302" data-name="Trazado 4302" class="cls-12" d="M204.88,7.67s-1.06,4.24-2.19,7.81h3.7c1.12-3.63,2.24-7.81,2.24-7.81Z" transform="translate(-2.06 -3.38)"/><path id="Trazado_4303" data-name="Trazado 4303" class="cls-12" d="M200.78,20.08c-1.38,1.54-3.18,1.38-3.1-.9a13.8,13.8,0,0,1,.45-2.39h-3.56c-.25,1-.45,1.86-.57,2.56-.56,3.4,0,6.17,4.09,6.08s5.56-2.68,6.78-5.51c.31-.72.7-1.84,1.11-3.13h-3.72a12.17,12.17,0,0,1-1.48,3.29" transform="translate(-2.06 -3.38)"/><path id="Trazado_4304" data-name="Trazado 4304" class="cls-12" d="M198.48,15.48c1-3.47,2.44-7.83,2.44-7.83h-3.71s-1.33,4.19-2.31,7.83Z" transform="translate(-2.06 -3.38)"/><path id="Trazado_4305" data-name="Trazado 4305" class="cls-12" d="M181.05,24.66h4.17l1.72-6.22s.46,0,2.36,0a5,5,0,0,0,3.87-1.7h-9.79Z" transform="translate(-2.06 -3.38)"/><path id="Trazado_4306" data-name="Trazado 4306" class="cls-12" d="M194.07,15.48a8.89,8.89,0,0,0,.62-1.46c1.28-3.89-.46-6.35-3.18-6.35l-5.43,0-2.32,7.83Zm-5-4.15c1.36,0,1.9.3,1.82,1.3s-.5,2.2-1.77,2.23a9.78,9.78,0,0,1-1.05,0s.89-3.08,1-3.5" transform="translate(-2.06 -3.38)"/><path id="Trazado_4308" data-name="Trazado 4308" class="cls-12" d="M184,11.2h-3.7L179,15.48h3.71Z" transform="translate(-2.06 -3.38)"/><path id="Trazado_4309" data-name="Trazado 4309" class="cls-12" d="M178.59,16.79l-2.36,7.87H180l2.34-7.87Z" transform="translate(-2.06 -3.38)"/><path id="Trazado_4310" data-name="Trazado 4310" class="cls-12" d="M175.18,7.65l-4.55,0-2.46,7.81h4.54Z" transform="translate(-2.06 -3.38)"/><path id="Trazado_4311" data-name="Trazado 4311" class="cls-12" d="M171.2,20.24l1.09-3.45h-4.54l-2.47,7.87h10.37L177,20.24Z" transform="translate(-2.06 -3.38)"/><path id="Trazado_4312" data-name="Trazado 4312" class="cls-12" d="M137.37,24.65l29.37-9.12,2.91-7.86Zm0,0h26l2.8-7.57Z" transform="translate(-2.06 -3.38)"/><path id="Trazado_4313" data-name="Trazado 4313" class="cls-12" d="M181.4,7.67l-.89,2.84h3.72l.86-2.86Z" transform="translate(-2.06 -3.38)"/></svg>