<svg id="Capa_1" data-name="Capa 1" xmlns="http://www.w3.org/2000/svg" xmlns:xlink="http://www.w3.org/1999/xlink" viewBox="0 0 247.1 68.79"><defs><style>.cls-1{fill:none;}.cls-2{fill:#bfd74d;}.cls-3{clip-path:url(#clip-path);}.cls-4{fill:#516065;}</style><clipPath id="clip-path" transform="translate(-15.95 -4.61)"><rect class="cls-1" x="15.95" y="4.61" width="247.1" height="68.78"/></clipPath></defs><g id="Grupo_3521" data-name="Grupo 3521"><g id="Grupo_3503" data-name="Grupo 3503"><path id="Trazado_9195" data-name="Trazado 9195" class="cls-2" d="M16.08,44.4l-.13,6H24V72.86h7V50.41h8l-.13-6Z" transform="translate(-15.95 -4.61)"/></g><g class="cls-3"><g id="Grupo_3505" data-name="Grupo 3505"><g id="Grupo_3504" data-name="Grupo 3504"><path id="Trazado_9196" data-name="Trazado 9196" class="cls-2" d="M64.71,50h-4.3v7.54h4.22c3,0,4.07-.88,4.07-3.86,0-2.76-1-3.68-4-3.68M71,61.19l6.93,11.67H69.8l-5.13-10.3H60.41v10.3H53.57V44.4H64.71c7.46,0,11.19,2.9,11.19,8.94,0,4-1.76,6.85-4.92,7.85" transform="translate(-15.95 -4.61)"/></g></g></g><g id="Grupo_3506" data-name="Grupo 3506"><path id="Trazado_9198" data-name="Trazado 9198" class="cls-2" d="M100.32,44.4,89.79,72.86h7.33l1.71-5.44h10.83l1.67,5.44h7.76L108.39,44.4Zm2.94,8.86,1-3.42h.13l.92,3.46L108,61.9h-7.41Z" transform="translate(-15.95 -4.61)"/></g><g id="Grupo_3507" data-name="Grupo 3507"><path id="Trazado_9199" data-name="Trazado 9199" class="cls-2" d="M150.35,44.4l-3.59,6.44L145.13,54H145l-1.62-3.12-3.55-6.44h-8.29L140,58.13l-8.64,14.73h8.07l4-7.46L145,62.2h.13l1.58,3.16,4.08,7.5h7.85L149.83,58l8.46-13.55Z" transform="translate(-15.95 -4.61)"/></g><path id="Trazado_9200" data-name="Trazado 9200" class="cls-2" d="M173.86,72.86h7.06V44.4h-7.06Z" transform="translate(-15.95 -4.61)"/><g id="Grupo_3508" data-name="Grupo 3508"><path id="Trazado_9201" data-name="Trazado 9201" class="cls-2" d="M256.91,44.4v14l.09,3.5-.09,0-2-2.9L244.41,44.4h-5.74V72.86h6.1V58.17l-.05-3.56.09,0,2,2.94,10.79,15.35h5.48V44.4Z" transform="translate(-15.95 -4.61)"/></g><g class="cls-3"><g id="Grupo_3510" data-name="Grupo 3510"><g id="Grupo_3509" data-name="Grupo 3509"><path id="Trazado_9202" data-name="Trazado 9202" class="cls-2" d="M217,38.08l-5.29,4.61H207l2.47-4.61Zm-7,11.5c-4.35,0-5.87,1.76-5.87,9s1.56,9.07,5.9,9.07,5.83-1.87,5.83-9.07-1.49-9-5.87-9m0,23.8c-8.8,0-12.61-4.65-12.61-14.82s3.7-14.74,12.61-14.74S222.5,48.4,222.5,58.57c0,10.36-3.62,14.82-12.57,14.82" transform="translate(-15.95 -4.61)"/></g></g></g><g id="Grupo_3511" data-name="Grupo 3511"><path id="Trazado_9204" data-name="Trazado 9204" class="cls-4" d="M62.7,9.87H50.6l.25.24v6.67L50.6,17H61.52v2.22H50.6l.25.25v8.14H48.51v-20h14.2Z" transform="translate(-15.95 -4.61)"/></g><g class="cls-3"><g id="Grupo_3520" data-name="Grupo 3520"><g id="Grupo_3512" data-name="Grupo 3512"><path id="Trazado_9205" data-name="Trazado 9205" class="cls-4" d="M83,27.64H80.76V25.7h-.05a6.28,6.28,0,0,1-4.87,2.19c-4.39,0-6.27-2.34-6.27-6.12V12.09h2.27v9.56c0,2.3.67,4.07,4.25,4.07,2.62,0,4.67-1.46,4.67-4.4V12.09H83Z" transform="translate(-15.95 -4.61)"/></g><g id="Grupo_3513" data-name="Grupo 3513"><path id="Trazado_9206" data-name="Trazado 9206" class="cls-4" d="M105.68,27.64h-2.27V18.21c0-2.47-.76-4.2-4.34-4.2-2.62,0-4.77,1.46-4.77,4.4v9.23H92V12.09H94.3V14h0a6.46,6.46,0,0,1,5-2.2c4.1,0,6.37,2.1,6.37,5.88Z" transform="translate(-15.95 -4.61)"/></g><g id="Grupo_3514" data-name="Grupo 3514"><path id="Trazado_9207" data-name="Trazado 9207" class="cls-4" d="M128.19,27.64h-2.27v-1.8h0A6,6,0,0,1,121,27.89c-4.86,0-7.2-3.31-7.2-7.92s2.4-8.13,7.2-8.13A6.37,6.37,0,0,1,125.87,14h0V6.93h2.27ZM121.1,14c-3.6,0-5,2.64-5,5.92s1.38,5.78,5,5.78,5-2.5,5-5.78-1.34-5.92-5-5.92" transform="translate(-15.95 -4.61)"/></g><g id="Grupo_3515" data-name="Grupo 3515"><path id="Trazado_9208" data-name="Trazado 9208" class="cls-4" d="M150,27.64H147.7V26.26h0a7.57,7.57,0,0,1-5,1.66c-3.13,0-6.34-1.21-6.34-4.79,0-4.89,6.17-5.07,9.94-5.07.58,0,1.16,0,1.73.1l-.24-.27v-.34c0-2.67-1.95-3.53-4.27-3.53a7.19,7.19,0,0,0-4.89,1.55L137,14a9.39,9.39,0,0,1,6.47-2.15c3.3,0,6.54,1.31,6.54,5.65Zm-2-7.5c-.29,0-1.08-.08-1.58-.08-2.71,0-7.82,0-7.82,3.07,0,2.07,2.4,2.64,4.1,2.64s5.06-.45,5.06-2.67V20.36Z" transform="translate(-15.95 -4.61)"/></g><g id="Grupo_3516" data-name="Grupo 3516"><path id="Trazado_9209" data-name="Trazado 9209" class="cls-4" d="M171.19,25.62a7.6,7.6,0,0,1-5.78,2.27c-5,0-7.38-3.38-7.38-7.9s2.69-8.14,7.43-8.14a7.27,7.27,0,0,1,5.53,2l-1.6,1.6A5.16,5.16,0,0,0,165.46,14c-3.48,0-5.16,2.74-5.16,6s1.46,5.73,5.14,5.73A5.36,5.36,0,0,0,169.59,24Z" transform="translate(-15.95 -4.61)"/></g><g id="Grupo_3517" data-name="Grupo 3517"><path id="Trazado_9210" data-name="Trazado 9210" class="cls-4" d="M179.88,10a1.43,1.43,0,0,1-1.49-1.37,2.17,2.17,0,0,1,0-.26,1.44,1.44,0,0,1,1.24-1.62,1,1,0,0,1,.24,0,1.42,1.42,0,0,1,1.49,1.36,1.22,1.22,0,0,1,0,.27A1.43,1.43,0,0,1,180.12,10a1,1,0,0,1-.24,0M181,27.64h-2.27V12.09H181Z" transform="translate(-15.95 -4.61)"/></g><g id="Grupo_3518" data-name="Grupo 3518"><path id="Trazado_9211" data-name="Trazado 9211" class="cls-4" d="M196.45,27.89c-4.88,0-7.33-3.36-7.33-8s2.45-8,7.33-8,7.36,3.33,7.36,8-2.49,8-7.36,8m0-13.88c-3.58,0-5.06,2.55-5.06,5.86s1.51,5.85,5.09,5.85,5.06-2.57,5.06-5.85S200,14,196.45,14m3.41-7.72L195,10.48l-1-1,4.2-4.89Z" transform="translate(-15.95 -4.61)"/></g><g id="Grupo_3519" data-name="Grupo 3519"><path id="Trazado_9212" data-name="Trazado 9212" class="cls-4" d="M225.68,27.64h-2.27V18.21c0-2.47-.77-4.2-4.34-4.2-2.62,0-4.77,1.46-4.77,4.4v9.23H212V12.09h2.27V14h0a6.44,6.44,0,0,1,5-2.2c4.1,0,6.37,2.1,6.37,5.88Z" transform="translate(-15.95 -4.61)"/></g></g></g></g></svg>