<?xml version="1.0" encoding="utf-8"?>
<!-- Generator: Adobe Illustrator 25.4.1, SVG Export Plug-In . SVG Version: 6.00 Build 0)  -->
<svg version="1.1" id="Capa_1" xmlns="http://www.w3.org/2000/svg" xmlns:xlink="http://www.w3.org/1999/xlink" x="0px" y="0px"
	 viewBox="0 0 207 38" style="enable-background:new 0 0 207 38;" xml:space="preserve">
<style type="text/css">
	.st0{fill:#ACD24C;}
	.st1{fill:#32C1EB;}
	.st2{fill:#A9D14C;}
</style>
<g>
	<g id="Grupo_3651">
		<path id="Trazado_9281" class="st0" d="M63,3h-3.5v3.5H63V3z"/>
		<path id="Trazado_9282" class="st0" d="M59.5,6.5H56V10h-3.5v3.5h7V6.5z"/>
		<path id="Trazado_9283" class="st0" d="M63,13.5h-3.5V17H63V13.5z"/>
		<path id="Trazado_9284" class="st0" d="M49,17h3.5v-3.5H49V17z"/>
		<path id="Trazado_9285" class="st0" d="M52.5,3H49v3.5h3.5V3z"/>
		<path id="Trazado_9286" class="st0" d="M7.5,6.1V17H4.1V6.1H0L0.1,3h11.5l0.1,3.1H7.5z"/>
		<path id="Trazado_9287" class="st0" d="M24.1,11.5l3.3,5.5h-4L21,12.2h-2.1V17h-3.5V3H21c3.8,0,5.7,1.4,5.7,4.5
			C26.7,9.5,25.8,11,24.1,11.5 M21,5.8h-2.1v4H21c1.5,0,2.1-0.4,2.1-2S22.6,5.8,21,5.8"/>
		<path id="Trazado_9288" class="st0" d="M40.8,14.3h-5.5L34.4,17h-3.6l5.3-14h4.1l5.3,14h-3.8L40.8,14.3z M37.6,6.9l-1.5,4.8H40
			l-1.5-4.8l-0.4-1.5h-0.1L37.6,6.9z"/>
		<path id="Trazado_9289" class="st0" d="M66.5,3H70v14h-3.5V3z"/>
		<path id="Trazado_9290" class="st0" d="M75,6.2c-0.5,0-0.8-0.2-0.8-0.8s0.2-0.9,0.8-0.9s0.8,0.2,0.8,0.8S75.5,6.2,75,6.2 M75,5.8
			c0.2,0,0.2-0.1,0.2-0.4S75.1,4.9,75,4.9S74.7,5,74.7,5.3S74.8,5.8,75,5.8"/>
		<path id="Trazado_9291" class="st0" d="M76.8,6.1v-1c0-0.1-0.1-0.2-0.2-0.2c-0.1,0-0.2,0-0.2,0.1v1.1h-0.5V4.5h0.4l0.1,0.1
			c0.1-0.1,0.3-0.2,0.4-0.1c0.3,0,0.6,0.2,0.6,0.6v1L76.8,6.1z"/>
		<path id="Trazado_9292" class="st0" d="M75.8,7.7c-1.3,0-2.3-1-2.3-2.3s1-2.3,2.3-2.3c1.3,0,2.3,1,2.3,2.3c0,0,0,0,0,0
			C78.1,6.6,77.1,7.7,75.8,7.7 M75.8,3.4c-1.1,0-2,0.9-2,2s0.9,2,2,2s2-0.9,2-2S76.9,3.4,75.8,3.4"/>
	</g>
	<g id="Grupo_3650">
		<path id="Trazado_9270" class="st1" d="M154.1,14.5c-2.5,0-4.5-2-4.5-4.5s2-4.5,4.5-4.5c2.5,0,4.5,2,4.5,4.5
			C158.6,12.5,156.6,14.5,154.1,14.5C154.1,14.5,154.1,14.5,154.1,14.5"/>
		<path id="Trazado_9271" d="M103.6,7.4v6.9h-2V7.4h-2.3V5.7h6.6v1.8H103.6z"/>
		<path id="Trazado_9272" d="M114,10.7l2,3.6h-2.3l-1.5-3.2H111v3.2h-2V5.6h3.2c2.1,0,3.2,0.9,3.2,2.7
			C115.5,9.4,114.9,10.4,114,10.7 M112.2,7.3h-1.2v2.4h1.2c0.9,0,1.2-0.3,1.2-1.2S113,7.3,112.2,7.3"/>
		<path id="Trazado_9273" d="M124,12.6h-3.1l-0.5,1.7h-2.1l3-8.7h2.3l3,8.7h-2.2L124,12.6z M122.2,8l-0.9,3h2.2l-0.8-3l-0.2-0.9l0,0
			L122.2,8z"/>
		<path id="Trazado_9274" d="M134.4,9.8l2.5,4.5h-2.2l-1.3-2.5L133,11l0,0l-0.4,0.9l-1.2,2.5h-2.2l2.5-4.5l-2.4-4.2h2.3l1.1,2.2
			l0.4,0.8l0,0l0.4-0.8l1.1-2.2h2.2L134.4,9.8z"/>
		<path id="Trazado_9275" d="M143.2,11.5h-1.2v2.8h-1.9V5.6h3.1c2.4,0,3.4,0.9,3.4,3C146.6,10.5,145.6,11.5,143.2,11.5 M143.2,7.3
			h-1.2V10h1.2c1,0,1.4-0.2,1.4-1.3S144.2,7.3,143.2,7.3"/>
		<path id="Trazado_9276" d="M166.8,10.7l2,3.6h-2.3l-1.5-3.2h-1.2v3.2h-2V5.6h3.2c2.1,0,3.2,0.9,3.2,2.7
			C168.3,9.4,167.7,10.4,166.8,10.7 M165,7.3h-1.2v2.4h1.2c0.9,0,1.2-0.3,1.2-1.2S165.8,7.3,165,7.3"/>
		<path id="Trazado_9277" d="M175.4,7.4v6.9h-2V7.4h-2.3V5.7h6.5l0.1,1.8H175.4z"/>
		<path id="Trazado_9278" class="st2" d="M183.4,5.7l-4.3,8.7h8.7L183.4,5.7z"/>
		<path id="Trazado_9279" d="M189.7,7.2l0.3,0.5h-0.3l-0.2-0.5h-0.2v0.5h-0.3V6.5h0.5c0.3,0,0.5,0.1,0.5,0.4
			C189.9,7.1,189.8,7.2,189.7,7.2 M189.4,6.7h-0.2v0.4h0.2c0.1,0,0.2,0,0.2-0.2S189.5,6.7,189.4,6.7"/>
		<path id="Trazado_9280" d="M189.4,8.6c-0.8,0-1.4-0.6-1.4-1.4c0-0.8,0.6-1.4,1.4-1.4s1.4,0.6,1.4,1.4
			C190.8,7.9,190.2,8.6,189.4,8.6 M189.4,5.9c-0.7,0-1.2,0.5-1.2,1.2c0,0,0,0,0,0c0,0.7,0.6,1.2,1.2,1.2c0.7,0,1.2-0.6,1.2-1.2
			C190.6,6.4,190,5.9,189.4,5.9C189.4,5.9,189.4,5.9,189.4,5.9"/>
	</g>
</g>
</svg>
