<svg id="Capa_1" data-name="Capa 1" xmlns="http://www.w3.org/2000/svg" viewBox="0 0 38.07 38.07"><defs><style>.cls-1{fill:#4c9b2f;}.cls-2{fill:#143455;}</style></defs><g id="Grupo_3695" data-name="Grupo 3695"><path id="Trazado_9363" data-name="Trazado 9363" class="cls-1" d="M19,10.28a3.71,3.71,0,0,1,3.67-3.69h-7.3A3.67,3.67,0,0,1,19,10.28" transform="translate(0.04 0.04)"/><path id="Trazado_9364" data-name="Trazado 9364" class="cls-2" d="M13.57,3.24a1,1,0,0,1-.06-.33.67.67,0,0,1,.06-.28.69.69,0,0,1,.16-.22A.6.6,0,0,1,14,2.28a.78.78,0,0,1,.26,0,.47.47,0,0,1,.2,0v.3a.7.7,0,0,0-.14,0,.41.41,0,0,0-.19,0,.35.35,0,0,0-.12.07.42.42,0,0,0-.08.12.37.37,0,0,0,0,.18,1,1,0,0,0,0,.24.66.66,0,0,0,.09.19.68.68,0,0,0,.12.12.48.48,0,0,0,.14,0l.15,0a.69.69,0,0,0,.19-.1.52.52,0,0,0,.1-.11l.12.27s0,0-.05.05a.21.21,0,0,1-.08.06l-.12.07a.76.76,0,0,1-.16.06.59.59,0,0,1-.27,0,.53.53,0,0,1-.24-.08,1,1,0,0,1-.21-.19A1.23,1.23,0,0,1,13.57,3.24Zm8.85,31.24L22.76,36l.36-.08-.34-1.47ZM19,34.61c0,.13-.08.27-.13.4s-.1.27-.14.4l-.13.36c0-.11-.08-.24-.12-.38L18.33,35c0-.14-.07-.28-.11-.41l-.08-.33-.49,0-.08,2.09h.36L18,35c0,.11.07.23.1.35s.07.24.11.36.07.23.1.34.07.2.1.28h.3l.11-.28c0-.1.08-.22.13-.33s.08-.24.13-.36.08-.24.12-.34l0,1.33h.37l.05-2.09H19.1Zm3.27,1c0-.06-.1-.12-.15-.18l-.15-.17.09-.19c0-.06,0-.13.08-.19l.08-.2.08-.2-.39.06a.42.42,0,0,0,0,.1l0,.08-.06.14a1,1,0,0,1-.06.14l-.1-.11-.08-.11-.12-.16-.42.07.14.16c0,.06.09.11.13.16l.15.17a2.09,2.09,0,0,0,.14.17l-.08.2-.09.2-.09.21a2,2,0,0,1-.08.22l.39-.06a.69.69,0,0,1,.05-.13l0-.11.11-.27.19.23.15.19.41-.06-.14-.19Zm.33-1.39a.21.21,0,0,0,.13-.1.23.23,0,0,0-.07-.29.22.22,0,0,0-.29.06h0a.18.18,0,0,0,0,.16.21.21,0,0,0,.24.16ZM21,35.85l0,.29a.45.45,0,0,1-.17.11.72.72,0,0,1-.29.06.67.67,0,0,1-.28,0,.51.51,0,0,1-.23-.15.63.63,0,0,1-.16-.23,1.14,1.14,0,0,1-.07-.32.9.9,0,0,1,.12-.6.59.59,0,0,1,.86-.1.83.83,0,0,1,.18.48v.1a.11.11,0,0,1,0,.08l-.79.06a.84.84,0,0,0,.05.17.45.45,0,0,0,.1.13.29.29,0,0,0,.14.08.25.25,0,0,0,.15,0A.53.53,0,0,0,21,35.85Zm-.8-.49.43,0c0-.22-.1-.33-.23-.32a.19.19,0,0,0-.15.09.5.5,0,0,0,0,.27Zm-3.52-.59a.65.65,0,0,1,.06.47l-.12.67a.76.76,0,0,0,0,.15v.11l-.35-.06a.22.22,0,0,1,0-.08V36a.43.43,0,0,1-.39.12.49.49,0,0,1-.17-.06.38.38,0,0,1-.16-.28,1.09,1.09,0,0,1,0-.18.45.45,0,0,1,.22-.33.72.72,0,0,1,.48-.09h.15a.34.34,0,0,0,0-.2.25.25,0,0,0-.18-.12.81.81,0,0,0-.22,0l-.2.08,0-.31.21,0a.94.94,0,0,1,.29,0,.55.55,0,0,1,.39.23Zm-.34.64a.65.65,0,0,0-.31,0,.19.19,0,0,0-.12.17.14.14,0,0,0,0,.14.16.16,0,0,0,.12.08.17.17,0,0,0,.12,0,.19.19,0,0,0,.1-.05Zm-2.73-.76a1.28,1.28,0,0,1-.17.3.72.72,0,0,1-.21.18.47.47,0,0,1-.25.07.68.68,0,0,1-.51-.19.79.79,0,0,1-.14-.23.92.92,0,0,1,0-.29,1,1,0,0,1,.09-.33,1,1,0,0,1,.16-.28.6.6,0,0,1,.21-.18.72.72,0,0,1,.25-.07.71.71,0,0,1,.28.06.6.6,0,0,1,.37.36.89.89,0,0,1-.05.6Zm-.29-.51a.22.22,0,0,0-.24-.21.2.2,0,0,0-.14.06.72.72,0,0,0-.2.31.85.85,0,0,0-.08.39.23.23,0,0,0,.23.22.24.24,0,0,0,.16-.07.89.89,0,0,0,.21-.33.81.81,0,0,0,.07-.37ZM0,19A19,19,0,1,1,19,38,19,19,0,0,1,0,19ZM.2,19A18.8,18.8,0,1,0,19,.2h0A18.82,18.82,0,0,0,.2,19Zm6.37,4.18h8.28v-8.3H6.57A4.16,4.16,0,0,0,10.77,19a4.23,4.23,0,0,0-4.2,4.18ZM12.1,33.6H12a.41.41,0,0,1,.1.13.52.52,0,0,1,.07.15.91.91,0,0,1,0,.17.64.64,0,0,1-.06.18.55.55,0,0,1-.17.2.44.44,0,0,1-.22.1.66.66,0,0,1-.28,0,1.21,1.21,0,0,1-.3-.11l-.51-.26.95-1.86.41.21.17.1.14.1a.63.63,0,0,1,.21.3.52.52,0,0,1,0,.35.58.58,0,0,1-.11.15l-.12.08-.13,0Zm-.33.17a.51.51,0,0,0-.26-.22l-.11-.06-.28.56.12.07a.55.55,0,0,0,.31.07.29.29,0,0,0,.2-.16.33.33,0,0,0,0-.26Zm.31-.58a.22.22,0,0,0,0-.21.51.51,0,0,0-.22-.19l-.09,0-.23.46.07,0,.17.07h.13a.19.19,0,0,0,.09,0,.22.22,0,0,0,.07-.09Zm2.17.22-.66,2,.35.12.66-2ZM15,34.57h.13a.49.49,0,0,1,.18.08.86.86,0,0,1,.14.13l.12-.27a1,1,0,0,0-.16-.12l-.22-.08a.47.47,0,0,0-.2,0,.41.41,0,0,0-.19,0,.33.33,0,0,0-.15.11.26.26,0,0,0-.09.17.47.47,0,0,0,0,.17.53.53,0,0,0,.05.15.64.64,0,0,0,.1.13l.13.11a.57.57,0,0,1,.14.13.15.15,0,0,1,0,.14.16.16,0,0,1,0,.07.09.09,0,0,1-.06,0h-.14a.54.54,0,0,1-.2-.1l-.16-.15-.12.3a1.33,1.33,0,0,0,.19.14,1.17,1.17,0,0,0,.24.09.64.64,0,0,0,.43,0,.48.48,0,0,0,.24-.48.33.33,0,0,0,0-.14.4.4,0,0,0-.1-.12l-.12-.1a.45.45,0,0,1-.1-.09.23.23,0,0,1-.07-.07l0-.06a.09.09,0,0,1,0-.07.13.13,0,0,1,.08-.1ZM31.43,14.88H23.15V6.6A4.23,4.23,0,0,0,19,10.8a4.17,4.17,0,0,0-4.11-4.2v8.28L19,19l4.18-4.12v8.3h8.28A4.22,4.22,0,0,0,27.23,19a4.16,4.16,0,0,0,4.2-4.12Zm-9.7-12a.85.85,0,0,1,0-.32A.9.9,0,0,1,22,2a.55.55,0,0,1,.48-.11.51.51,0,0,1,.38.25.79.79,0,0,1,.05.5l0,.1a.29.29,0,0,1,0,.09l-.78-.16a.54.54,0,0,0,0,.18.47.47,0,0,0,.06.15.38.38,0,0,0,.11.11.37.37,0,0,0,.14.07.57.57,0,0,0,.38-.07l0,.3a.76.76,0,0,1-.2.06,1,1,0,0,1-.3,0A.54.54,0,0,1,22,3.31a.7.7,0,0,1-.18-.2.62.62,0,0,1-.09-.27Zm.42-.44.43.08c0-.22,0-.35-.13-.37a.16.16,0,0,0-.17.05.44.44,0,0,0-.13.24Zm-4.5-1a.16.16,0,0,0,.14-.08.21.21,0,0,0,0-.3A.27.27,0,0,0,17.62,1a.18.18,0,0,0-.14.08.23.23,0,0,0,0,.3.21.21,0,0,0,.15.05Zm6.61,33.82a.56.56,0,0,1-.19.09.26.26,0,0,1-.15,0,.37.37,0,0,1-.14,0,.63.63,0,0,1-.11-.12.72.72,0,0,1-.09-.2,1,1,0,0,1,0-.24.57.57,0,0,1,0-.18.28.28,0,0,1,.08-.12.23.23,0,0,1,.12-.06.41.41,0,0,1,.19,0l.14,0v-.3l-.2,0a.75.75,0,0,0-.26,0,.71.71,0,0,0-.26.13.65.65,0,0,0-.16.21.67.67,0,0,0-.06.28,1.24,1.24,0,0,0,0,.33.89.89,0,0,0,.15.31.64.64,0,0,0,.2.2.5.5,0,0,0,.24.09.63.63,0,0,0,.27,0,.52.52,0,0,0,.16-.06l.12-.06.08-.06s0,0,0-.05l-.11-.27a.52.52,0,0,1-.1.11ZM16.26,2l.2,0,.12.84a.53.53,0,0,0,.15.33.41.41,0,0,0,.32.08l.16,0,.11,0V2.85l-.09,0a.17.17,0,0,1-.1,0,.14.14,0,0,1-.13,0,.28.28,0,0,1-.06-.18l-.11-.77.33,0,0-.23-.33.05-.06-.45-.34.21,0,.29-.19,0Zm2.31.31c-.06.08-.11.17-.16.25a2.26,2.26,0,0,0-.16.26v.24h1.1V2.78H18.7l.15-.24L19,2.31l.16-.26.16-.26V1.55h-1v.28h.58l-.15.24-.15.24Zm1,.5a.55.55,0,0,1,0-.18.5.5,0,0,1,.18-.35.82.82,0,0,1,.47-.15h.15a.29.29,0,0,0-.05-.2.28.28,0,0,0-.19-.09.71.71,0,0,0-.21,0,1.24,1.24,0,0,0-.2.1V1.66l.21-.08a1,1,0,0,1,.29,0,.53.53,0,0,1,.41.19.63.63,0,0,1,.12.46l-.05.68V3a.5.5,0,0,0,0,.12l-.35,0a.19.19,0,0,1,0-.08.19.19,0,0,1,0-.08.29.29,0,0,1-.15.12.36.36,0,0,1-.22,0,.58.58,0,0,1-.18,0A.32.32,0,0,1,19.67,3a.33.33,0,0,1-.07-.16ZM20,2.65a.18.18,0,0,0,0,.14.14.14,0,0,0,.12.06.27.27,0,0,0,.13,0,.47.47,0,0,0,.09-.06l0-.36a.54.54,0,0,0-.3.06.22.22,0,0,0-.1.18Zm3.73,0a.49.49,0,0,1,.14-.11.22.22,0,0,1,.16,0,.17.17,0,0,1,.12.1.27.27,0,0,1,0,.18l-.29,1,.36.11.29-1a.61.61,0,0,0,0-.4.39.39,0,0,0-.3-.24l-.13,0a.35.35,0,0,0-.11,0l-.1,0-.08.05.06-.17-.35-.1L23,3.55l.36.11Zm2.74,30.5a.39.39,0,0,0-.38,0l-.11.08-.07.09a.6.6,0,0,0-.06.19l-.08-.16-.32.15.66,1.36.33-.16-.46-.95a.47.47,0,0,1,0-.17.23.23,0,0,1,.11-.11.18.18,0,0,1,.16,0,.28.28,0,0,1,.12.14l.44.91.33-.16-.44-.92a.59.59,0,0,0-.26-.3Zm-.73,1.76a.36.36,0,0,0,.07.1l-.33.13-.05-.06L25.34,35a.38.38,0,0,1-.08.17.36.36,0,0,1-.19.13.32.32,0,0,1-.17,0,.29.29,0,0,1-.16,0,.69.69,0,0,1-.13-.11.8.8,0,0,1-.08-.16.47.47,0,0,1,0-.4.91.91,0,0,1,.37-.33l.13-.06a.31.31,0,0,0-.13-.17.26.26,0,0,0-.21,0,.42.42,0,0,0-.18.11,1.15,1.15,0,0,0-.14.17l-.14-.28.16-.16a1.19,1.19,0,0,1,.25-.13.53.53,0,0,1,.46,0,.65.65,0,0,1,.3.37l.24.63a.52.52,0,0,0,.06.13Zm-.43-.08-.13-.33a.62.62,0,0,0-.25.17.25.25,0,0,0,0,.22.19.19,0,0,0,.1.1.12.12,0,0,0,.14,0,.21.21,0,0,0,.1-.06l.06-.1Zm-10.46-32a1.23,1.23,0,0,1,0-.33.79.79,0,0,1,.08-.26A.55.55,0,0,1,15,2a.8.8,0,0,1,.25-.11.6.6,0,0,1,.52.1.82.82,0,0,1,.3.51,1,1,0,0,1,0,.34.69.69,0,0,1-.08.28.45.45,0,0,1-.16.2.74.74,0,0,1-.54.12.7.7,0,0,1-.23-.11.79.79,0,0,1-.19-.22,1.52,1.52,0,0,1-.12-.32Zm.37-.08a.82.82,0,0,0,.15.36A.22.22,0,0,0,15.74,3a.86.86,0,0,0,0-.39.75.75,0,0,0-.16-.35.23.23,0,0,0-.32,0,.2.2,0,0,0-.08.12.7.7,0,0,0,0,.38Zm-.33,28.71A4.17,4.17,0,0,0,19,27.26a4.23,4.23,0,0,0,4.18,4.2V23.17H14.86Zm13.46,2.09.08.09-.3.18L28,33.76l-.06,0a.34.34,0,0,1,0,.17.37.37,0,0,1-.16.17.49.49,0,0,1-.17.06.29.29,0,0,1-.16,0,.42.42,0,0,1-.14-.09.49.49,0,0,1-.11-.14.47.47,0,0,1-.06-.4.87.87,0,0,1,.3-.38l.12-.09a.32.32,0,0,0-.16-.14.26.26,0,0,0-.21,0A.75.75,0,0,0,27,33a1.62,1.62,0,0,0-.1.18L26.73,33a1.27,1.27,0,0,1,.13-.19,1,1,0,0,1,.22-.18.55.55,0,0,1,.45-.07.64.64,0,0,1,.36.31l.34.58a.62.62,0,0,0,.08.12Zm-.44,0-.19-.3a.53.53,0,0,0-.21.21.22.22,0,0,0,0,.22.2.2,0,0,0,.11.09.18.18,0,0,0,.14,0,.32.32,0,0,0,.09-.08.42.42,0,0,0,0-.1ZM17.6,3.13l.37,0-.12-1.5-.37,0Z" transform="translate(0.04 0.04)"/></g></svg>