<svg id="Capa_1" data-name="Capa 1" xmlns="http://www.w3.org/2000/svg" viewBox="0 0 86.29 23.41"><path id="Trazado_9239" data-name="Trazado 9239" d="M12.4,8l0,2.1h2.81v7.84h2.44V10.1h2.8l0-2.1Z" transform="translate(-12.36 -5.8)"/><path id="Trazado_9240" data-name="Trazado 9240" d="M29.38,10h-1.5v2.63h1.47c1,0,1.43-.3,1.43-1.35S30.42,10,29.38,10m2.19,3.92L34,17.94H31.16l-1.79-3.6H27.88v3.6H25.49V8h3.89c2.6,0,3.91,1,3.91,3.12a2.62,2.62,0,0,1-1.72,2.75" transform="translate(-12.36 -5.8)"/><path id="Trazado_9241" data-name="Trazado 9241" d="M42.85,11.1l-1,3h2.58l-.92-3L43.25,9.9h0ZM45.08,16H41.3l-.6,1.9H38.15L41.82,8h2.82l3.73,9.94H45.66Z" transform="translate(-12.36 -5.8)"/><path id="Trazado_9242" data-name="Trazado 9242" d="M59.11,12.73l3.06,5.21H59.43L58,15.32l-.55-1.1h0l-.57,1.11-1.38,2.61H52.64l3-5.15L52.72,8h2.89l1.25,2.25.56,1.09h0L58,10.25,59.29,8h2.77Z" transform="translate(-12.36 -5.8)"/><path id="Trazado_9243" data-name="Trazado 9243" d="M67.5,8H70v9.94H67.5Z" transform="translate(-12.36 -5.8)"/><path id="Trazado_9244" data-name="Trazado 9244" d="M96.5,8v4.89l0,1.22,0,0-.7-1L92.14,8h-2v9.94h2.13V11.57l0,0,.68,1,3.77,5.36h1.91V8Z" transform="translate(-12.36 -5.8)"/><path id="Trazado_9245" data-name="Trazado 9245" d="M82.56,5.8,80.71,7.41H79.06l.86-1.61Zm-2.46,4c-1.52,0-2,.62-2,3.14s.55,3.17,2.06,3.17,2-.65,2-3.17-.52-3.14-2.05-3.14m0,8.32c-3.07,0-4.4-1.63-4.4-5.18S77,7.8,80.1,7.8,84.49,9.4,84.49,13s-1.27,5.18-4.39,5.18" transform="translate(-12.36 -5.8)"/><path id="Trazado_9246" data-name="Trazado 9246" d="M28.51,28.16l0,.94H25V23.87h1v4.3Zm5.6,1c-1.7,0-2.39-.86-2.39-2.7s.69-2.7,2.39-2.7,2.38.86,2.38,2.7-.68,2.7-2.38,2.7m0-4.48c-1,0-1.31.39-1.31,1.78s.36,1.78,1.31,1.78,1.3-.41,1.3-1.78-.33-1.77-1.3-1.77M44.22,28.9a4.32,4.32,0,0,1-1.63.3c-1.84,0-2.58-.9-2.58-2.7s.78-2.73,2.6-2.73a4.61,4.61,0,0,1,1.51.26l-.1.9a4.16,4.16,0,0,0-1.35-.23c-1.16,0-1.58.42-1.58,1.78s.38,1.79,1.46,1.79a2.64,2.64,0,0,0,.74-.1V26.32h.93Zm4-5H49.3V29.1H48.24Zm6.7,5.33a3.43,3.43,0,0,1-1.69-.41l.14-.9a3.12,3.12,0,0,0,1.55.41c.67,0,1-.25,1-.68,0-.94-2.63-.48-2.63-2.27,0-.85.57-1.57,1.91-1.57a4.16,4.16,0,0,1,1.53.29l-.13.87a4.52,4.52,0,0,0-1.36-.24c-.74,0-1,.28-1,.6,0,.92,2.63.43,2.63,2.26,0,1-.72,1.64-2,1.64m7.83-4.41v4.3H61.71v-4.3H60.16l0-.92h4.13l0,.92ZM68,23.87h1.06V29.1H68Zm8.65,1a3.1,3.1,0,0,0-1.13-.21c-1.09,0-1.48.45-1.48,1.75s.41,1.82,1.5,1.82A2.57,2.57,0,0,0,76.69,28l.12.85a3.52,3.52,0,0,1-1.39.31c-1.65,0-2.44-.9-2.44-2.75s.77-2.67,2.51-2.67a3.78,3.78,0,0,1,1.3.23Zm5.38,4.28a3.43,3.43,0,0,1-1.69-.4l.15-.9a3.09,3.09,0,0,0,1.54.41c.67,0,1-.25,1-.68,0-.94-2.64-.48-2.64-2.27,0-.85.57-1.57,1.92-1.57a4.24,4.24,0,0,1,1.53.29l-.14.87a4.41,4.41,0,0,0-1.35-.24c-.74,0-1,.28-1,.6,0,.92,2.64.43,2.64,2.26,0,1-.73,1.64-2,1.64" transform="translate(-12.36 -5.8)"/></svg>